%TF.GenerationSoftware,Altium Limited,Altium Designer,22.9.1 (49)*%
G04 Layer_Color=16711935*
%FSLAX45Y45*%
%MOMM*%
%TF.SameCoordinates,29712687-7F25-45B9-B314-6CDD0CF2420B*%
%TF.FilePolarity,Negative*%
%TF.FileFunction,Soldermask,Bot*%
%TF.Part,Single*%
G01*
G75*
%TA.AperFunction,SMDPad,CuDef*%
%ADD57R,1.05000X1.05000*%
%ADD58R,1.90000X1.40000*%
%ADD59R,1.05000X1.05000*%
%ADD60R,5.20000X4.60000*%
%ADD61R,1.85000X0.70000*%
%ADD62R,1.00000X1.00000*%
%ADD63R,1.00000X1.00000*%
%TA.AperFunction,ComponentPad*%
%ADD64O,1.90000X1.00000*%
%ADD65R,1.45800X1.45800*%
%ADD66C,1.45800*%
%ADD67C,1.65000*%
%ADD68R,1.45800X1.45800*%
%TA.AperFunction,WasherPad*%
%ADD69C,1.65000*%
D57*
X6462503Y5905424D02*
D03*
X6617499D02*
D03*
X6024999Y6044571D02*
D03*
X6180000D02*
D03*
X6630000Y5553366D02*
D03*
X6474999D02*
D03*
X7485001Y8200000D02*
D03*
X7330000D02*
D03*
D58*
X8888003Y5772277D02*
D03*
Y5492277D02*
D03*
X8367103Y5772277D02*
D03*
Y5492277D02*
D03*
X8627498Y5767268D02*
D03*
Y5487268D02*
D03*
Y5982701D02*
D03*
Y6262700D02*
D03*
X8627502Y4790430D02*
D03*
Y5070429D02*
D03*
Y4580005D02*
D03*
Y4300000D02*
D03*
X8887998Y4790430D02*
D03*
Y5070429D02*
D03*
X8887999Y5982701D02*
D03*
X8887996Y6262700D02*
D03*
X8887998Y4580005D02*
D03*
Y4300000D02*
D03*
X8367102Y4580005D02*
D03*
Y4300000D02*
D03*
X8367105Y6944412D02*
D03*
Y6664412D02*
D03*
X8887953Y7434840D02*
D03*
Y7154835D02*
D03*
X8627526Y7434840D02*
D03*
Y7154840D02*
D03*
X8887953Y6944412D02*
D03*
Y6664412D02*
D03*
X8627526Y6944412D02*
D03*
Y6664412D02*
D03*
X8072877Y7951577D02*
D03*
Y8231576D02*
D03*
X8333303Y7946568D02*
D03*
Y8226567D02*
D03*
X8603300Y7951577D02*
D03*
Y8231576D02*
D03*
X8069148Y8731575D02*
D03*
Y8451576D02*
D03*
X8329574Y8731575D02*
D03*
Y8451576D02*
D03*
D59*
X8407102Y4930430D02*
D03*
Y4775429D02*
D03*
X8407103Y6120201D02*
D03*
Y5965200D02*
D03*
X8407105Y7297339D02*
D03*
Y7142339D02*
D03*
X5027856Y5068986D02*
D03*
Y4913990D02*
D03*
D60*
X8974999Y8650000D02*
D03*
D61*
X8585002Y8840500D02*
D03*
Y8713500D02*
D03*
Y8586500D02*
D03*
Y8459500D02*
D03*
D62*
X7477873Y8023363D02*
D03*
X7327870D02*
D03*
X6479998Y5730000D02*
D03*
X6630000D02*
D03*
X6170000Y6220000D02*
D03*
X6020003D02*
D03*
D63*
X4852427Y5063990D02*
D03*
Y4913993D02*
D03*
D64*
X4550000Y6170000D02*
D03*
Y5510000D02*
D03*
D65*
X4850000Y8396002D02*
D03*
X4853997Y4323000D02*
D03*
X4850001Y7526277D02*
D03*
X4854004Y6662552D02*
D03*
D66*
X4596000Y8523002D02*
D03*
X4850000Y8650002D02*
D03*
X4596000Y8777002D02*
D03*
X5699001Y8546002D02*
D03*
X5826001Y8800002D02*
D03*
X5953001Y8546002D02*
D03*
X4599997Y4704000D02*
D03*
X4853997Y4577000D02*
D03*
X4599997Y4450000D02*
D03*
X7083000Y8545999D02*
D03*
X6956000Y8799999D02*
D03*
X6829000Y8545999D02*
D03*
X6702000Y8799999D02*
D03*
X6575000Y8545999D02*
D03*
X4596001Y7907277D02*
D03*
X4850001Y7780277D02*
D03*
X4596001Y7653277D02*
D03*
X4600004Y7043552D02*
D03*
X4854004Y6916552D02*
D03*
X4600004Y6789552D02*
D03*
D67*
X4670001Y8256002D02*
D03*
X6220001Y8620002D02*
D03*
X4673997Y4183000D02*
D03*
X7350000Y8619999D02*
D03*
X4670001Y7386277D02*
D03*
X4674004Y6522552D02*
D03*
D68*
X6080001Y8800002D02*
D03*
X7210000Y8799999D02*
D03*
D69*
X5400000Y8000000D02*
D03*
X7400000Y4400000D02*
D03*
%TF.MD5,9ec51bf273930ad1c5287ee4d921abd3*%
M02*
