%TF.GenerationSoftware,Altium Limited,Altium Designer,22.9.1 (49)*%
G04 Layer_Color=128*
%FSLAX45Y45*%
%MOMM*%
%TF.SameCoordinates,29712687-7F25-45B9-B314-6CDD0CF2420B*%
%TF.FilePolarity,Positive*%
%TF.FileFunction,Paste,Bot*%
%TF.Part,Single*%
G01*
G75*
%TA.AperFunction,SMDPad,CuDef*%
%ADD11R,1.80000X1.30000*%
%ADD12R,0.95000X0.95000*%
%ADD14R,0.90000X0.90000*%
%ADD20R,0.95000X0.95000*%
%ADD23R,1.75000X0.60000*%
%ADD30R,0.90000X0.90000*%
%ADD47R,5.10000X4.50000*%
D11*
X8888003Y5772277D02*
D03*
Y5492277D02*
D03*
X8367103Y5772277D02*
D03*
Y5492277D02*
D03*
X8627498Y5767268D02*
D03*
Y5487268D02*
D03*
Y5982701D02*
D03*
Y6262700D02*
D03*
X8627502Y4790430D02*
D03*
Y5070429D02*
D03*
Y4580005D02*
D03*
Y4300000D02*
D03*
X8887998Y4790430D02*
D03*
Y5070429D02*
D03*
X8887999Y5982701D02*
D03*
X8887996Y6262700D02*
D03*
X8887998Y4580005D02*
D03*
Y4300000D02*
D03*
X8367102Y4580005D02*
D03*
Y4300000D02*
D03*
X8367105Y6944412D02*
D03*
Y6664412D02*
D03*
X8887953Y7434840D02*
D03*
Y7154835D02*
D03*
X8627526Y7434840D02*
D03*
Y7154840D02*
D03*
X8887953Y6944412D02*
D03*
Y6664412D02*
D03*
X8627526Y6944412D02*
D03*
Y6664412D02*
D03*
X8072877Y7951577D02*
D03*
Y8231576D02*
D03*
X8333303Y7946568D02*
D03*
Y8226567D02*
D03*
X8603300Y7951577D02*
D03*
Y8231576D02*
D03*
X8069148Y8731575D02*
D03*
Y8451576D02*
D03*
X8329574Y8731575D02*
D03*
Y8451576D02*
D03*
D12*
X8407102Y4930430D02*
D03*
Y4775429D02*
D03*
X8407103Y6120201D02*
D03*
Y5965200D02*
D03*
X8407105Y7297339D02*
D03*
Y7142339D02*
D03*
X5027856Y5068986D02*
D03*
Y4913990D02*
D03*
D14*
X4852427Y5063990D02*
D03*
Y4913993D02*
D03*
D20*
X6462503Y5905424D02*
D03*
X6617499D02*
D03*
X6024999Y6044571D02*
D03*
X6180000D02*
D03*
X6630000Y5553366D02*
D03*
X6474999D02*
D03*
X7485001Y8200000D02*
D03*
X7330000D02*
D03*
D23*
X8585002Y8840500D02*
D03*
Y8713500D02*
D03*
Y8586500D02*
D03*
Y8459500D02*
D03*
D30*
X7477873Y8023363D02*
D03*
X7327870D02*
D03*
X6479998Y5730000D02*
D03*
X6630000D02*
D03*
X6170000Y6220000D02*
D03*
X6020003D02*
D03*
D47*
X8974999Y8650000D02*
D03*
%TF.MD5,9753108f4d5f8ca69b2c03dfa5fd23db*%
M02*
