%TF.GenerationSoftware,Altium Limited,Altium Designer,22.9.1 (49)*%
G04 Layer_Physical_Order=1*
G04 Layer_Color=255*
%FSLAX45Y45*%
%MOMM*%
%TF.SameCoordinates,29712687-7F25-45B9-B314-6CDD0CF2420B*%
%TF.FilePolarity,Positive*%
%TF.FileFunction,Copper,L1,Top,Signal*%
%TF.Part,Single*%
G01*
G75*
%TA.AperFunction,Conductor*%
%ADD10C,0.25400*%
%TA.AperFunction,SMDPad,CuDef*%
%ADD11R,1.80000X1.30000*%
%ADD12R,0.95000X0.95000*%
%ADD13R,0.60000X0.30000*%
%ADD14R,0.90000X0.90000*%
%ADD15R,1.65000X5.60000*%
%ADD16R,0.60000X1.00000*%
%TA.AperFunction,ConnectorPad*%
%ADD17R,1.35000X0.40000*%
%ADD18R,1.40000X1.60000*%
%TA.AperFunction,SMDPad,CuDef*%
%ADD19R,1.90000X1.90000*%
%ADD20R,0.95000X0.95000*%
%ADD21R,0.55000X1.45000*%
%ADD22R,1.45000X0.55000*%
%ADD23R,1.75000X0.60000*%
%ADD24R,3.00000X3.00000*%
%TA.AperFunction,SMDPad,SMDef*%
%ADD25R,0.25000X0.60000*%
%ADD26R,0.50000X3.50000*%
%ADD27R,0.50000X1.67500*%
%ADD28R,1.40000X3.50000*%
%ADD29R,0.60000X0.25000*%
%TA.AperFunction,SMDPad,CuDef*%
%ADD30R,0.90000X0.90000*%
%ADD31R,1.30000X1.80000*%
%ADD32R,5.00000X5.00000*%
%ADD33R,0.60000X1.75000*%
%ADD34R,0.74000X2.79000*%
%ADD35R,1.00000X0.60000*%
%TA.AperFunction,Conductor*%
%ADD36C,0.30000*%
%ADD37C,0.50000*%
%ADD38C,1.00000*%
%ADD39C,0.26000*%
%TA.AperFunction,ComponentPad*%
%ADD40O,1.80000X0.90000*%
%ADD41R,1.35800X1.35800*%
%ADD42C,1.35800*%
%ADD43C,1.55000*%
%ADD44R,1.35800X1.35800*%
%TA.AperFunction,WasherPad*%
%ADD45C,1.55000*%
%TA.AperFunction,ViaPad*%
%ADD46C,0.45000*%
G36*
X9350000Y8173446D02*
X9335000Y8171969D01*
X9333840Y8177804D01*
X9329419Y8184419D01*
X9322804Y8188840D01*
X9315830Y8190227D01*
Y8259218D01*
X9085030D01*
Y8190392D01*
X9052900D01*
Y8247301D01*
X8907100D01*
Y8190392D01*
X8857475D01*
Y8192296D01*
X8802075D01*
X8746675D01*
Y8164596D01*
X8752075D01*
Y8112995D01*
X8738217Y8107255D01*
X8719198Y8126274D01*
X8708382Y8133501D01*
X8702078Y8134755D01*
Y8202554D01*
X8704696Y8204508D01*
X8705687Y8205608D01*
X8706919Y8206431D01*
X8708326Y8208537D01*
X8710022Y8210419D01*
X8710517Y8211815D01*
X8711340Y8213047D01*
X8711834Y8215530D01*
X8712680Y8217918D01*
X8712603Y8219398D01*
X8712892Y8220850D01*
Y8300000D01*
X8712124Y8303860D01*
X8711374Y8307720D01*
X8711349Y8307758D01*
X8711340Y8307804D01*
X8709159Y8311068D01*
X8706983Y8314355D01*
X8706945Y8314381D01*
X8706919Y8314419D01*
X8703663Y8316595D01*
X8700387Y8318805D01*
X8700342Y8318814D01*
X8700304Y8318840D01*
X8696452Y8319606D01*
X8692591Y8320392D01*
X8182121Y8322661D01*
X8181967Y8322631D01*
X8181812Y8322660D01*
X8178063Y8321872D01*
X8174311Y8321143D01*
X8174179Y8321056D01*
X8174025Y8321024D01*
X8170876Y8318870D01*
X8167676Y8316752D01*
X8167587Y8316621D01*
X8167458Y8316533D01*
X8158042Y8306913D01*
X8113303D01*
Y8254455D01*
X8112911Y8252485D01*
Y7962500D01*
X8113303Y7960530D01*
Y7706913D01*
X8318303D01*
Y7942108D01*
X8391227D01*
X8399031Y7943660D01*
X8403400Y7946580D01*
X8526227D01*
Y8008998D01*
X8526763D01*
X8540419Y8011714D01*
X8551997Y8019450D01*
X8587078Y8054532D01*
X8602078Y8048318D01*
Y8019999D01*
X8618738D01*
Y7959574D01*
X8569156D01*
Y7829574D01*
X8699156D01*
Y7861228D01*
X8739580D01*
Y7829972D01*
X8739580Y7829569D01*
X8738608Y7814972D01*
X8734180D01*
Y7757272D01*
X8804580D01*
X8874980D01*
Y7814972D01*
X8870552D01*
X8869580Y7829569D01*
X8869580Y7829972D01*
Y7938928D01*
X8890997D01*
X8912502Y7917423D01*
Y7829973D01*
X8912502Y7829573D01*
X8911539Y7814972D01*
X8907102D01*
Y7754772D01*
X9052902D01*
Y7814972D01*
X9048466D01*
X9047503Y7829573D01*
X9047502Y7829973D01*
Y7906526D01*
X9315000D01*
X9322804Y7908079D01*
X9329419Y7912499D01*
X9333840Y7919115D01*
X9335000Y7924949D01*
X9350000Y7923472D01*
Y4050000D01*
X7510000D01*
Y4244989D01*
X7521118Y4252418D01*
X7547582Y4278882D01*
X7568376Y4310002D01*
X7582698Y4344579D01*
X7590000Y4381287D01*
Y4418714D01*
X7582698Y4455421D01*
X7568376Y4489999D01*
X7547582Y4521118D01*
X7521118Y4547582D01*
X7510000Y4555011D01*
Y5346985D01*
X7525000Y5353199D01*
X7555003Y5323195D01*
Y5254074D01*
X7770003D01*
Y5270733D01*
X8112116D01*
X8266659Y5116190D01*
Y4462103D01*
X8269197Y4449344D01*
X8276425Y4438528D01*
X8348128Y4366825D01*
X8358944Y4359597D01*
X8371703Y4357059D01*
X8775687D01*
X8788446Y4359597D01*
X8799262Y4366825D01*
X8866141Y4433703D01*
X8879999Y4427963D01*
Y4143139D01*
X9219999D01*
Y4483138D01*
X9203962D01*
Y4661026D01*
X9108562D01*
Y4686426D01*
X9203962D01*
Y4864311D01*
X9220000D01*
Y5204311D01*
X8880001D01*
Y4869125D01*
X8878763D01*
Y4868731D01*
X8878559D01*
Y4813726D01*
X8853363D01*
Y4869125D01*
X8849206D01*
Y5024134D01*
X8846668Y5036893D01*
X8839441Y5047710D01*
X8352814Y5534337D01*
X8359027Y5549337D01*
X8772334D01*
X8785093Y5551875D01*
X8795910Y5559102D01*
X8865000Y5628193D01*
X8880000Y5621979D01*
Y5331687D01*
X9220000D01*
Y5671687D01*
X9196880D01*
Y5849574D01*
X9101481D01*
Y5874974D01*
X9196880D01*
Y6052861D01*
X9220000D01*
Y6392861D01*
X8880000D01*
Y6057674D01*
X8871682D01*
Y6057279D01*
X8871477D01*
Y6002274D01*
X8846282D01*
Y6057674D01*
X8842125D01*
Y6081216D01*
X8839587Y6093975D01*
X8832360Y6104791D01*
X8533576Y6403575D01*
X8522759Y6410803D01*
X8510001Y6413340D01*
X7770000D01*
Y6441359D01*
X8470337D01*
X8483096Y6443897D01*
X8493912Y6451125D01*
X8866142Y6823354D01*
X8880000Y6817614D01*
Y6533826D01*
X9220000D01*
Y6873826D01*
X9204998D01*
Y7051711D01*
X9109598D01*
Y7077111D01*
X9204998D01*
Y7255000D01*
X9220000D01*
Y7595000D01*
X8880000D01*
Y7259811D01*
X8879800D01*
Y7259416D01*
X8879595D01*
Y7204411D01*
X8854400D01*
Y7259811D01*
X8850242D01*
Y7300091D01*
X8847704Y7312850D01*
X8840477Y7323666D01*
X8795768Y7368375D01*
X8784951Y7375603D01*
X8772193Y7378141D01*
X8214800D01*
X8202041Y7375603D01*
X8191225Y7368375D01*
X8106425Y7283575D01*
X8099197Y7272759D01*
X8096659Y7260000D01*
Y6853810D01*
X7967182Y6724332D01*
X7953324Y6730072D01*
Y6752299D01*
X7880424D01*
Y6777699D01*
X7953324D01*
Y6837899D01*
X7948887D01*
X7947924Y6852500D01*
X7947924Y6852899D01*
Y6987500D01*
X7862356D01*
X7857924Y6988382D01*
X7853491Y6987500D01*
X7812924D01*
Y6965881D01*
X7770000D01*
Y6970000D01*
X7555000D01*
Y6870000D01*
X7770000D01*
Y6874118D01*
X7812924D01*
Y6853882D01*
X7812923Y6852500D01*
X7809588Y6838881D01*
X7775400D01*
Y6848400D01*
X7675200D01*
Y6793000D01*
Y6737600D01*
X7775400D01*
Y6747118D01*
X7807524D01*
Y6699340D01*
X7770000D01*
Y6716000D01*
X7555000D01*
Y6616000D01*
X7770000D01*
Y6632659D01*
X7956000D01*
X7968759Y6635197D01*
X7979575Y6642425D01*
X8153575Y6816425D01*
X8160803Y6827241D01*
X8163341Y6840000D01*
Y7246190D01*
X8228610Y7311460D01*
X8333175D01*
X8338916Y7297602D01*
X8256425Y7215111D01*
X8249197Y7204294D01*
X8246659Y7191536D01*
Y6740484D01*
X8109516Y6603341D01*
X7800000D01*
X7787241Y6600803D01*
X7776425Y6593575D01*
X7776012Y6593163D01*
X7770000Y6589000D01*
X7555000D01*
Y6506756D01*
X7548697Y6505502D01*
X7537881Y6498275D01*
X7525000Y6485394D01*
X7510000Y6491608D01*
Y7400000D01*
X7230000D01*
X6739252Y7890748D01*
X6745465Y7905748D01*
X6756801D01*
Y8005948D01*
X6714101D01*
Y7915000D01*
X6714101Y7906928D01*
X6703698Y7901965D01*
X6692501Y7911844D01*
X6692501Y7915000D01*
Y8126148D01*
X6592501D01*
Y7915000D01*
X6592501Y7911148D01*
X6587653Y7905336D01*
X6576498D01*
X6565501Y7918328D01*
Y8126148D01*
X6465501D01*
Y7915000D01*
X6465501Y7911148D01*
X6460653Y7905336D01*
X6449498D01*
X6438501Y7918328D01*
Y8126148D01*
X6421842D01*
Y8149691D01*
X6712946Y8440795D01*
X6720173Y8451611D01*
X6722711Y8464370D01*
Y8525695D01*
X6727194Y8528365D01*
X6744621Y8521285D01*
X6747090Y8512071D01*
X6758662Y8492027D01*
X6775028Y8475661D01*
X6795072Y8464089D01*
X6817427Y8458099D01*
X6840572D01*
X6862928Y8464089D01*
X6882972Y8475661D01*
X6899337Y8492027D01*
X6910909Y8512071D01*
X6916900Y8534427D01*
Y8557571D01*
X6910909Y8579927D01*
X6899337Y8599971D01*
X6882972Y8616336D01*
X6862928Y8627909D01*
X6848930Y8631659D01*
X6850905Y8646659D01*
X7033175D01*
X7035640Y8643711D01*
X7032220Y8624415D01*
X7025712Y8620658D01*
X7008341Y8603287D01*
X6996058Y8582012D01*
X6989811Y8558698D01*
X7082999D01*
X7176188D01*
X7169941Y8582012D01*
X7157658Y8603287D01*
X7140287Y8620658D01*
X7119012Y8632941D01*
X7107850Y8635932D01*
X7107482Y8636891D01*
X7106635Y8651787D01*
X7113576Y8656425D01*
X7169250Y8712099D01*
X7284521D01*
X7288856Y8701222D01*
X7289214Y8697099D01*
X7271980Y8679865D01*
X7259144Y8657633D01*
X7252500Y8632835D01*
Y8607163D01*
X7259144Y8582365D01*
X7271980Y8560133D01*
X7290133Y8541980D01*
X7312366Y8529144D01*
X7337163Y8522499D01*
X7362836D01*
X7387633Y8529144D01*
X7409866Y8541980D01*
X7428019Y8560133D01*
X7440855Y8582365D01*
X7447499Y8607163D01*
Y8632835D01*
X7440855Y8657633D01*
X7428019Y8679865D01*
X7409866Y8698018D01*
X7387633Y8710854D01*
X7362836Y8717499D01*
X7337163D01*
X7312366Y8710854D01*
X7297900Y8719823D01*
Y8887899D01*
X7122100D01*
Y8759249D01*
X7076191Y8713340D01*
X7011703D01*
X7007683Y8728340D01*
X7009972Y8729661D01*
X7026337Y8746027D01*
X7037909Y8766071D01*
X7043900Y8788427D01*
Y8811571D01*
X7037909Y8833927D01*
X7026337Y8853971D01*
X7009972Y8870336D01*
X6989928Y8881909D01*
X6967572Y8887899D01*
X6944427D01*
X6922071Y8881909D01*
X6902028Y8870336D01*
X6885662Y8853971D01*
X6874090Y8833927D01*
X6868100Y8811571D01*
Y8788427D01*
X6874090Y8766071D01*
X6885662Y8746027D01*
X6902028Y8729661D01*
X6904316Y8728340D01*
X6900296Y8713340D01*
X6820731D01*
X6807972Y8710803D01*
X6797156Y8703575D01*
X6672664Y8579084D01*
X6665544Y8579465D01*
X6655220Y8582853D01*
X6645337Y8599971D01*
X6628972Y8616336D01*
X6608928Y8627909D01*
X6586572Y8633899D01*
X6563427D01*
X6541071Y8627909D01*
X6521028Y8616336D01*
X6504662Y8599971D01*
X6493090Y8579927D01*
X6487100Y8557571D01*
Y8534427D01*
X6493090Y8512071D01*
X6504662Y8492027D01*
X6521028Y8475661D01*
X6541071Y8464089D01*
X6541660Y8463932D01*
Y8438810D01*
X6251790Y8148941D01*
X6244563Y8138124D01*
X6242181Y8126148D01*
X6211501D01*
Y7915000D01*
X6211501Y7911148D01*
X6206653Y7905336D01*
X6195498D01*
X6184501Y7918328D01*
Y8126148D01*
X6167842D01*
Y8364499D01*
X6165304Y8377258D01*
X6158077Y8388074D01*
X6034606Y8511545D01*
X6034911Y8512074D01*
X6040901Y8534430D01*
Y8557574D01*
X6034911Y8579930D01*
X6023339Y8599974D01*
X6006973Y8616339D01*
X5986929Y8627912D01*
X5964574Y8633902D01*
X5941429D01*
X5919073Y8627912D01*
X5899029Y8616339D01*
X5882664Y8599974D01*
X5871092Y8579930D01*
X5865101Y8557574D01*
Y8534430D01*
X5871092Y8512074D01*
X5882664Y8492030D01*
X5899029Y8475665D01*
X5919073Y8464092D01*
X5941429Y8458102D01*
X5964574D01*
X5986929Y8464092D01*
X5987454Y8464395D01*
X6101161Y8350689D01*
Y8309471D01*
X6042700D01*
Y8236571D01*
X6017300D01*
Y8309471D01*
X5957100D01*
Y8305035D01*
X5942499Y8304072D01*
X5942100Y8304071D01*
X5807499D01*
Y8169071D01*
X5831869D01*
Y8126148D01*
X5830501D01*
Y7915000D01*
X5830501Y7911148D01*
X5821202Y7900000D01*
X5750000D01*
X5574297Y8075703D01*
X5568376Y8089999D01*
X5547583Y8121118D01*
X5521118Y8147582D01*
X5500000Y8161693D01*
Y8950000D01*
X9350000D01*
Y8173446D01*
D02*
G37*
G36*
X8692500Y8300000D02*
Y8220850D01*
X8652078Y8190684D01*
X8637078D01*
X8637066Y8190682D01*
X8607581D01*
X8604146Y8189999D01*
X8602078D01*
Y8189587D01*
X8593925Y8187965D01*
X8582347Y8180230D01*
X8541938Y8139821D01*
X8534203Y8128244D01*
X8531486Y8114587D01*
Y8099874D01*
X8513192Y8081580D01*
X8391227D01*
Y7962500D01*
X8133303D01*
Y8252485D01*
X8182031Y8302269D01*
X8692500Y8300000D01*
D02*
G37*
G36*
X5100000Y7967199D02*
X5085000Y7959181D01*
X5083341Y7960290D01*
Y8450000D01*
X5080803Y8462759D01*
X5073576Y8473575D01*
X4931605Y8615545D01*
X4931910Y8616074D01*
X4937900Y8638430D01*
Y8661574D01*
X4931910Y8683930D01*
X4920338Y8703974D01*
X4903972Y8720339D01*
X4883929Y8731912D01*
X4861573Y8737902D01*
X4838428D01*
X4816072Y8731912D01*
X4796029Y8720339D01*
X4779663Y8703974D01*
X4768091Y8683930D01*
X4762100Y8661574D01*
Y8638430D01*
X4768091Y8616074D01*
X4779663Y8596030D01*
X4796029Y8579665D01*
X4816072Y8568092D01*
X4838428Y8562102D01*
X4861573D01*
X4883929Y8568092D01*
X4884454Y8568396D01*
X4952257Y8500592D01*
X4942334Y8489302D01*
X4862700D01*
Y8408702D01*
X4943301D01*
Y8488335D01*
X4954591Y8498259D01*
X5016660Y8436190D01*
Y7970090D01*
X5002802Y7964349D01*
X4884387Y8082764D01*
X4873571Y8089991D01*
X4862387Y8092216D01*
X4862421Y8092942D01*
X4821607Y8096154D01*
X4764438Y8109879D01*
X4710119Y8132378D01*
X4689790Y8144836D01*
X4692133Y8160993D01*
X4707634Y8165147D01*
X4729867Y8177983D01*
X4748020Y8196136D01*
X4760856Y8218368D01*
X4767500Y8243166D01*
Y8268838D01*
X4762446Y8287702D01*
X4770098Y8300569D01*
X4772942Y8302702D01*
X4837300D01*
Y8383302D01*
X4756700D01*
Y8328401D01*
X4741700Y8322188D01*
X4729867Y8334021D01*
X4711604Y8344565D01*
X4709994Y8346627D01*
X4706935Y8356306D01*
X4706462Y8362701D01*
X4709530Y8367293D01*
X4709530Y8367294D01*
X4710549Y8372416D01*
X4712068Y8380052D01*
Y8449649D01*
X4720176Y8457757D01*
X4727403Y8468573D01*
X4729941Y8481332D01*
Y8564672D01*
X4727403Y8577431D01*
X4720176Y8588247D01*
X4712068Y8596355D01*
Y8679003D01*
X4709530Y8691762D01*
X4702302Y8702579D01*
X4694863Y8710018D01*
X4694862Y8710019D01*
X4672016Y8732865D01*
X4677910Y8743074D01*
X4683900Y8765430D01*
Y8788574D01*
X4677910Y8810930D01*
X4666338Y8830974D01*
X4649972Y8847339D01*
X4629929Y8858912D01*
X4607573Y8864902D01*
X4584428D01*
X4562072Y8858912D01*
X4542029Y8847339D01*
X4525663Y8830974D01*
X4514091Y8810930D01*
X4508100Y8788574D01*
Y8765430D01*
X4514091Y8743074D01*
X4525663Y8723030D01*
X4542029Y8706665D01*
X4562072Y8695092D01*
X4584428Y8689102D01*
X4607573D01*
X4618539Y8692041D01*
X4645387Y8665193D01*
Y8610987D01*
X4632396Y8603487D01*
X4629929Y8604912D01*
X4607573Y8610902D01*
X4584428D01*
X4562072Y8604912D01*
X4542029Y8593339D01*
X4525663Y8576974D01*
X4514091Y8556930D01*
X4508100Y8534574D01*
Y8511430D01*
X4514091Y8489074D01*
X4525663Y8469030D01*
X4542029Y8452665D01*
X4562072Y8441092D01*
X4584428Y8435102D01*
X4607573D01*
X4629929Y8441092D01*
X4632396Y8442517D01*
X4645387Y8435017D01*
Y8396895D01*
X4632696Y8395224D01*
X4597934Y8380825D01*
X4568083Y8357920D01*
X4545178Y8328069D01*
X4530779Y8293307D01*
X4525868Y8256002D01*
X4530779Y8218698D01*
X4545178Y8183935D01*
X4568083Y8154085D01*
X4568287Y8154288D01*
X4568288Y8154288D01*
X4611671Y8116241D01*
X4659650Y8084183D01*
X4711403Y8058661D01*
X4766045Y8040113D01*
X4822640Y8028855D01*
X4845492Y8027357D01*
X5713559Y7159290D01*
Y7133665D01*
X5716097Y7120906D01*
X5723325Y7110090D01*
X5936659Y6896755D01*
Y6486244D01*
X5937901Y6480001D01*
X5928199Y6465001D01*
X5902500D01*
Y6478454D01*
X5896030Y6494074D01*
X5884074Y6506030D01*
X5868454Y6512500D01*
X5851546D01*
X5835926Y6506030D01*
X5823970Y6494074D01*
X5817500Y6478454D01*
Y6470401D01*
X5781011D01*
X5772978Y6485401D01*
X5775882Y6500000D01*
Y6517504D01*
X5817923D01*
Y6652504D01*
X5817923D01*
X5818898Y6667100D01*
X5823323D01*
Y6727300D01*
X5677523D01*
Y6670604D01*
X5640000D01*
Y6685000D01*
X5420000D01*
Y6680604D01*
X5380000D01*
X5361726Y6678198D01*
X5357872Y6676601D01*
X5345400Y6684935D01*
Y6732726D01*
X5242700D01*
Y6655026D01*
X5308980D01*
X5316670Y6640026D01*
X5311802Y6628274D01*
X5310862Y6621137D01*
X5240151Y6550426D01*
X5120000D01*
Y6380426D01*
X5224118D01*
Y6337500D01*
X5202500D01*
Y6337500D01*
X5187900Y6338466D01*
Y6342900D01*
X5127700D01*
Y6270000D01*
X5102300D01*
Y6342900D01*
X5068140D01*
Y7595478D01*
X5065603Y7608237D01*
X5058375Y7619053D01*
X4931606Y7745822D01*
X4931911Y7746349D01*
X4937901Y7768705D01*
Y7791849D01*
X4931911Y7814205D01*
X4920338Y7834249D01*
X4903973Y7850614D01*
X4883929Y7862186D01*
X4861573Y7868177D01*
X4838429D01*
X4816073Y7862186D01*
X4796029Y7850614D01*
X4779664Y7834249D01*
X4768091Y7814205D01*
X4762613Y7793759D01*
X4749292Y7786543D01*
X4748813Y7786345D01*
X4672017Y7863141D01*
X4677911Y7873349D01*
X4683901Y7895705D01*
Y7918849D01*
X4677911Y7941205D01*
X4666338Y7961249D01*
X4649973Y7977614D01*
X4629929Y7989186D01*
X4607573Y7995177D01*
X4584429D01*
X4562073Y7989186D01*
X4542029Y7977614D01*
X4525664Y7961249D01*
X4514091Y7941205D01*
X4508101Y7918849D01*
Y7895705D01*
X4514091Y7873349D01*
X4525664Y7853305D01*
X4542029Y7836939D01*
X4562073Y7825367D01*
X4584429Y7819377D01*
X4607573D01*
X4618542Y7822316D01*
X4797050Y7643807D01*
X4807867Y7636580D01*
X4817936Y7634577D01*
X4816459Y7619577D01*
X4756701D01*
Y7538977D01*
X4850001D01*
Y7526277D01*
X4862701D01*
Y7432977D01*
X4921259D01*
Y6992391D01*
X4920840Y6992218D01*
X4906259Y6987880D01*
X4887932Y6998461D01*
X4865576Y7004452D01*
X4842432D01*
X4820076Y6998461D01*
X4800032Y6986889D01*
X4783667Y6970524D01*
X4772094Y6950480D01*
X4766104Y6928124D01*
Y6904979D01*
X4772094Y6882624D01*
X4783667Y6862580D01*
X4800032Y6846214D01*
X4820076Y6834642D01*
X4842432Y6828652D01*
X4865576D01*
X4887932Y6834642D01*
X4906259Y6845223D01*
X4920840Y6840885D01*
X4921259Y6840712D01*
Y6755852D01*
X4866704D01*
Y6662552D01*
Y6569252D01*
X4921259D01*
Y6146015D01*
X4923797Y6133256D01*
X4931025Y6122440D01*
X4966424Y6087040D01*
X4966779Y6086803D01*
X4977925Y6077498D01*
Y6001501D01*
X4967133Y5994290D01*
X4967133Y5994289D01*
X4918858Y5946015D01*
X4905000Y5951755D01*
Y6010000D01*
X4831989D01*
X4825954Y6012500D01*
X4809047D01*
X4803011Y6010000D01*
X4730000D01*
Y5930000D01*
Y5865000D01*
Y5755400D01*
X4724600D01*
Y5722700D01*
X4817500D01*
X4910400D01*
Y5755400D01*
X4905000D01*
Y5791630D01*
X4920000Y5797843D01*
X4967133Y5750711D01*
X4967133Y5750710D01*
X4977925Y5743499D01*
Y5667502D01*
X5040941D01*
X5046681Y5653644D01*
X5032555Y5639518D01*
X5024243Y5627078D01*
X4974998D01*
Y5541511D01*
X4974117Y5537078D01*
Y5529003D01*
X4898858Y5453744D01*
X4885000Y5459484D01*
Y5620000D01*
X4705000D01*
Y5420000D01*
X4699275Y5407372D01*
X4686442D01*
X4668884Y5403879D01*
X4653999Y5393933D01*
X4624710Y5364644D01*
X4622869Y5361889D01*
X4577353D01*
Y5288989D01*
X4564653D01*
Y5276289D01*
X4491753D01*
Y5216089D01*
X4496189D01*
X4497153Y5201487D01*
X4497153D01*
Y5066488D01*
X4567266D01*
X4591268Y5042486D01*
Y4852851D01*
X4594760Y4835293D01*
X4604706Y4820408D01*
X4613192Y4811922D01*
X4606601Y4797300D01*
X4587713D01*
X4563984Y4790942D01*
X4542709Y4778659D01*
X4525338Y4761288D01*
X4513055Y4740013D01*
X4506808Y4716699D01*
X4599997D01*
Y4703999D01*
X4612697D01*
Y4610812D01*
X4636009Y4617058D01*
X4657284Y4629341D01*
X4669118Y4641175D01*
X4684118Y4634962D01*
Y4510097D01*
X4674444Y4505798D01*
X4669118Y4505188D01*
X4653969Y4520337D01*
X4633925Y4531910D01*
X4611569Y4537900D01*
X4588424D01*
X4566069Y4531910D01*
X4546025Y4520337D01*
X4529659Y4503972D01*
X4518087Y4483928D01*
X4512097Y4461572D01*
Y4438428D01*
X4518087Y4416072D01*
X4529659Y4396028D01*
X4546025Y4379663D01*
X4566069Y4368090D01*
X4588424Y4362100D01*
X4611569D01*
X4633925Y4368090D01*
X4653969Y4379663D01*
X4670334Y4396028D01*
X4680329Y4413340D01*
X4690107Y4415561D01*
X4697181Y4415120D01*
X4697557Y4414557D01*
X4766097Y4346017D01*
Y4248478D01*
X4755220Y4244143D01*
X4751097Y4243786D01*
X4733863Y4261019D01*
X4711630Y4273855D01*
X4686833Y4280500D01*
X4661161D01*
X4636363Y4273855D01*
X4614130Y4261019D01*
X4595977Y4242866D01*
X4583141Y4220634D01*
X4576497Y4195836D01*
Y4170164D01*
X4583141Y4145366D01*
X4595977Y4123134D01*
X4614130Y4104981D01*
X4636363Y4092145D01*
X4661161Y4085500D01*
X4686833D01*
X4711630Y4092145D01*
X4733863Y4104981D01*
X4752016Y4123134D01*
X4764852Y4145366D01*
X4771497Y4170164D01*
Y4195836D01*
X4764852Y4220633D01*
X4773821Y4235100D01*
X4941897D01*
Y4410900D01*
X4830986D01*
X4775881Y4466005D01*
Y4509592D01*
X4790881Y4515806D01*
X4800025Y4506663D01*
X4820069Y4495090D01*
X4842424Y4489100D01*
X4865569D01*
X4887925Y4495090D01*
X4907969Y4506663D01*
X4924334Y4523028D01*
X4935906Y4543072D01*
X4941897Y4565428D01*
Y4588572D01*
X4935906Y4610928D01*
X4924334Y4630972D01*
X4907969Y4647337D01*
X4887925Y4658910D01*
X4865569Y4664900D01*
X4842424D01*
X4820069Y4658910D01*
X4800025Y4647337D01*
X4790881Y4638194D01*
X4775881Y4644408D01*
Y4760000D01*
X4772389Y4777559D01*
X4762443Y4792444D01*
X4683031Y4871856D01*
Y4991491D01*
X4815080D01*
Y5081092D01*
X4820480D01*
Y5123791D01*
X4745080D01*
Y5149191D01*
X4820480D01*
Y5191892D01*
X4815080D01*
Y5281488D01*
X4703034D01*
Y5313196D01*
X4705447Y5315609D01*
X4871490D01*
X4889048Y5319101D01*
X4903933Y5329047D01*
X5052441Y5477555D01*
X5062146Y5492078D01*
X5109998D01*
Y5492078D01*
X5124599Y5491115D01*
Y5486678D01*
X5184799D01*
Y5559579D01*
Y5632478D01*
X5174887D01*
X5169147Y5646336D01*
X5189430Y5666620D01*
X5212922D01*
X5217356Y5667502D01*
X5267922D01*
X5267922Y5807501D01*
X5280497Y5813356D01*
X5382500D01*
Y5762259D01*
X5376197Y5761005D01*
X5365380Y5753778D01*
X5346225Y5734623D01*
X5338997Y5723806D01*
X5336459Y5711048D01*
Y5628958D01*
X5338997Y5616199D01*
X5346225Y5605383D01*
X5387660Y5563947D01*
Y5212999D01*
X5364001D01*
Y5172468D01*
X5349001Y5164038D01*
X5335247Y5166774D01*
X5317689Y5163282D01*
X5317075Y5162871D01*
X5291366Y5188580D01*
X5280401Y5195907D01*
X5264929Y5211378D01*
Y5281492D01*
X5129929D01*
Y5272369D01*
X5085077D01*
Y5281488D01*
X4945077D01*
Y5181488D01*
X5015645D01*
X5020077Y5180606D01*
X5129929D01*
Y5146492D01*
X5129929D01*
X5128966Y5131891D01*
X5124529D01*
Y5071691D01*
X5197429D01*
Y5058991D01*
X5210129D01*
Y4986091D01*
X5270329D01*
Y5047011D01*
X5285329Y5054759D01*
X5289365Y5051895D01*
Y4834754D01*
X5292858Y4817196D01*
X5302803Y4802311D01*
X5364001Y4741114D01*
Y4487000D01*
X5472838Y4487000D01*
X5485601Y4481600D01*
X5490764Y4481600D01*
X5535301D01*
Y4646500D01*
Y4811400D01*
X5490764D01*
X5485601Y4811400D01*
X5472838Y4806000D01*
X5428887Y4806000D01*
X5381128Y4853759D01*
Y4894000D01*
X5478000D01*
Y4893999D01*
X5491001D01*
Y4894000D01*
X5603001D01*
X5605001Y4894000D01*
X5618001D01*
X5620001Y4894000D01*
X5730001D01*
X5732001Y4894000D01*
X5745001D01*
X5747001Y4894000D01*
X5857001D01*
X5859001Y4894000D01*
X5872001D01*
X5874001Y4894000D01*
X5986001D01*
Y5152496D01*
X5999859Y5158236D01*
X6081670Y5076425D01*
X6083572Y5057404D01*
X6081939Y5055000D01*
X6055000D01*
Y4925403D01*
X6055000Y4925000D01*
X6054028Y4910403D01*
X6049600D01*
Y4852702D01*
X6120000D01*
X6190400D01*
Y4910403D01*
X6185972D01*
X6185000Y4925000D01*
X6185000Y4925403D01*
Y5051659D01*
X6185000Y5055000D01*
X6193064Y5066659D01*
X6810000D01*
X6822759Y5069197D01*
X6833575Y5076425D01*
X6966145Y5208995D01*
X6980003Y5203255D01*
Y5127074D01*
X7195003D01*
X7200000Y5114143D01*
Y5113004D01*
X7195003Y5100074D01*
X7185000Y5100074D01*
X6980003D01*
Y5000074D01*
X7184056D01*
X7185960Y4998235D01*
X7192830Y4985074D01*
X7189119Y4978474D01*
X7100203D01*
Y4923074D01*
Y4867674D01*
X7200000D01*
Y4050000D01*
X4450000D01*
Y5451366D01*
X4465000Y5458763D01*
X4472220Y5453223D01*
X4488032Y5446673D01*
X4505000Y5444439D01*
X4595000D01*
X4611968Y5446673D01*
X4627780Y5453223D01*
X4641358Y5463642D01*
X4651777Y5477219D01*
X4658327Y5493031D01*
X4660561Y5510000D01*
X4658327Y5526968D01*
X4651777Y5542780D01*
X4641358Y5556358D01*
X4627780Y5566777D01*
X4611968Y5573327D01*
X4595000Y5575561D01*
X4505000D01*
X4488032Y5573327D01*
X4472220Y5566777D01*
X4465000Y5561237D01*
X4450000Y5568634D01*
Y5605000D01*
X4665000D01*
Y5834999D01*
X4665000D01*
Y5845001D01*
X4665000D01*
Y6075000D01*
X4450000D01*
Y6111366D01*
X4465000Y6118763D01*
X4472220Y6113223D01*
X4488032Y6106673D01*
X4505000Y6104439D01*
X4595000D01*
X4611968Y6106673D01*
X4627780Y6113223D01*
X4641358Y6123642D01*
X4651777Y6137220D01*
X4658327Y6153032D01*
X4660561Y6170000D01*
X4658327Y6186969D01*
X4651777Y6202781D01*
X4641358Y6216358D01*
X4627780Y6226777D01*
X4611968Y6233327D01*
X4595000Y6235561D01*
X4505000D01*
X4488032Y6233327D01*
X4472220Y6226777D01*
X4465000Y6221237D01*
X4450000Y6228634D01*
Y8950000D01*
X5100000D01*
Y7967199D01*
D02*
G37*
G36*
X9315000Y7926918D02*
X9047502D01*
Y7964573D01*
X8959653D01*
X8928382Y7995844D01*
X8917566Y8003072D01*
X8904807Y8005610D01*
X8871515D01*
X8852075Y8019999D01*
Y8139996D01*
X8803106D01*
X8801198Y8144596D01*
X8818162Y8169996D01*
X8852075D01*
Y8170000D01*
X9315000D01*
Y7926918D01*
D02*
G37*
G36*
X7200000Y7200000D02*
Y6982929D01*
X7195000Y6970000D01*
X6980000D01*
Y6963633D01*
X6937072D01*
Y6983503D01*
X6895497D01*
X6889593Y6985949D01*
X6871320Y6988355D01*
X6737751D01*
X6719478Y6985949D01*
X6702449Y6978896D01*
X6687827Y6967675D01*
X6611497Y6891346D01*
X6600277Y6876723D01*
X6593224Y6859695D01*
X6590818Y6841421D01*
Y6758579D01*
X6591330Y6754688D01*
X6589396Y6740000D01*
Y6300000D01*
X6591802Y6281727D01*
X6598855Y6264698D01*
X6610075Y6250076D01*
X6709396Y6150755D01*
Y5875604D01*
X6552929D01*
X6548341Y5875000D01*
X6517197D01*
X6510213Y5890000D01*
X6514997Y5901549D01*
Y5918456D01*
X6508526Y5934077D01*
X6496571Y5946032D01*
X6480950Y5952502D01*
X6464043D01*
X6448423Y5946032D01*
X6445734Y5943343D01*
X6412502D01*
Y6022502D01*
Y6137745D01*
X6418806Y6138999D01*
X6429622Y6146226D01*
X6432529Y6149133D01*
X6447529Y6142920D01*
Y6082700D01*
X6550229D01*
Y6160399D01*
X6465008D01*
X6458795Y6175399D01*
X6493575Y6210180D01*
X6500803Y6220996D01*
X6503341Y6233755D01*
Y7325404D01*
X6512157Y7336148D01*
X6565501D01*
Y7550000D01*
X6592501D01*
Y7336148D01*
X6692501D01*
Y7550000D01*
X6714101D01*
Y7456348D01*
X6769501D01*
X6824901D01*
Y7550000D01*
X6850000D01*
X7200000Y7200000D01*
D02*
G37*
G36*
X8361277Y7206064D02*
Y7173362D01*
X8431678D01*
Y7160662D01*
X8444378D01*
Y7090262D01*
X8502077D01*
Y7094690D01*
X8516675Y7095662D01*
Y7095662D01*
X8599524D01*
X8616555Y7078631D01*
Y7066793D01*
X8605753Y7055238D01*
X8517072D01*
X8516674Y7055238D01*
X8502072Y7056198D01*
Y7060638D01*
X8444372D01*
Y6990238D01*
Y6919838D01*
X8502072D01*
Y6924279D01*
X8516674Y6925238D01*
X8517072Y6925238D01*
X8599524D01*
X8686626Y6838136D01*
X8697442Y6830909D01*
X8710201Y6828371D01*
X8757260D01*
X8763000Y6814513D01*
X8456527Y6508040D01*
X7805709D01*
X7804478Y6509643D01*
X7800191Y6523040D01*
X7813810Y6536660D01*
X8123326D01*
X8136085Y6539197D01*
X8146901Y6546425D01*
X8303575Y6703099D01*
X8310803Y6713915D01*
X8313340Y6726674D01*
Y7177726D01*
X8347419Y7211804D01*
X8361277Y7206064D01*
D02*
G37*
G36*
X5679510Y6514396D02*
X5667556Y6502442D01*
X5657610Y6487557D01*
X5654197Y6470401D01*
X5630199D01*
Y6372501D01*
Y6274601D01*
X5670399D01*
Y6280001D01*
X5724599D01*
Y6274601D01*
X5764799D01*
Y6372501D01*
X5790199D01*
Y6274601D01*
X5830399D01*
Y6280001D01*
X6213537D01*
X6225382Y6277881D01*
X6227502Y6266036D01*
Y6182502D01*
Y6102502D01*
Y6022502D01*
Y5942502D01*
Y5862503D01*
Y5782503D01*
Y5702503D01*
Y5625399D01*
X6190203D01*
Y5540199D01*
X6230403D01*
Y5622503D01*
X6318069D01*
X6322285Y5621664D01*
X6325113Y5607446D01*
X6335059Y5592561D01*
X6365487Y5562133D01*
X6380372Y5552187D01*
X6397930Y5548695D01*
X6452930D01*
Y5527076D01*
X6500471D01*
X6502156Y5526378D01*
X6520430Y5523972D01*
X6538703Y5526378D01*
X6540388Y5527076D01*
X6587530D01*
X6587930Y5527076D01*
X6602531Y5526113D01*
Y5521676D01*
X6662731D01*
Y5594577D01*
Y5667476D01*
X6608533D01*
X6602531Y5667477D01*
X6593533Y5678749D01*
Y5705000D01*
X6672928D01*
Y5734396D01*
X6785403D01*
X6796675Y5725397D01*
Y5665196D01*
X6869575D01*
Y5652496D01*
X6882275D01*
Y5579597D01*
X6941233D01*
X6950962Y5568112D01*
X6696190Y5313341D01*
X6473810D01*
X6343575Y5443575D01*
X6332759Y5450803D01*
X6320000Y5453341D01*
X6230403D01*
Y5514799D01*
X6177503D01*
Y5527499D01*
X6164803D01*
Y5625399D01*
X6124603D01*
Y5619999D01*
X6050844D01*
Y5800367D01*
X6048306Y5813125D01*
X6041079Y5823942D01*
X5675615Y6189406D01*
X5664798Y6196633D01*
X5661747Y6197240D01*
X5653938Y6205048D01*
X5648530Y6218106D01*
X5636574Y6230062D01*
X5620954Y6236532D01*
X5604046D01*
X5588426Y6230062D01*
X5582500Y6224136D01*
X5567500Y6230349D01*
Y6274601D01*
X5604799D01*
Y6359801D01*
X5564599D01*
Y6277502D01*
X5449884D01*
X5424943Y6302443D01*
X5410058Y6312389D01*
X5392500Y6315881D01*
X5337500D01*
Y6337500D01*
X5315881D01*
Y6380426D01*
X5340000D01*
Y6450577D01*
X5408986Y6519563D01*
X5420001Y6515000D01*
Y6515000D01*
X5640000D01*
Y6529396D01*
X5674683D01*
X5679510Y6514396D01*
D02*
G37*
G36*
X6796672Y6833902D02*
X6796672D01*
Y6773702D01*
X6869572D01*
Y6761002D01*
X6882272D01*
Y6688102D01*
X6942472D01*
Y6715121D01*
X6980000D01*
Y6616000D01*
X7195000D01*
X7200000Y6603071D01*
Y6601929D01*
X7195000Y6589000D01*
X7185000Y6589000D01*
X6980000D01*
Y6489000D01*
X7185000D01*
X7195000Y6489000D01*
X7200000Y6476071D01*
Y6474929D01*
X7195000Y6462000D01*
X7185000Y6462000D01*
X6980000D01*
Y6401748D01*
X6966142Y6396008D01*
X6962326Y6399825D01*
X6951509Y6407052D01*
X6940951Y6409152D01*
X6934074Y6416030D01*
X6918454Y6422500D01*
X6901546D01*
X6885926Y6416030D01*
X6873970Y6404074D01*
X6867500Y6388454D01*
Y6371546D01*
X6873970Y6355926D01*
X6885926Y6343970D01*
X6901546Y6337500D01*
X6918454D01*
X6926865Y6340984D01*
X6980000Y6287849D01*
Y6235000D01*
X7185000D01*
X7195000Y6235000D01*
X7200000Y6222071D01*
Y6220929D01*
X7195000Y6208000D01*
X7185000Y6208000D01*
X6980000D01*
Y6108000D01*
X7184055D01*
X7185961Y6106159D01*
X7192830Y6093000D01*
X7189119Y6086400D01*
X7100200D01*
Y6031000D01*
Y5975600D01*
X7200000D01*
Y5875004D01*
X7195003Y5862074D01*
X6980003D01*
Y5859419D01*
X6937075D01*
Y5874998D01*
X6889534D01*
X6887849Y5875696D01*
X6869575Y5878102D01*
X6865604Y5877579D01*
X6850604Y5890733D01*
Y6180000D01*
X6848198Y6198274D01*
X6841145Y6215302D01*
X6829924Y6229925D01*
X6730604Y6329245D01*
Y6713993D01*
X6731145Y6714698D01*
X6738198Y6731726D01*
X6740604Y6750000D01*
X6738198Y6768273D01*
X6732025Y6783176D01*
Y6812176D01*
X6766996Y6847147D01*
X6792434D01*
X6796672Y6833902D01*
D02*
G37*
G36*
X8725641Y6005564D02*
Y6002274D01*
X8726482Y5998047D01*
Y5975175D01*
X8719180D01*
Y5937275D01*
X8693780D01*
Y5975175D01*
X8651080D01*
X8638557Y5981154D01*
Y6014777D01*
X8508955D01*
X8508557Y6014777D01*
X8493954Y6015737D01*
Y6020177D01*
X8436255D01*
Y5949777D01*
Y5879377D01*
X8493954D01*
Y5883817D01*
X8508557Y5884777D01*
X8508955Y5884777D01*
X8591406D01*
X8608437Y5867746D01*
Y5863230D01*
X8609210Y5859348D01*
X8598400Y5844348D01*
X8508955D01*
X8508557Y5844348D01*
X8493954Y5845308D01*
Y5849748D01*
X8436255D01*
Y5779348D01*
Y5708948D01*
X8493954D01*
Y5713388D01*
X8508557Y5714348D01*
X8508955Y5714348D01*
X8602635D01*
X8605857Y5713707D01*
X8631654D01*
X8709362Y5635999D01*
X8716817Y5631018D01*
X8713261Y5616018D01*
X7953327D01*
Y5652299D01*
X7880427D01*
Y5677699D01*
X7953327D01*
Y5737899D01*
X7948890D01*
X7947927Y5752500D01*
X7947927D01*
Y5887500D01*
X7812927D01*
Y5861918D01*
X7770003D01*
Y5862074D01*
X7575641D01*
Y5975600D01*
X7649800D01*
Y6031000D01*
Y6086400D01*
X7575641D01*
Y6108000D01*
X7770000D01*
Y6126660D01*
X7853237D01*
X7855926Y6123970D01*
X7871546Y6117500D01*
X7888454D01*
X7904074Y6123970D01*
X7916030Y6135926D01*
X7922500Y6151546D01*
Y6168454D01*
X7916030Y6184074D01*
X7904074Y6196030D01*
X7888454Y6202500D01*
X7871546D01*
X7855926Y6196030D01*
X7853237Y6193341D01*
X7770000D01*
Y6208000D01*
X7575641D01*
Y6235000D01*
X7770000D01*
Y6251659D01*
X8479546D01*
X8725641Y6005564D01*
D02*
G37*
G36*
X5588426Y6158003D02*
X5604046Y6151533D01*
X5613153D01*
X5622430Y6142255D01*
X5633247Y6135028D01*
X5636299Y6134421D01*
X5984163Y5786556D01*
Y5619999D01*
X5956039D01*
Y5647302D01*
X5953501Y5660061D01*
X5946274Y5670877D01*
X5641684Y5975467D01*
Y6024893D01*
X5644373Y6027582D01*
X5650843Y6043203D01*
Y6060110D01*
X5644373Y6075731D01*
X5632418Y6087686D01*
X5616797Y6094156D01*
X5599890D01*
X5584270Y6087686D01*
X5582500Y6085916D01*
X5567500Y6092130D01*
Y6157715D01*
X5582500Y6163929D01*
X5588426Y6158003D01*
D02*
G37*
G36*
X8732723Y4870127D02*
Y4813725D01*
X8733563Y4809499D01*
Y4786627D01*
X8726262D01*
Y4748727D01*
X8700862D01*
Y4786627D01*
X8658162D01*
X8645638Y4792606D01*
Y4836648D01*
X8516036D01*
X8515638Y4836648D01*
X8501036Y4837608D01*
Y4842048D01*
X8443336D01*
Y4771648D01*
Y4701248D01*
X8501036D01*
Y4705688D01*
X8515638Y4706648D01*
X8516036Y4706648D01*
X8598488D01*
X8615519Y4689616D01*
Y4678342D01*
X8604024Y4666219D01*
X8516036D01*
X8515638Y4666219D01*
X8501036Y4667179D01*
Y4671619D01*
X8443336D01*
Y4601219D01*
Y4530819D01*
X8501036D01*
Y4535259D01*
X8515638Y4536219D01*
X8516036Y4536219D01*
X8609717D01*
X8612938Y4535578D01*
X8628316D01*
X8716443Y4447451D01*
X8727260Y4440223D01*
X8734715Y4438740D01*
X8733238Y4423740D01*
X8385513D01*
X8333340Y4475913D01*
Y5130000D01*
X8330803Y5142759D01*
X8323575Y5153575D01*
X8149502Y5327649D01*
X8138685Y5334876D01*
X8125926Y5337414D01*
X7770003D01*
Y5354074D01*
X7618426D01*
X7605284Y5367216D01*
X7611024Y5381074D01*
X7770003D01*
Y5397733D01*
X8205117D01*
X8732723Y4870127D01*
D02*
G37*
%LPC*%
G36*
X6173301Y8893302D02*
X6092701D01*
Y8812701D01*
X6173301D01*
Y8893302D01*
D02*
G37*
G36*
X6067301D02*
X5986701D01*
Y8812701D01*
X6067301D01*
Y8893302D01*
D02*
G37*
G36*
X6714699Y8893187D02*
Y8812698D01*
X6795188D01*
X6788941Y8836012D01*
X6776658Y8857287D01*
X6759287Y8874658D01*
X6738012Y8886941D01*
X6714699Y8893187D01*
D02*
G37*
G36*
X6689299Y8893187D02*
X6665987Y8886941D01*
X6644712Y8874658D01*
X6627341Y8857287D01*
X6615058Y8836012D01*
X6608811Y8812698D01*
X6689299D01*
Y8893187D01*
D02*
G37*
G36*
X8025823Y8880400D02*
X7923124D01*
Y8802700D01*
X8025823D01*
Y8880400D01*
D02*
G37*
G36*
X7897724D02*
X7795024D01*
Y8802700D01*
X7897724D01*
Y8880400D01*
D02*
G37*
G36*
X7765402D02*
X7662702D01*
Y8802700D01*
X7765402D01*
Y8880400D01*
D02*
G37*
G36*
X7637302D02*
X7534603D01*
Y8802700D01*
X7637302D01*
Y8880400D01*
D02*
G37*
G36*
X5837574Y8887902D02*
X5814429D01*
X5792073Y8881912D01*
X5772029Y8870339D01*
X5755664Y8853974D01*
X5744092Y8833930D01*
X5738101Y8811574D01*
Y8788430D01*
X5744092Y8766074D01*
X5755664Y8746030D01*
X5772029Y8729665D01*
X5792073Y8718092D01*
X5814429Y8712102D01*
X5837574D01*
X5859929Y8718092D01*
X5879973Y8729665D01*
X5896339Y8746030D01*
X5907911Y8766074D01*
X5913901Y8788430D01*
Y8811574D01*
X5907911Y8833930D01*
X5896339Y8853974D01*
X5879973Y8870339D01*
X5859929Y8881912D01*
X5837574Y8887902D01*
D02*
G37*
G36*
X6689299Y8787298D02*
X6608811D01*
X6615058Y8763986D01*
X6627341Y8742711D01*
X6644712Y8725340D01*
X6665987Y8713057D01*
X6689299Y8706811D01*
Y8787298D01*
D02*
G37*
G36*
X6795188D02*
X6714699D01*
Y8706810D01*
X6738012Y8713057D01*
X6759287Y8725340D01*
X6776658Y8742711D01*
X6788941Y8763986D01*
X6795188Y8787298D01*
D02*
G37*
G36*
X6067301Y8787301D02*
X5986701D01*
Y8706702D01*
X6067301D01*
Y8787301D01*
D02*
G37*
G36*
X8600402Y8925400D02*
X8375002D01*
Y8700000D01*
X8600402D01*
Y8925400D01*
D02*
G37*
G36*
X8275002D02*
X8049602D01*
Y8700000D01*
X8275002D01*
Y8925400D01*
D02*
G37*
G36*
X8025823Y8777300D02*
X7923124D01*
Y8699600D01*
X8025823D01*
Y8777300D01*
D02*
G37*
G36*
X7897724D02*
X7795024D01*
Y8699600D01*
X7897724D01*
Y8777300D01*
D02*
G37*
G36*
X7765402D02*
X7662702D01*
Y8699600D01*
X7765402D01*
Y8777300D01*
D02*
G37*
G36*
X7637302D02*
X7534603D01*
Y8699600D01*
X7637302D01*
Y8777300D01*
D02*
G37*
G36*
X8000680Y8595483D02*
X8000678Y8595482D01*
X8000676Y8595483D01*
X7559996Y8595392D01*
X7558030Y8595001D01*
X7540003D01*
Y8583841D01*
X7463081Y8506919D01*
X7458660Y8500304D01*
X7457108Y8492500D01*
Y7582143D01*
X7445400Y7574195D01*
X7442108Y7574195D01*
X7385200D01*
Y7501295D01*
Y7428395D01*
X7445400D01*
Y7432831D01*
X7460001Y7433794D01*
X7460400Y7433795D01*
X7469495D01*
X7469696Y7433660D01*
X7477500Y7432108D01*
X7615377D01*
X7623181Y7433660D01*
X7629796Y7438081D01*
X7647165Y7455449D01*
X7672557Y7430057D01*
X7687442Y7420111D01*
X7705000Y7416618D01*
X8352079D01*
X8369637Y7420111D01*
X8384522Y7430057D01*
X8634042Y7679577D01*
X8699156D01*
Y7809577D01*
X8569156D01*
Y7744463D01*
X8333074Y7508381D01*
X7724005D01*
X7712051Y7520335D01*
X7898629Y7706913D01*
X7903302D01*
Y7712273D01*
X7906340Y7716819D01*
X7907892Y7724623D01*
Y8414608D01*
X7990000D01*
X7997804Y8416160D01*
X8004419Y8420581D01*
X8004420Y8420581D01*
X8008839Y8425001D01*
X8020423D01*
Y8442420D01*
X8021072Y8445680D01*
Y8575091D01*
X8021071Y8575093D01*
X8021072Y8575095D01*
X8020423Y8578352D01*
Y8595001D01*
X8003104D01*
X8000680Y8595483D01*
D02*
G37*
G36*
X6173301Y8787301D02*
X6092701D01*
Y8706702D01*
X6147602D01*
X6153815Y8691702D01*
X6141982Y8679868D01*
X6129146Y8657636D01*
X6122501Y8632838D01*
Y8607166D01*
X6129146Y8582368D01*
X6141982Y8560136D01*
X6160135Y8541983D01*
X6182368Y8529147D01*
X6207165Y8522502D01*
X6232837D01*
X6257635Y8529147D01*
X6279868Y8541983D01*
X6298021Y8560136D01*
X6310857Y8582368D01*
X6317501Y8607166D01*
Y8632838D01*
X6310857Y8657636D01*
X6298021Y8679868D01*
X6279868Y8698021D01*
X6257635Y8710857D01*
X6232837Y8717502D01*
X6207165D01*
X6188302Y8712447D01*
X6175435Y8720100D01*
X6173301Y8722943D01*
Y8787301D01*
D02*
G37*
G36*
X5710574Y8633902D02*
X5687429D01*
X5665073Y8627912D01*
X5645029Y8616339D01*
X5628664Y8599974D01*
X5617092Y8579930D01*
X5611101Y8557574D01*
Y8534430D01*
X5617092Y8512074D01*
X5628664Y8492030D01*
X5645029Y8475665D01*
X5665073Y8464092D01*
X5687429Y8458102D01*
X5710574D01*
X5732929Y8464092D01*
X5752973Y8475665D01*
X5769339Y8492030D01*
X5780911Y8512074D01*
X5786901Y8534430D01*
Y8557574D01*
X5780911Y8579930D01*
X5769339Y8599974D01*
X5752973Y8616339D01*
X5732929Y8627912D01*
X5710574Y8633902D01*
D02*
G37*
G36*
X7070299Y8533298D02*
X6989811D01*
X6996058Y8509986D01*
X7008341Y8488711D01*
X7025712Y8471340D01*
X7046987Y8459057D01*
X7070299Y8452811D01*
Y8533298D01*
D02*
G37*
G36*
X7176188D02*
X7095699D01*
Y8452810D01*
X7119012Y8459057D01*
X7140287Y8471340D01*
X7157658Y8488711D01*
X7169941Y8509986D01*
X7176188Y8533298D01*
D02*
G37*
G36*
X9244999Y8920000D02*
X8704999D01*
Y8380001D01*
X9244999D01*
Y8920000D01*
D02*
G37*
G36*
X8600402Y8600001D02*
X8375002D01*
Y8374600D01*
X8600402D01*
Y8600001D01*
D02*
G37*
G36*
X8275002D02*
X8049602D01*
Y8374600D01*
X8275002D01*
Y8600001D01*
D02*
G37*
G36*
X9315830Y8362318D02*
X9213130D01*
Y8284618D01*
X9315830D01*
Y8362318D01*
D02*
G37*
G36*
X9187730D02*
X9085030D01*
Y8362318D01*
D01*
Y8284618D01*
X9187730D01*
Y8362318D01*
D02*
G37*
G36*
X9052900Y8332901D02*
X8992700D01*
Y8272701D01*
X9052900D01*
Y8332901D01*
D02*
G37*
G36*
X8967300D02*
X8907100D01*
Y8272701D01*
X8967300D01*
Y8332901D01*
D02*
G37*
G36*
X7353276Y8357974D02*
X7275576D01*
Y8255274D01*
X7353276D01*
Y8357974D01*
D02*
G37*
G36*
X7250176D02*
X7172476D01*
Y8255274D01*
X7250176D01*
Y8357974D01*
D02*
G37*
G36*
X8857475Y8245396D02*
X8814775D01*
Y8217696D01*
X8857475D01*
Y8245396D01*
D02*
G37*
G36*
X8789375D02*
X8746675D01*
Y8217696D01*
X8789375D01*
Y8245396D01*
D02*
G37*
G36*
X7353276Y8229874D02*
X7275576D01*
Y8127174D01*
X7353276D01*
Y8229874D01*
D02*
G37*
G36*
X7250176D02*
X7172476D01*
Y8127174D01*
X7250176D01*
Y8229874D01*
D02*
G37*
G36*
X6824901Y8131548D02*
X6782201D01*
Y8031348D01*
X6824901D01*
Y8131548D01*
D02*
G37*
G36*
X6756801D02*
X6714101D01*
Y8031348D01*
X6756801D01*
Y8131548D01*
D02*
G37*
G36*
X7353276Y8097548D02*
X7275576D01*
Y7994848D01*
X7353276D01*
Y8097548D01*
D02*
G37*
G36*
X7250176D02*
X7172476D01*
Y7994848D01*
X7250176D01*
Y8097548D01*
D02*
G37*
G36*
X6824901Y8005948D02*
X6782201D01*
Y7905748D01*
X6824901D01*
Y8005948D01*
D02*
G37*
G36*
X7353276Y7969448D02*
X7275576D01*
Y7866748D01*
X7353276D01*
Y7969448D01*
D02*
G37*
G36*
X7250176D02*
X7172476D01*
Y7866748D01*
X7250176D01*
Y7969448D01*
D02*
G37*
G36*
X7353276Y7837122D02*
X7275576D01*
Y7734422D01*
X7353276D01*
Y7837122D01*
D02*
G37*
G36*
X7250176D02*
X7172476D01*
Y7734422D01*
X7250176D01*
Y7837122D01*
D02*
G37*
G36*
X8874980Y7731872D02*
X8817280D01*
Y7674172D01*
X8874980D01*
Y7731872D01*
D02*
G37*
G36*
X8791880D02*
X8734180D01*
Y7674172D01*
X8791880D01*
Y7731872D01*
D02*
G37*
G36*
X9052902Y7729372D02*
X8992702D01*
Y7669172D01*
X9052902D01*
Y7729372D01*
D02*
G37*
G36*
X8967302D02*
X8907102D01*
Y7669172D01*
X8967302D01*
Y7729372D01*
D02*
G37*
G36*
X7353276Y7709022D02*
X7275576D01*
Y7606322D01*
X7353276D01*
Y7709022D01*
D02*
G37*
G36*
X7250176D02*
X7172476D01*
Y7606322D01*
X7250176D01*
Y7709022D01*
D02*
G37*
G36*
X7359800Y7574195D02*
X7299600D01*
Y7513995D01*
X7359800D01*
Y7574195D01*
D02*
G37*
G36*
Y7488595D02*
X7299600D01*
Y7428395D01*
X7359800D01*
Y7488595D01*
D02*
G37*
G36*
X7649800Y6848400D02*
X7549600D01*
Y6805700D01*
X7649800D01*
Y6848400D01*
D02*
G37*
G36*
Y6780300D02*
X7549600D01*
Y6737600D01*
X7649800D01*
Y6780300D01*
D02*
G37*
G36*
X7770003Y5227074D02*
X7555003D01*
Y5127074D01*
X7770003D01*
Y5227074D01*
D02*
G37*
G36*
Y5100074D02*
X7555003D01*
Y5000074D01*
X7770003D01*
Y5016660D01*
X7853237D01*
X7855926Y5013970D01*
X7871546Y5007500D01*
X7888454D01*
X7904074Y5013970D01*
X7916030Y5025926D01*
X7922500Y5041546D01*
Y5058454D01*
X7916030Y5074074D01*
X7904074Y5086030D01*
X7888454Y5092500D01*
X7871546D01*
X7855926Y5086030D01*
X7853237Y5083341D01*
X7770003D01*
Y5100074D01*
D02*
G37*
G36*
X7775403Y4978474D02*
X7675203D01*
Y4935774D01*
X7775403D01*
Y4978474D01*
D02*
G37*
G36*
X7649803D02*
X7549603D01*
Y4935774D01*
X7649803D01*
Y4978474D01*
D02*
G37*
G36*
X7775403Y4910374D02*
X7675203D01*
Y4867674D01*
X7775403D01*
Y4910374D01*
D02*
G37*
G36*
X7649803D02*
X7549603D01*
Y4867674D01*
X7649803D01*
Y4910374D01*
D02*
G37*
%LPD*%
G36*
X8000680Y8445680D02*
X7990000Y8435000D01*
X7887500D01*
Y7724623D01*
X7615377Y7452500D01*
X7477500D01*
Y8492500D01*
X7560000Y8575000D01*
X8000680Y8575091D01*
Y8445680D01*
D02*
G37*
%LPC*%
G36*
X4837300Y8489302D02*
X4756700D01*
Y8408702D01*
X4837300D01*
Y8489302D01*
D02*
G37*
G36*
X4943301Y8383302D02*
X4862700D01*
Y8302702D01*
X4943301D01*
Y8383302D01*
D02*
G37*
G36*
X4607573Y7741177D02*
X4584429D01*
X4562073Y7735186D01*
X4542029Y7723614D01*
X4525664Y7707249D01*
X4514091Y7687205D01*
X4508101Y7664849D01*
Y7641705D01*
X4514091Y7619349D01*
X4525664Y7599305D01*
X4542029Y7582939D01*
X4562073Y7571367D01*
X4584429Y7565377D01*
X4607573D01*
X4629929Y7571367D01*
X4649973Y7582939D01*
X4666338Y7599305D01*
X4677911Y7619349D01*
X4683901Y7641705D01*
Y7664849D01*
X4677911Y7687205D01*
X4666338Y7707249D01*
X4649973Y7723614D01*
X4629929Y7735186D01*
X4607573Y7741177D01*
D02*
G37*
G36*
X4837301Y7513577D02*
X4756701D01*
Y7458676D01*
X4741701Y7452463D01*
X4729867Y7464296D01*
X4707635Y7477132D01*
X4682837Y7483777D01*
X4657165D01*
X4632367Y7477132D01*
X4610135Y7464296D01*
X4591982Y7446143D01*
X4579146Y7423910D01*
X4572501Y7399113D01*
Y7373441D01*
X4579146Y7348643D01*
X4591982Y7326411D01*
X4610135Y7308257D01*
X4632367Y7295422D01*
X4657165Y7288777D01*
X4682837D01*
X4707635Y7295422D01*
X4729867Y7308257D01*
X4748020Y7326411D01*
X4760856Y7348643D01*
X4767501Y7373441D01*
Y7399113D01*
X4762446Y7417977D01*
X4770099Y7430843D01*
X4772942Y7432977D01*
X4837301D01*
Y7513577D01*
D02*
G37*
G36*
X4611576Y7131452D02*
X4588432D01*
X4566076Y7125461D01*
X4546032Y7113889D01*
X4529667Y7097524D01*
X4518094Y7077480D01*
X4512104Y7055124D01*
Y7031979D01*
X4518094Y7009624D01*
X4529667Y6989580D01*
X4546032Y6973214D01*
X4566076Y6961642D01*
X4588432Y6955652D01*
X4611576D01*
X4633932Y6961642D01*
X4653976Y6973214D01*
X4670341Y6989580D01*
X4681914Y7009624D01*
X4687904Y7031979D01*
Y7055124D01*
X4681914Y7077480D01*
X4670341Y7097524D01*
X4653976Y7113889D01*
X4633932Y7125461D01*
X4611576Y7131452D01*
D02*
G37*
G36*
X5645400Y6970399D02*
X5542700D01*
Y6892699D01*
X5645400D01*
Y6970399D01*
D02*
G37*
G36*
X5517300D02*
X5414600D01*
Y6892699D01*
X5517300D01*
Y6970399D01*
D02*
G37*
G36*
X5645400Y6867299D02*
X5542700D01*
Y6789600D01*
X5645400D01*
Y6867299D01*
D02*
G37*
G36*
X5517300D02*
X5414600D01*
Y6789600D01*
X5517300D01*
Y6867299D01*
D02*
G37*
G36*
X5345400Y6835826D02*
X5242700D01*
Y6758126D01*
X5345400D01*
Y6835826D01*
D02*
G37*
G36*
X5217300D02*
X5114600D01*
Y6758126D01*
X5217300D01*
Y6835826D01*
D02*
G37*
G36*
X5823323Y6812900D02*
X5763123D01*
Y6752700D01*
X5823323D01*
Y6812900D01*
D02*
G37*
G36*
X5737723D02*
X5677523D01*
Y6752700D01*
X5737723D01*
Y6812900D01*
D02*
G37*
G36*
X4611576Y6877452D02*
X4588432D01*
X4566076Y6871461D01*
X4546032Y6859889D01*
X4529667Y6843524D01*
X4518094Y6823480D01*
X4512104Y6801124D01*
Y6777979D01*
X4518094Y6755624D01*
X4529667Y6735580D01*
X4546032Y6719214D01*
X4566076Y6707642D01*
X4588432Y6701652D01*
X4611576D01*
X4633932Y6707642D01*
X4653976Y6719214D01*
X4670341Y6735580D01*
X4681914Y6755624D01*
X4687904Y6777979D01*
Y6801124D01*
X4681914Y6823480D01*
X4670341Y6843524D01*
X4653976Y6859889D01*
X4633932Y6871461D01*
X4611576Y6877452D01*
D02*
G37*
G36*
X4841304Y6755852D02*
X4760704D01*
Y6675252D01*
X4841304D01*
Y6755852D01*
D02*
G37*
G36*
X5217300Y6732726D02*
X5114600D01*
Y6655026D01*
X5217300D01*
Y6732726D01*
D02*
G37*
G36*
X4841304Y6649852D02*
X4760704D01*
Y6594951D01*
X4745704Y6588737D01*
X4733870Y6600571D01*
X4711638Y6613407D01*
X4686840Y6620052D01*
X4661168D01*
X4636370Y6613407D01*
X4614138Y6600571D01*
X4595985Y6582418D01*
X4583149Y6560185D01*
X4576504Y6535388D01*
Y6509715D01*
X4583149Y6484918D01*
X4595985Y6462685D01*
X4614138Y6444532D01*
X4636370Y6431696D01*
X4661168Y6425052D01*
X4686840D01*
X4711638Y6431696D01*
X4733870Y6444532D01*
X4752024Y6462685D01*
X4764859Y6484918D01*
X4771504Y6509715D01*
Y6535388D01*
X4766449Y6554251D01*
X4774102Y6567118D01*
X4776945Y6569252D01*
X4841304D01*
Y6649852D01*
D02*
G37*
G36*
X4885000Y6260000D02*
X4705000D01*
Y6060000D01*
X4885000D01*
Y6260000D01*
D02*
G37*
G36*
X4910400Y5697300D02*
X4830200D01*
Y5664600D01*
X4910400D01*
Y5697300D01*
D02*
G37*
G36*
X4804800D02*
X4724600D01*
Y5664600D01*
X4804800D01*
Y5697300D01*
D02*
G37*
G36*
X5270399Y5632478D02*
X5210199D01*
Y5572279D01*
X5270399D01*
Y5632478D01*
D02*
G37*
G36*
Y5546879D02*
X5210199D01*
Y5486678D01*
X5270399D01*
Y5546879D01*
D02*
G37*
G36*
X4551953Y5361889D02*
X4491753D01*
Y5301689D01*
X4551953D01*
Y5361889D01*
D02*
G37*
G36*
X5085077Y5091491D02*
X4945077D01*
Y4991491D01*
X5085077D01*
Y5091491D01*
D02*
G37*
G36*
X5184729Y5046291D02*
X5124529D01*
Y4986091D01*
X5184729D01*
Y5046291D01*
D02*
G37*
G36*
X7074803Y4978474D02*
X6974603D01*
Y4935774D01*
X7074803D01*
Y4978474D01*
D02*
G37*
G36*
Y4910374D02*
X6974603D01*
Y4867674D01*
X7074803D01*
Y4910374D01*
D02*
G37*
G36*
X5737401Y4811400D02*
X5732238Y4811400D01*
X5687701D01*
Y4646500D01*
Y4481600D01*
X5732237D01*
X5737401Y4481600D01*
X5750164Y4487000D01*
X5752401Y4487000D01*
X5853838Y4487000D01*
X5866601Y4481600D01*
X5871764Y4481600D01*
X5916301D01*
Y4646500D01*
Y4811400D01*
X5871764D01*
X5866601Y4811400D01*
X5853838Y4806000D01*
X5851601Y4806000D01*
X5750164Y4806000D01*
X5737401Y4811400D01*
D02*
G37*
G36*
X5612601D02*
X5597601Y4811400D01*
X5560701D01*
Y4646500D01*
Y4481600D01*
X5597601D01*
X5610401Y4481600D01*
X5625401Y4481600D01*
X5662301D01*
Y4646500D01*
Y4811400D01*
X5625401D01*
X5612601Y4811400D01*
D02*
G37*
G36*
X6190400Y4827302D02*
X6132700D01*
Y4769603D01*
X6190400D01*
Y4827302D01*
D02*
G37*
G36*
X6107300D02*
X6049600D01*
Y4769603D01*
X6107300D01*
Y4827302D01*
D02*
G37*
G36*
X5941701Y4811400D02*
Y4659200D01*
X5991401D01*
Y4811400D01*
X5941701D01*
D02*
G37*
G36*
X4587297Y4691299D02*
X4506808D01*
X4513055Y4667987D01*
X4525338Y4646712D01*
X4542709Y4629341D01*
X4563984Y4617058D01*
X4587297Y4610812D01*
Y4691299D01*
D02*
G37*
G36*
X5991401Y4633800D02*
X5941701D01*
Y4481600D01*
X5991401D01*
Y4633800D01*
D02*
G37*
G36*
X6824901Y7430948D02*
X6782201D01*
Y7330748D01*
X6824901D01*
Y7430948D01*
D02*
G37*
G36*
X6756801D02*
X6714101D01*
Y7330748D01*
X6756801D01*
Y7430948D01*
D02*
G37*
G36*
X6678329Y6160399D02*
X6575629D01*
Y6082700D01*
X6678329D01*
Y6160399D01*
D02*
G37*
G36*
Y6057300D02*
X6575629D01*
Y5979600D01*
X6678329D01*
Y6057300D01*
D02*
G37*
G36*
X6550229D02*
X6447529D01*
Y5979600D01*
X6550229D01*
Y6057300D01*
D02*
G37*
G36*
X8418978Y7147962D02*
X8361277D01*
Y7090262D01*
X8418978D01*
Y7147962D01*
D02*
G37*
G36*
X8418972Y7060638D02*
X8361272D01*
Y7002938D01*
X8418972D01*
Y7060638D01*
D02*
G37*
G36*
Y6977538D02*
X8361272D01*
Y6919838D01*
X8418972D01*
Y6977538D01*
D02*
G37*
G36*
X5604799Y6470401D02*
X5564599D01*
Y6385201D01*
X5604799D01*
Y6470401D01*
D02*
G37*
G36*
X6688131Y5667476D02*
Y5607277D01*
X6748331D01*
Y5667476D01*
X6688131D01*
D02*
G37*
G36*
X6856875Y5639796D02*
X6796675D01*
Y5579597D01*
X6856875D01*
Y5639796D01*
D02*
G37*
G36*
X6748331Y5581877D02*
X6688131D01*
Y5521676D01*
X6748331D01*
Y5581877D01*
D02*
G37*
G36*
X6856872Y6748302D02*
X6796672D01*
Y6688102D01*
X6856872D01*
Y6748302D01*
D02*
G37*
G36*
X7074800Y6086400D02*
X6974600D01*
Y6043700D01*
X7074800D01*
Y6086400D01*
D02*
G37*
G36*
Y6018300D02*
X6974600D01*
Y5975600D01*
X7074800D01*
Y6018300D01*
D02*
G37*
G36*
X7775400Y6086400D02*
X7675200D01*
Y6043700D01*
X7775400D01*
Y6086400D01*
D02*
G37*
G36*
Y6018300D02*
X7675200D01*
Y5975600D01*
X7775400D01*
Y6018300D01*
D02*
G37*
G36*
X8410855Y6020177D02*
X8353154D01*
Y5962477D01*
X8410855D01*
Y6020177D01*
D02*
G37*
G36*
Y5937077D02*
X8353154D01*
Y5879377D01*
X8410855D01*
Y5937077D01*
D02*
G37*
G36*
Y5849748D02*
X8353154D01*
Y5792048D01*
X8410855D01*
Y5849748D01*
D02*
G37*
G36*
Y5766648D02*
X8353154D01*
Y5708948D01*
X8410855D01*
Y5766648D01*
D02*
G37*
G36*
X8417936Y4842048D02*
X8360236D01*
Y4784348D01*
X8417936D01*
Y4842048D01*
D02*
G37*
G36*
Y4758948D02*
X8360236D01*
Y4701248D01*
X8417936D01*
Y4758948D01*
D02*
G37*
G36*
Y4671619D02*
X8360236D01*
Y4613919D01*
X8417936D01*
Y4671619D01*
D02*
G37*
G36*
Y4588519D02*
X8360236D01*
Y4530819D01*
X8417936D01*
Y4588519D01*
D02*
G37*
%LPD*%
D10*
X4592077Y8178079D02*
G03*
X4860812Y8059188I288143J288143D01*
G01*
X4664752Y8366077D02*
G03*
X4592077Y8178079I5248J-110075D01*
G01*
X4671228Y8372552D02*
G03*
X4671288Y8372612I-17901J18020D01*
G01*
X8652078Y7926874D02*
Y8054999D01*
Y7926874D02*
X8666456D01*
X8695623Y8102699D02*
X8733227Y8065095D01*
Y7998849D02*
Y8065095D01*
X8652078Y8104996D02*
X8654376Y8102699D01*
X8695623D01*
X8733227Y7998849D02*
X8759807Y7972269D01*
X8904807D01*
X8980002Y7897073D01*
X8634156Y7894574D02*
X8666456Y7926874D01*
X8371703Y4390400D02*
X8775687D01*
X8300000Y4462103D02*
X8371703Y4390400D01*
X8775687D02*
X8861265Y4475978D01*
X8300000Y4462103D02*
Y5130000D01*
X8634161Y7894569D02*
X8804580D01*
X8280000Y6726674D02*
Y7191536D01*
X8383302Y7294838D01*
X8772193Y7344800D02*
X8816902Y7300091D01*
X8383302Y7294838D02*
X8693773D01*
X8130000Y7260000D02*
X8214800Y7344800D01*
X8772193D01*
X8130000Y6840000D02*
Y7260000D01*
X8816902Y7204611D02*
Y7300091D01*
Y7204611D02*
X8817102Y7204411D01*
X5858749Y6373752D02*
Y6468749D01*
X5860000Y6470000D01*
X5857499Y6372501D02*
X5858749Y6373752D01*
X4850000Y7780278D02*
X5034800Y7595478D01*
Y6194881D02*
Y7595478D01*
Y6194881D02*
X5064879Y6164802D01*
X6090000Y6663045D02*
Y6854770D01*
X5792300Y7152470D02*
X6090000Y6854770D01*
X5792300Y7152470D02*
Y7191906D01*
X5746900Y7133665D02*
Y7173100D01*
Y7133665D02*
X5970000Y6910565D01*
X5050000Y7934205D02*
X5792300Y7191906D01*
X4860812Y8059188D02*
X5746900Y7173100D01*
X5970000Y6486244D02*
Y6910565D01*
X5050000Y7934205D02*
Y8450000D01*
X6100000Y5490000D02*
Y5525002D01*
X6097503Y5527499D02*
X6100000Y5525002D01*
X5872299Y5446454D02*
X5898752Y5420000D01*
X6320000D01*
X6460000Y5280000D01*
X6938750Y6376250D02*
X7030500Y6284500D01*
X6910000Y6380000D02*
X6913750Y6376250D01*
X7030500Y6284500D02*
X7087500D01*
X6913750Y6376250D02*
X6938750D01*
X6250000Y6623044D02*
X6280000Y6653044D01*
X6220000Y7055761D02*
X6280000Y6995761D01*
Y6653044D02*
Y6995761D01*
X6452801Y7342603D02*
X6470000Y7325405D01*
X6437922Y7372488D02*
X6452801Y7357609D01*
X6405801Y7372488D02*
X6437922D01*
X6388501Y7389788D02*
X6405801Y7372488D01*
X6452801Y7342603D02*
Y7357609D01*
X6470000Y6233755D02*
Y7325405D01*
X6406047Y6169802D02*
X6470000Y6233755D01*
X6388501Y7389788D02*
Y7443648D01*
X5608344Y5961657D02*
Y6051656D01*
Y5961657D02*
X5922698Y5647302D01*
Y5542299D02*
Y5647302D01*
X5652039Y6165830D02*
X6017503Y5800367D01*
Y5527499D02*
Y5800367D01*
X4954600Y6146015D02*
X4990000Y6110615D01*
X4954600Y6146015D02*
Y7603722D01*
X4890940Y7667382D02*
X4954600Y7603722D01*
X4820626Y7667382D02*
X4890940D01*
X4596000Y7892008D02*
X4820626Y7667382D01*
X4596000Y7892008D02*
Y7907278D01*
X5064879Y6164802D02*
X5460200D01*
X4671288Y8686442D02*
X4678727Y8679003D01*
X4671288Y8372612D02*
X4678727Y8380052D01*
X4664752Y8366077D02*
X4671228Y8372552D01*
X4678727Y8582545D02*
X4696600Y8564672D01*
Y8481332D02*
Y8564672D01*
X4678727Y8582545D02*
Y8679003D01*
Y8463459D02*
X4696600Y8481332D01*
X4596000Y8761730D02*
X4671288Y8686442D01*
X4678727Y8380052D02*
Y8463459D01*
X4596000Y8761730D02*
Y8777000D01*
X6002703Y6387301D02*
Y6442175D01*
X5997698Y6447180D02*
Y6458545D01*
X5970000Y6486244D02*
X5997698Y6458545D01*
X6002703Y6387301D02*
X6017503Y6372501D01*
X5997698Y6447180D02*
X6002703Y6442175D01*
X6134501Y7255499D02*
X6220000Y7170000D01*
Y7055761D02*
Y7170000D01*
X6134501Y7255499D02*
Y7443648D01*
X6090000Y6663045D02*
X6164911Y6588134D01*
Y6385093D02*
Y6588134D01*
X6250000Y6317301D02*
Y6623044D01*
X6370000Y6244802D02*
Y7277649D01*
X6261501Y7386148D02*
X6370000Y7277649D01*
X6320002Y6230002D02*
X6355200D01*
X6370000Y6244802D01*
X5979546Y5225700D02*
X6105245Y5100000D01*
X6810000D01*
X5938753Y5300000D02*
X6200000D01*
X5792299Y5446454D02*
X5938753Y5300000D01*
X6200000D02*
X6310000Y5190000D01*
X6750000D01*
X6460000Y5280000D02*
X6710000D01*
X6750000Y5190000D02*
X6978998Y5418998D01*
X7075427D02*
X7087503Y5431074D01*
X6978998Y5418998D02*
X7075427D01*
X5933053Y5225700D02*
X5979546D01*
X6710000Y5280000D02*
X6980000Y5550000D01*
X6996774Y5286774D02*
X7070203D01*
X7087503Y5304074D01*
X6810000Y5100000D02*
X6996774Y5286774D01*
X5712299Y5446454D02*
X5933053Y5225700D01*
X7763548Y5620774D02*
X7801644Y5582677D01*
X8772334D02*
X8854184Y5664527D01*
X7801644Y5582677D02*
X8772334D01*
X7543074Y5620774D02*
X7763548D01*
X8732937Y5659574D02*
X8785026D01*
X8808784Y5683332D01*
X8645464Y5747048D02*
X8732937Y5659574D01*
X8125926Y5304074D02*
X8300000Y5130000D01*
X7621276Y5304074D02*
X8125926D01*
X8766063Y4813725D02*
Y4883937D01*
X8218927Y5431074D02*
X8766063Y4883937D01*
X7662503Y5431074D02*
X8218927D01*
X8320000Y5520000D02*
X8815866Y5024134D01*
X7758077Y5520000D02*
X8320000D01*
X8815866Y4813925D02*
Y5024134D01*
X7720000Y6412000D02*
X7752000Y6380000D01*
X8510001D02*
X8808784Y6081216D01*
X7662500Y6412000D02*
X7720000D01*
X7752000Y6380000D02*
X8510001D01*
X7956000Y6666000D02*
X8130000Y6840000D01*
X7662500Y6666000D02*
X7956000D01*
X8123326Y6570000D02*
X8280000Y6726674D01*
X7773221Y6543221D02*
X7800000Y6570000D01*
X8123326D01*
X7666722Y6543221D02*
X7773221D01*
X8808784Y6002474D02*
Y6081216D01*
X7561456Y6474700D02*
X8470337D01*
X8862502Y6866864D01*
X8493356Y6285000D02*
X8758982Y6019374D01*
X7662500Y6285000D02*
X8493356D01*
X5617804Y6194032D02*
X5646006Y6165830D01*
X5652039D01*
X5612500Y6194032D02*
X5617804D01*
X5922698Y5542299D02*
X5937498Y5527499D01*
X5475000Y5222245D02*
Y5670003D01*
X5490701Y5195179D02*
Y5206544D01*
X5505580Y5180300D02*
X5523701D01*
X5475000Y5222245D02*
X5490701Y5206544D01*
Y5195179D02*
X5505580Y5180300D01*
X5523701D02*
X5548001Y5156000D01*
Y5053500D02*
Y5156000D01*
X5369800Y5628958D02*
X5421001Y5577757D01*
Y5053500D02*
Y5577757D01*
X5400321Y5730203D02*
X5405321Y5735203D01*
X5460200D01*
X5369800Y5628958D02*
Y5711048D01*
X5388955Y5730203D01*
X5400321D01*
X6320002Y5910003D02*
X6472497D01*
X6320002Y5910002D02*
X6320002Y5910003D01*
X7087499Y6665498D02*
X7087500Y6665499D01*
Y6666000D01*
X7087499Y6411498D02*
X7087500Y6411499D01*
Y6412000D01*
X6164911Y6385093D02*
X6177503Y6372501D01*
X6389681Y6164802D02*
X6394681Y6169802D01*
X6406047D01*
X6334802Y6164802D02*
X6389681D01*
X6100000Y6330000D02*
Y6370004D01*
X6097503Y6372501D02*
X6100000Y6370004D01*
X6275365Y8125365D02*
X6575000Y8425000D01*
Y8546000D01*
X6275365Y8032512D02*
Y8125365D01*
X6388501Y8163501D02*
X6689370Y8464370D01*
Y8548639D01*
X6261501Y8018648D02*
X6275365Y8032512D01*
X6388501Y8018648D02*
Y8163501D01*
X6689370Y8548639D02*
X6820731Y8680000D01*
X7662500Y6539000D02*
X7666722Y6543221D01*
X7542300Y5620000D02*
Y6455544D01*
X7561456Y6474700D01*
X7542300Y5383049D02*
Y5620000D01*
X7543074Y5620774D01*
X8862502Y6866864D02*
Y6924415D01*
X8811263Y4533726D02*
X8820863D01*
X8792108Y4471026D02*
X8811263Y4490182D01*
X8861265Y4509923D02*
X8865864Y4514522D01*
X8861265Y4475978D02*
Y4509923D01*
X8612938Y4568919D02*
X8642126D01*
X8740019Y4471026D01*
X8792108D01*
X8811263Y4490182D02*
Y4533726D01*
X8580638Y4601219D02*
X8612938Y4568919D01*
X7720003Y5558074D02*
X7758077Y5520000D01*
X7662503Y5558074D02*
X7720003D01*
X8693773Y7294838D02*
X8767099Y7221511D01*
Y7204411D02*
Y7221511D01*
X7666515Y5050000D02*
X7880000D01*
X7664501Y6160000D02*
X7880000D01*
X8854184Y5692655D02*
X8858782Y5697252D01*
X8605857Y5747048D02*
X8645464D01*
X8858782Y5697252D02*
Y5704974D01*
X8808784Y5683332D02*
Y5722074D01*
X8854184Y5664527D02*
Y5692655D01*
X8573557Y5779348D02*
X8605857Y5747048D01*
X8808784Y5722074D02*
X8808984Y5722274D01*
X8854184Y5972654D02*
X8858782Y5977252D01*
Y5984974D01*
X8769605Y5937275D02*
X8793983D01*
X8706480D02*
X8769605D01*
Y5811656D02*
Y5937275D01*
X8854184Y5958729D02*
Y5972654D01*
X8745422Y5787473D02*
X8769605Y5811656D01*
X8866899Y7179389D02*
Y7187111D01*
X8816902Y6924212D02*
X8817102Y6924412D01*
X8772951Y7139412D02*
X8802101D01*
X8714598D02*
X8772951D01*
X8804399Y7141711D02*
X8843146D01*
X8802101Y7139412D02*
X8804399Y7141711D01*
X8772951Y7139412D02*
X8777297Y7135067D01*
Y7013368D02*
Y7135067D01*
X8581674Y7160662D02*
X8649896Y7092441D01*
Y7065372D02*
Y7092441D01*
X8843146Y7141711D02*
X8862302Y7160867D01*
Y7174792D01*
X8866899Y7179389D01*
X8581674Y6990238D02*
X8710201Y6861712D01*
X8675655Y7039613D02*
X8714398D01*
X8649896Y7065372D02*
X8675655Y7039613D01*
X8753545Y6989615D02*
X8777297Y7013368D01*
X8793144Y6861712D02*
X8816902Y6885470D01*
X8714797Y6989615D02*
X8753545D01*
X8714598Y6989415D02*
X8714797Y6989615D01*
X8714398Y7039613D02*
X8714598Y7039413D01*
X8710201Y6861712D02*
X8793144D01*
X8816902Y6885470D02*
Y6924212D01*
X8573557Y5949777D02*
X8641778Y5881556D01*
Y5863230D02*
Y5881556D01*
X8580638Y4771648D02*
X8648860Y4703426D01*
Y4674682D02*
Y4703426D01*
Y4674682D02*
X8674614Y4648927D01*
X8752503Y4598925D02*
X8776687Y4623108D01*
X8713362Y4648927D02*
X8713561Y4648727D01*
X8674614Y4648927D02*
X8713362D01*
X8758982Y6002274D02*
Y6019374D01*
X8706280Y5837475D02*
X8706480Y5837275D01*
X8667533Y5837475D02*
X8706280D01*
X8713761Y4598925D02*
X8752503D01*
X8713561Y4598725D02*
X8713761Y4598925D01*
X8793983Y5937275D02*
X8796282Y5939574D01*
X8835029D01*
X8808784Y6002474D02*
X8808984Y6002274D01*
X8835029Y5939574D02*
X8854184Y5958729D01*
X8706480Y5787273D02*
X8706680Y5787473D01*
X8745422D01*
X8865863Y4774778D02*
Y4796426D01*
X8776687Y4623108D02*
Y4748727D01*
X8839812D01*
X8815866Y4813925D02*
X8816066Y4813725D01*
X8839812Y4748727D02*
X8865863Y4774778D01*
X8641778Y5863230D02*
X8667533Y5837475D01*
X8713561Y4748727D02*
X8776687D01*
X4850000Y8650000D02*
X5050000Y8450000D01*
X6820731Y8680000D02*
X7090001D01*
X6980000Y5550000D02*
X7087503D01*
X7542300Y5383049D02*
X7621276Y5304074D01*
X6261501Y7386148D02*
Y7443648D01*
X5712299Y5446454D02*
Y5512699D01*
X5697499Y5527499D02*
X5712299Y5512699D01*
X7090001Y8680000D02*
X7210000Y8800000D01*
X6134501Y8018648D02*
Y8364499D01*
X5953000Y8546000D02*
X6134501Y8364499D01*
X5872299Y5446454D02*
Y5512699D01*
X5792299Y5446454D02*
Y5512699D01*
X5777499Y5527499D02*
X5792299Y5512699D01*
X4990000Y6110615D02*
X5258194D01*
X5284007Y6084802D02*
X5460200D01*
X5258194Y6110615D02*
X5284007Y6084802D01*
X8634156Y7894574D02*
X8634161Y7894569D01*
X5460200Y5735203D02*
X5475000Y5750003D01*
X6320002Y6150002D02*
X6334802Y6164802D01*
X5460200Y6084802D02*
X5475000Y6070002D01*
X5460200Y6164802D02*
X5475000Y6150002D01*
X5857499Y5527499D02*
X5872299Y5512699D01*
D11*
X9200430Y7991918D02*
D03*
Y8271918D02*
D03*
X5530000Y6600000D02*
D03*
Y6879999D02*
D03*
X5230000Y6745426D02*
D03*
Y6465426D02*
D03*
X7910424Y8510001D02*
D03*
Y8790000D02*
D03*
X6562929Y5790000D02*
D03*
Y6070000D02*
D03*
X7650002Y8510001D02*
D03*
Y8790000D02*
D03*
D12*
X8458727Y8169076D02*
D03*
Y8014080D02*
D03*
X8980002Y7742072D02*
D03*
Y7897073D02*
D03*
X7880427Y5664999D02*
D03*
Y5820000D02*
D03*
X7880424Y6764999D02*
D03*
Y6920000D02*
D03*
X8980000Y8260001D02*
D03*
Y8105000D02*
D03*
X6869575Y5807498D02*
D03*
Y5652497D02*
D03*
X6869572Y6916003D02*
D03*
Y6761002D02*
D03*
X4564653Y5288989D02*
D03*
Y5133988D02*
D03*
X5750423Y6585004D02*
D03*
Y6740000D02*
D03*
X5197429Y5058991D02*
D03*
Y5213992D02*
D03*
D13*
X8652078Y8204996D02*
D03*
Y8154999D02*
D03*
Y8104996D02*
D03*
Y8054999D02*
D03*
X8802075Y8204996D02*
D03*
Y8154999D02*
D03*
Y8104996D02*
D03*
Y8054999D02*
D03*
D14*
X8804580Y7744572D02*
D03*
Y7894569D02*
D03*
X8634156Y7894574D02*
D03*
Y7744577D02*
D03*
X6120000Y4990000D02*
D03*
Y4840003D02*
D03*
D15*
X8215803Y8006913D02*
D03*
X7800802D02*
D03*
D16*
X5217922Y5737502D02*
D03*
X5027925D02*
D03*
Y6007499D02*
D03*
X5122921D02*
D03*
X5217922D02*
D03*
D17*
X4817500Y5970000D02*
D03*
Y5905000D02*
D03*
Y5840000D02*
D03*
Y5775000D02*
D03*
Y5710000D02*
D03*
D18*
X4795000Y6160000D02*
D03*
Y5520000D02*
D03*
D19*
X4550000Y5960000D02*
D03*
Y5720000D02*
D03*
D20*
X5042498Y5559578D02*
D03*
X5197499D02*
D03*
X5115000Y6270000D02*
D03*
X5270000D02*
D03*
X5875000Y7225720D02*
D03*
X6030001D02*
D03*
X7527501Y7501295D02*
D03*
X7372500D02*
D03*
X6030000Y8236571D02*
D03*
X5874999D02*
D03*
X6675431Y5594576D02*
D03*
X6520430D02*
D03*
D21*
X6177503Y5527499D02*
D03*
X6097503D02*
D03*
X6017503D02*
D03*
X5937498D02*
D03*
X5857499D02*
D03*
X5777499D02*
D03*
X5697499D02*
D03*
X5617499D02*
D03*
Y6372501D02*
D03*
X5697499D02*
D03*
X5777499D02*
D03*
X5857499D02*
D03*
X5937498D02*
D03*
X6017503D02*
D03*
X6097503D02*
D03*
X6177503D02*
D03*
D22*
X5475000Y5670003D02*
D03*
Y5750003D02*
D03*
Y5830003D02*
D03*
Y5910002D02*
D03*
Y5990002D02*
D03*
Y6070002D02*
D03*
Y6150002D02*
D03*
Y6230002D02*
D03*
X6320002D02*
D03*
Y6150002D02*
D03*
Y6070002D02*
D03*
Y5990002D02*
D03*
Y5910002D02*
D03*
Y5830003D02*
D03*
Y5750003D02*
D03*
Y5670003D02*
D03*
D23*
X7087503Y5812074D02*
D03*
Y5685074D02*
D03*
Y5304074D02*
D03*
Y5177074D02*
D03*
Y5050074D02*
D03*
Y4923074D02*
D03*
X7662503Y5812074D02*
D03*
Y5685074D02*
D03*
Y5558074D02*
D03*
Y5431074D02*
D03*
Y5050074D02*
D03*
Y4923074D02*
D03*
Y5304074D02*
D03*
Y5177074D02*
D03*
X7087503Y5431074D02*
D03*
Y5558074D02*
D03*
X7087500Y6920000D02*
D03*
Y6793000D02*
D03*
Y6666000D02*
D03*
Y6539000D02*
D03*
Y6412000D02*
D03*
Y6285000D02*
D03*
Y6158000D02*
D03*
Y6031000D02*
D03*
X7662500Y6920000D02*
D03*
Y6793000D02*
D03*
Y6666000D02*
D03*
Y6539000D02*
D03*
Y6412000D02*
D03*
Y6285000D02*
D03*
Y6158000D02*
D03*
Y6031000D02*
D03*
D24*
X9049999Y4313138D02*
D03*
X9050000Y5034311D02*
D03*
X9050000Y7425000D02*
D03*
Y6703826D02*
D03*
Y5501687D02*
D03*
Y6222861D02*
D03*
D25*
X8767099Y6924412D02*
D03*
X8817101D02*
D03*
X8867099D02*
D03*
Y7204411D02*
D03*
X8817101D02*
D03*
X8767099D02*
D03*
X8758982Y6002274D02*
D03*
X8808984D02*
D03*
X8858982D02*
D03*
Y5722274D02*
D03*
X8808984D02*
D03*
X8758982D02*
D03*
X8766063Y4813725D02*
D03*
X8816066D02*
D03*
X8866063D02*
D03*
Y4533726D02*
D03*
X8816066D02*
D03*
X8766063D02*
D03*
D26*
X8924599Y7064411D02*
D03*
X8916482Y5862274D02*
D03*
X8923564Y4673726D02*
D03*
D27*
X8994602Y6973164D02*
D03*
Y7155663D02*
D03*
X8986484Y5953526D02*
D03*
Y5771022D02*
D03*
X8993566Y4764973D02*
D03*
Y4582474D02*
D03*
D28*
X9109598Y7064411D02*
D03*
X9101480Y5862274D02*
D03*
X9108562Y4673726D02*
D03*
D29*
X8714597Y7139412D02*
D03*
Y7089415D02*
D03*
Y7039413D02*
D03*
Y6989415D02*
D03*
X8706480Y5787273D02*
D03*
Y5837275D02*
D03*
Y5887273D02*
D03*
Y5937275D02*
D03*
X8713561Y4598725D02*
D03*
Y4648727D02*
D03*
Y4698724D02*
D03*
Y4748727D02*
D03*
D30*
X8581674Y6990238D02*
D03*
X8431672D02*
D03*
X8581674Y7160662D02*
D03*
X8431677D02*
D03*
X8580638Y4771648D02*
D03*
X8430636D02*
D03*
X8423554Y5949777D02*
D03*
X8573557D02*
D03*
X8423554Y5779348D02*
D03*
X8573557D02*
D03*
X8580638Y4601219D02*
D03*
X8430636D02*
D03*
D31*
X7542875Y7721722D02*
D03*
X7262876D02*
D03*
X7542875Y7982148D02*
D03*
X7262876D02*
D03*
X7542875Y8242574D02*
D03*
X7262876D02*
D03*
D32*
X8974999Y8650000D02*
D03*
X8325002D02*
D03*
D33*
X5880501Y7443648D02*
D03*
X6007501D02*
D03*
X6134501D02*
D03*
X6261501D02*
D03*
X6388501D02*
D03*
X6515501D02*
D03*
X6642501D02*
D03*
X6769501D02*
D03*
X5880501Y8018648D02*
D03*
X6007501D02*
D03*
X6134501D02*
D03*
X6261501D02*
D03*
X6388501D02*
D03*
X6515501D02*
D03*
X6642501D02*
D03*
X6769501D02*
D03*
D34*
X5548001Y5053500D02*
D03*
Y4646500D02*
D03*
X5421001Y5053500D02*
D03*
Y4646500D02*
D03*
X5929001Y5053500D02*
D03*
Y4646500D02*
D03*
X5802001Y5053500D02*
D03*
Y4646500D02*
D03*
X5675001Y5053500D02*
D03*
Y4646500D02*
D03*
D35*
X5015077Y5041491D02*
D03*
Y5231488D02*
D03*
X4745080Y5041491D02*
D03*
Y5136492D02*
D03*
Y5231488D02*
D03*
D36*
X8607581Y8154996D02*
X8637076D01*
X8489331Y8044683D02*
X8526763D01*
X8567172Y8085093D01*
X8458727Y8014080D02*
X8489331Y8044683D01*
X8567172Y8085093D02*
Y8114587D01*
X8607581Y8154996D01*
X8637078Y8154999D02*
X8652078D01*
X8637076Y8154996D02*
X8637078Y8154999D01*
D37*
X7662500Y6920000D02*
X7880424D01*
X7662499Y6919498D02*
X7662750Y6919750D01*
X7800802Y7809413D02*
Y8006913D01*
Y7809413D02*
X7858302Y7751913D01*
X7705000Y7462500D02*
X8352079D01*
X7642500Y7525000D02*
X7705000Y7462500D01*
X8352079D02*
X8634156Y7744577D01*
X6320002Y5670003D02*
X6365002D01*
X6367502Y5667503D01*
Y5625004D02*
Y5667503D01*
Y5625004D02*
X6397930Y5594576D01*
X6520430D01*
X5730000Y6500000D02*
Y6564581D01*
X5699999Y6375001D02*
Y6469999D01*
X5730000Y6500000D01*
Y6564581D02*
X5750423Y6585004D01*
X5697499Y6372501D02*
X5699999Y6375001D01*
X5230000Y6465426D02*
X5270000Y6425426D01*
X4871490Y5361490D02*
X5019998Y5509998D01*
Y5537078D02*
X5042498Y5559578D01*
X5019998Y5509998D02*
Y5537078D01*
X4686442Y5361490D02*
X4871490D01*
X5064998Y5559647D02*
Y5607074D01*
X5170425Y5712501D02*
X5212922D01*
X5064930Y5559578D02*
X5064998Y5559647D01*
Y5607074D02*
X5170425Y5712501D01*
X5217922Y5717501D02*
Y5737502D01*
X5212922Y5712501D02*
X5217922Y5717501D01*
X4637149Y4852851D02*
Y5061491D01*
Y4852851D02*
X4730000Y4760000D01*
X7880000Y6920424D02*
X7880424Y6920000D01*
X7857924Y6942500D02*
X7880000Y6920424D01*
Y5819573D02*
X7880427Y5820000D01*
X7876464Y5816037D02*
X7880000Y5819573D01*
X5877750Y8021399D02*
Y8233820D01*
Y8021399D02*
X5880501Y8018648D01*
Y8076148D01*
X6012501Y8219073D02*
X6030000Y8236571D01*
X6007501Y8018648D02*
X6012501Y8023648D01*
Y8219073D01*
X7865352Y5680074D02*
X7880427Y5664999D01*
X7662503Y5685074D02*
X7667503Y5680074D01*
X7865352D01*
X7666467Y5816037D02*
X7876464D01*
X7662503Y5812074D02*
X7666467Y5816037D01*
X7662500Y6793000D02*
X7852423D01*
X7880424Y6764999D01*
X7662503Y4923074D02*
X7667503Y4918074D01*
X8986484Y6159346D02*
X9050000Y6222861D01*
X8986484Y5953526D02*
Y6159346D01*
Y5565202D02*
X9050000Y5501687D01*
X8986484Y5565202D02*
Y5771022D01*
X8993566Y4369571D02*
Y4582474D01*
Y4369571D02*
X9049999Y4313138D01*
X8993566Y4977877D02*
X9050000Y5034311D01*
X8993566Y4764973D02*
Y4977877D01*
X9094602Y7369602D02*
X9150000Y7425000D01*
X8994602Y7155663D02*
Y7369602D01*
Y6759224D02*
Y6973164D01*
Y6759224D02*
X9050000Y6703826D01*
X7662500Y6031000D02*
X7667500Y6026000D01*
X7087503Y5685074D02*
X7103775D01*
X6925003D02*
X7087503D01*
X6922429Y5682499D02*
X6925003Y5685074D01*
X6869575Y5659999D02*
X6892075Y5682499D01*
X6922429D01*
X7044812Y5813537D02*
X7046275Y5812074D01*
X6871038Y5813537D02*
X7044812D01*
X7087503Y5812074D02*
X7103775D01*
X7046275D02*
X7087503D01*
X4730000Y4447000D02*
Y4760000D01*
Y4447000D02*
X4854000Y4323000D01*
X5335247Y4834754D02*
X5421001Y4749000D01*
X5335247Y4834754D02*
Y5120892D01*
X5258923Y5156137D02*
X5332677Y5082383D01*
X5255285Y5156137D02*
X5258923D01*
X5421001Y4646500D02*
Y4749000D01*
X5197432Y5213990D02*
X5255285Y5156137D01*
X5270000Y6270000D02*
Y6425426D01*
X5392500Y6270000D02*
X5427500Y6235000D01*
X5270000Y6270000D02*
X5392500D01*
X5427500Y6232502D02*
Y6235000D01*
Y6232502D02*
X5430000Y6230002D01*
X5475000D01*
X6320002Y5670003D02*
X6322502Y5667503D01*
X6007501Y7386148D02*
X6030001Y7363648D01*
X6007501Y7386148D02*
Y7443648D01*
X6030001Y7225720D02*
Y7363648D01*
X5875000Y7380646D02*
X5880501Y7386148D01*
Y7443648D01*
X5875000Y7225720D02*
Y7380646D01*
X6998503Y6761002D02*
X7029999Y6792498D01*
X7087499D01*
X6869572Y6761002D02*
X6998503D01*
X6871320Y6917751D02*
X7085752D01*
X7087499Y6919498D01*
X4637149Y5061491D02*
X4657150Y5041491D01*
X4564653Y5133988D02*
X4637149Y5061491D01*
X4657153Y5222849D02*
X4660792Y5226488D01*
X4627154Y5196489D02*
X4630792D01*
X4657153Y5332201D02*
X4686442Y5361490D01*
X4657153Y5222849D02*
Y5332201D01*
X4630792Y5196489D02*
X4657153Y5222849D01*
X5015077Y5231488D02*
X5020077Y5226488D01*
X5184933D01*
X4660792D02*
X4740080D01*
X4745080Y5231488D01*
X4564653Y5133988D02*
X4627154Y5196489D01*
X4657150Y5041491D02*
X4745080D01*
D38*
X6552929Y5805000D02*
X6775000D01*
X6867077D02*
X6869575Y5807498D01*
X6775000Y5805000D02*
X6867077D01*
X6522929Y5775000D02*
X6552929Y5805000D01*
X6775000D02*
X6780000Y5810000D01*
X6660000Y6300000D02*
X6780000Y6180000D01*
Y5810000D02*
Y6180000D01*
X6522929Y5597075D02*
Y5775000D01*
X6520430Y5594576D02*
X6522929Y5597075D01*
X6660000Y6300000D02*
Y6740000D01*
X5530000Y6600000D02*
X5735427D01*
X5380000Y6590426D02*
Y6610000D01*
X5230000Y6465426D02*
X5255000D01*
X5380000Y6590426D01*
X5520000Y6610000D02*
X5530000Y6600000D01*
X5380000Y6610000D02*
X5520000D01*
X6737751Y6917751D02*
X6871320D01*
X6180000Y6740000D02*
X6190000Y6750000D01*
X5875000Y7186726D02*
Y7225720D01*
Y7186726D02*
X6190000Y6871726D01*
Y6750000D02*
Y6871726D01*
X6661422Y6758579D02*
X6670000Y6750000D01*
X6661422Y6841421D02*
X6737751Y6917751D01*
X6661422Y6758579D02*
Y6841421D01*
X6660000Y6740000D02*
X6670000Y6750000D01*
D39*
X5092000Y5849500D02*
X5254160D01*
X5027925Y5757502D02*
X5044925Y5774502D01*
Y5802425D01*
X5092000Y5849500D01*
X5027925Y5737502D02*
Y5757502D01*
Y5987498D02*
X5044925Y5970498D01*
Y5942575D02*
Y5970498D01*
Y5942575D02*
X5092000Y5895500D01*
X5273214D01*
X5027925Y5987498D02*
Y6007499D01*
X4915927Y5849500D02*
X4990925Y5774502D01*
X4887231Y5849500D02*
X4915927D01*
X4990925Y5774502D02*
X5010925D01*
X5027925Y5757502D01*
X4990925Y5970498D02*
X5010925D01*
X4887231Y5895500D02*
X4915927D01*
X4990925Y5970498D01*
X5010925D02*
X5027925Y5987498D01*
X5273214Y5895500D02*
X5275711Y5893002D01*
X5400269D02*
X5402769Y5895502D01*
X5460500D01*
X5275711Y5893002D02*
X5400269D01*
X5460500Y5895502D02*
X5475000Y5910002D01*
X5256658Y5847003D02*
X5400269D01*
X5402769Y5844503D01*
X5254160Y5849500D02*
X5256658Y5847003D01*
X5460500Y5844503D02*
X5475000Y5830003D01*
X5402769Y5844503D02*
X5460500D01*
X4817500Y5905000D02*
X4824500Y5898000D01*
Y5847000D02*
X4884731D01*
X4887231Y5849500D01*
X4817500Y5840000D02*
X4824500Y5847000D01*
X4884731Y5898000D02*
X4887231Y5895500D01*
X4824500Y5898000D02*
X4884731D01*
D40*
X4550000Y6170000D02*
D03*
Y5510000D02*
D03*
D41*
X4850000Y8396002D02*
D03*
X4853997Y4323000D02*
D03*
X4850001Y7526277D02*
D03*
X4854004Y6662552D02*
D03*
D42*
X4596000Y8523002D02*
D03*
X4850000Y8650002D02*
D03*
X4596000Y8777002D02*
D03*
X5699001Y8546002D02*
D03*
X5826001Y8800002D02*
D03*
X5953001Y8546002D02*
D03*
X4599997Y4704000D02*
D03*
X4853997Y4577000D02*
D03*
X4599997Y4450000D02*
D03*
X7083000Y8545999D02*
D03*
X6956000Y8799999D02*
D03*
X6829000Y8545999D02*
D03*
X6702000Y8799999D02*
D03*
X6575000Y8545999D02*
D03*
X4596001Y7907277D02*
D03*
X4850001Y7780277D02*
D03*
X4596001Y7653277D02*
D03*
X4600004Y7043552D02*
D03*
X4854004Y6916552D02*
D03*
X4600004Y6789552D02*
D03*
D43*
X4670001Y8256002D02*
D03*
X6220001Y8620002D02*
D03*
X4673997Y4183000D02*
D03*
X7350000Y8619999D02*
D03*
X4670001Y7386277D02*
D03*
X4674004Y6522552D02*
D03*
D44*
X6080001Y8800002D02*
D03*
X7210000Y8799999D02*
D03*
D45*
X5400000Y8000000D02*
D03*
X7400000Y4400000D02*
D03*
D46*
X9225430Y7991918D02*
D03*
X9158082D02*
D03*
X7660000Y5920000D02*
D03*
X7880427Y5664999D02*
D03*
X7880424Y6764999D02*
D03*
X8759164Y7437070D02*
D03*
X6700000Y8160000D02*
D03*
X8800000Y7640000D02*
D03*
X8400000Y6220000D02*
D03*
X8843339Y5205664D02*
D03*
X8494232Y5487964D02*
D03*
X5197500Y5462500D02*
D03*
X5604799Y6470401D02*
D03*
X7130000Y7720000D02*
D03*
X9080000Y7750000D02*
D03*
X8440000Y7417500D02*
D03*
X7359800Y7574195D02*
D03*
X9167500Y8327500D02*
D03*
Y8240000D02*
D03*
X9225000Y8107500D02*
D03*
X9157500D02*
D03*
X9255000Y8327500D02*
D03*
X6560000Y6220000D02*
D03*
X6317732Y5992870D02*
D03*
X7087500Y5945000D02*
D03*
X5380000Y6610000D02*
D03*
X5230000Y6870000D02*
D03*
X5800000Y6230000D02*
D03*
X5860000Y6470000D02*
D03*
X5937498Y6372501D02*
D03*
X5750000Y6850000D02*
D03*
X4497500Y8022500D02*
D03*
X6100000Y5490000D02*
D03*
X5930000Y5160000D02*
D03*
X6820000Y6460000D02*
D03*
X6902500Y6147500D02*
D03*
X6910000Y6380000D02*
D03*
X6670000Y6750000D02*
D03*
X6180000Y6740000D02*
D03*
X5608344Y6051656D02*
D03*
X5530000Y7000000D02*
D03*
X5302500Y7295000D02*
D03*
X5850000Y5870000D02*
D03*
X4817500Y5970000D02*
D03*
X5217922Y5737502D02*
D03*
X5122921Y6007499D02*
D03*
X4817757Y5643978D02*
D03*
X9257500Y8240000D02*
D03*
X8198998Y8733134D02*
D03*
X8190000Y8600000D02*
D03*
X8400000Y8860000D02*
D03*
X8330000D02*
D03*
X8120000Y8600000D02*
D03*
X8260000D02*
D03*
X8400000D02*
D03*
X8330000D02*
D03*
X8260000Y8860000D02*
D03*
X8190000D02*
D03*
X8640000Y6540000D02*
D03*
X8850000D02*
D03*
X8635000Y5302500D02*
D03*
X8350937Y7829449D02*
D03*
X7220000Y8100000D02*
D03*
X6866615Y5543069D02*
D03*
X4563314Y5399946D02*
D03*
X5197500Y4950000D02*
D03*
X6030158Y8346124D02*
D03*
X5095807Y6367602D02*
D03*
X4820000Y6380000D02*
D03*
X6120000Y5000002D02*
D03*
X8360000Y5660000D02*
D03*
X8370000Y6540000D02*
D03*
X7500000Y7780000D02*
D03*
X7505000Y7890000D02*
D03*
X7587873Y7892151D02*
D03*
X8080000Y7830000D02*
D03*
X5877750Y8233820D02*
D03*
X9300000Y8680000D02*
D03*
X5680000Y8130000D02*
D03*
X6310000Y8360000D02*
D03*
X7130000Y8240000D02*
D03*
X7260000Y8450000D02*
D03*
X7910424Y8650000D02*
D03*
X7650002D02*
D03*
X8120000Y8860000D02*
D03*
X8080000Y8070000D02*
D03*
X7600000Y7100000D02*
D03*
X7535000Y7375000D02*
D03*
X8367105Y6804412D02*
D03*
X8850000Y6390000D02*
D03*
X8630000Y6400000D02*
D03*
X8815000Y4202500D02*
D03*
X8432500Y4877500D02*
D03*
X7855000Y4320000D02*
D03*
X8840826Y5360245D02*
D03*
X7662500Y4827500D02*
D03*
X8425000Y4465000D02*
D03*
X8470000Y5070000D02*
D03*
X4775000Y8865000D02*
D03*
X6865000Y4330000D02*
D03*
X7080000Y4800000D02*
D03*
X6237500Y4842500D02*
D03*
X5930000Y4440000D02*
D03*
X5610000D02*
D03*
X5105000Y4307500D02*
D03*
X6770000Y7270000D02*
D03*
X4570000Y6380000D02*
D03*
X5910000Y6220000D02*
D03*
X4697431Y5711490D02*
D03*
X5930000Y4850000D02*
D03*
X5460000D02*
D03*
X4855838Y5162557D02*
D03*
X5027431Y5361490D02*
D03*
X6675000Y5457500D02*
D03*
X6472497Y5910003D02*
D03*
X5612500Y6194032D02*
D03*
X6314800Y6070000D02*
D03*
X7087500Y6666000D02*
D03*
Y6539000D02*
D03*
Y6412000D02*
D03*
X6030001Y7225720D02*
D03*
X5620000Y5480000D02*
D03*
X6320000Y5750000D02*
D03*
Y5830000D02*
D03*
X6250000Y6317301D02*
D03*
X6100000Y6330000D02*
D03*
X6770000Y6760000D02*
D03*
X6640000Y8070000D02*
D03*
X7880000Y5819573D02*
D03*
Y6920424D02*
D03*
Y5050000D02*
D03*
Y6160000D02*
D03*
X9101480Y5862274D02*
D03*
X9111479Y5747701D02*
D03*
X8915879Y5731724D02*
D03*
Y5797844D02*
D03*
X8925000Y7060237D02*
D03*
X9109598Y7064411D02*
D03*
X9104601Y6938165D02*
D03*
Y7188164D02*
D03*
X8925000Y7132165D02*
D03*
Y6990234D02*
D03*
Y7200240D02*
D03*
Y6918374D02*
D03*
X8923500Y4806303D02*
D03*
X9109147Y4544574D02*
D03*
Y4794574D02*
D03*
X8923500Y4601064D02*
D03*
Y4536302D02*
D03*
X9111479Y5972702D02*
D03*
X9108562Y4673726D02*
D03*
X8923500Y4739503D02*
D03*
X8923547Y4673726D02*
D03*
X8915879Y5863383D02*
D03*
Y5925443D02*
D03*
Y5992144D02*
D03*
X6270000Y5530000D02*
D03*
X7591153Y7781724D02*
D03*
X9025000Y8450000D02*
D03*
X8925000Y8850000D02*
D03*
X9025000Y8550000D02*
D03*
X9125000D02*
D03*
X8925000D02*
D03*
X8825000Y8450000D02*
D03*
X9025000Y8650000D02*
D03*
X9125000D02*
D03*
Y8450000D02*
D03*
X8825000Y8550000D02*
D03*
X9025000Y8850000D02*
D03*
X9125000Y8750000D02*
D03*
X8825000D02*
D03*
X8925000Y8450000D02*
D03*
X8825000Y8850000D02*
D03*
X8925000Y8750000D02*
D03*
Y8650000D02*
D03*
X9025000Y8750000D02*
D03*
X8825000Y8650000D02*
D03*
X9125000Y8850000D02*
D03*
X5197432Y5221490D02*
D03*
%TF.MD5,df3d4f4bad707bb13871eb997a073593*%
M02*
