%TF.GenerationSoftware,Altium Limited,Altium Designer,22.9.1 (49)*%
G04 Layer_Color=8388736*
%FSLAX45Y45*%
%MOMM*%
%TF.SameCoordinates,29712687-7F25-45B9-B314-6CDD0CF2420B*%
%TF.FilePolarity,Negative*%
%TF.FileFunction,Soldermask,Top*%
%TF.Part,Single*%
G01*
G75*
%TA.AperFunction,SMDPad,CuDef*%
%ADD57R,1.05000X1.05000*%
%ADD58R,1.90000X1.40000*%
%ADD59R,1.05000X1.05000*%
%ADD61R,1.85000X0.70000*%
%ADD62R,1.00000X1.00000*%
%ADD63R,1.00000X1.00000*%
%TA.AperFunction,ComponentPad*%
%ADD64O,1.90000X1.00000*%
%ADD65R,1.45800X1.45800*%
%ADD66C,1.45800*%
%ADD67C,1.65000*%
%ADD68R,1.45800X1.45800*%
%TA.AperFunction,WasherPad*%
%ADD69C,1.65000*%
%TA.AperFunction,SMDPad,CuDef*%
%ADD73R,0.70000X0.40000*%
%ADD74R,1.75000X5.70000*%
%ADD75R,0.70000X1.10000*%
%TA.AperFunction,ConnectorPad*%
%ADD76R,1.45000X0.50000*%
%ADD77R,1.50000X1.70000*%
%TA.AperFunction,SMDPad,CuDef*%
%ADD78R,2.00000X2.00000*%
%ADD79R,0.65000X1.55000*%
%ADD80R,1.55000X0.65000*%
%ADD81R,3.10000X3.10000*%
%ADD82R,1.40000X1.90000*%
%ADD83R,5.10000X5.10000*%
%ADD84R,0.70000X1.85000*%
%ADD85R,0.84000X2.89000*%
%ADD86R,1.10000X0.70000*%
G36*
X8884600Y7229415D02*
Y7179415D01*
X8874600Y7169415D01*
X8859600D01*
X8849600Y7179415D01*
Y7229415D01*
X8859600Y7239415D01*
X8874600D01*
X8884600Y7229415D01*
D02*
G37*
G36*
X8834600D02*
Y7179415D01*
X8824600Y7169415D01*
X8809600D01*
X8799600Y7179415D01*
Y7229415D01*
X8809600Y7239415D01*
X8824600D01*
X8834600Y7229415D01*
D02*
G37*
G36*
X8784600D02*
Y7179415D01*
X8774600Y7169415D01*
X8759600D01*
X8749600Y7179415D01*
Y7229415D01*
X8759600Y7239415D01*
X8774600D01*
X8784600Y7229415D01*
D02*
G37*
G36*
X8749600Y7146915D02*
Y7131915D01*
X8739600Y7121915D01*
X8689600D01*
X8679600Y7131915D01*
Y7146915D01*
X8689600Y7156915D01*
X8739600D01*
X8749600Y7146915D01*
D02*
G37*
G36*
X9007098Y7229415D02*
X9007099Y7199415D01*
X9014598D01*
Y7081915D01*
X9009598Y7076914D01*
X8979599Y7076915D01*
X8974599Y7081914D01*
Y7199415D01*
X8982099D01*
Y7229415D01*
X8987099Y7234415D01*
X9002099D01*
X9007098Y7229415D01*
D02*
G37*
G36*
X8937097D02*
Y7199415D01*
X8944597D01*
X8944597Y7081915D01*
X8939597Y7076914D01*
X8909597Y7076915D01*
X8904597Y7081914D01*
Y7199415D01*
X8912097D01*
Y7229415D01*
X8917097Y7234415D01*
X8932097D01*
X8937097Y7229415D01*
D02*
G37*
G36*
X8749600Y7096915D02*
Y7081915D01*
X8739600Y7071915D01*
X8689600D01*
X8679600Y7081915D01*
Y7096915D01*
X8689600Y7106915D01*
X8739600D01*
X8749600Y7096915D01*
D02*
G37*
G36*
Y7046915D02*
Y7031915D01*
X8739600Y7021915D01*
X8689600D01*
X8679600Y7031915D01*
Y7046915D01*
X8689600Y7056915D01*
X8739600D01*
X8749600Y7046915D01*
D02*
G37*
G36*
Y6996915D02*
Y6981915D01*
X8739600Y6971915D01*
X8689600D01*
X8679600Y6981915D01*
Y6996915D01*
X8689600Y7006915D01*
X8739600D01*
X8749600Y6996915D01*
D02*
G37*
G36*
X9009602Y7051917D02*
X9014602Y7046917D01*
Y6929417D01*
X9007102D01*
Y6899417D01*
X9002102Y6894417D01*
X8987102D01*
X8982102Y6899417D01*
X8982102Y6929417D01*
X8974602D01*
Y7046917D01*
X8979602Y7051917D01*
X9009602Y7051917D01*
D02*
G37*
G36*
X9077100Y7229415D02*
Y7199415D01*
X9084600D01*
Y7151915D01*
X9169600D01*
X9174600Y7146915D01*
Y7131915D01*
X9169600Y7126915D01*
X9084600D01*
Y7101915D01*
X9169600D01*
X9174600Y7096915D01*
Y7081915D01*
X9169600Y7076915D01*
X9084600D01*
Y7051915D01*
X9169600D01*
X9174600Y7046915D01*
Y7031915D01*
X9169600Y7026915D01*
X9084600D01*
Y7001915D01*
X9169600D01*
X9174600Y6996915D01*
Y6981915D01*
X9169600Y6976915D01*
X9084600D01*
Y6929415D01*
X9077100D01*
Y6899415D01*
X9072100Y6894415D01*
X9057100D01*
X9052100Y6899415D01*
Y6929415D01*
X9044600D01*
Y7199415D01*
X9052100D01*
X9052100Y7229415D01*
X9057100Y7234415D01*
X9072100D01*
X9077100Y7229415D01*
D02*
G37*
G36*
X8939600Y7051915D02*
X8944600Y7046915D01*
Y6929415D01*
X8937100D01*
X8937100Y6899415D01*
X8932100Y6894415D01*
X8917100D01*
X8912100Y6899415D01*
X8912100Y6929415D01*
X8904600D01*
Y7046915D01*
X8909600Y7051915D01*
X8939600Y7051915D01*
D02*
G37*
G36*
X8884600Y6949415D02*
Y6899415D01*
X8874600Y6889415D01*
X8859600D01*
X8849600Y6899415D01*
Y6949415D01*
X8859600Y6959415D01*
X8874600D01*
X8884600Y6949415D01*
D02*
G37*
G36*
X8834600D02*
Y6899415D01*
X8824600Y6889415D01*
X8809600D01*
X8799600Y6899415D01*
Y6949415D01*
X8809600Y6959415D01*
X8824600D01*
X8834600Y6949415D01*
D02*
G37*
G36*
X8784600D02*
Y6899415D01*
X8774600Y6889415D01*
X8759600D01*
X8749600Y6899415D01*
Y6949415D01*
X8759600Y6959415D01*
X8774600D01*
X8784600Y6949415D01*
D02*
G37*
G36*
X8876480Y6027273D02*
Y5977273D01*
X8866480Y5967273D01*
X8851480D01*
X8841480Y5977273D01*
Y6027273D01*
X8851480Y6037273D01*
X8866480D01*
X8876480Y6027273D01*
D02*
G37*
G36*
X8826480D02*
Y5977273D01*
X8816480Y5967273D01*
X8801480D01*
X8791480Y5977273D01*
Y6027273D01*
X8801480Y6037273D01*
X8816480D01*
X8826480Y6027273D01*
D02*
G37*
G36*
X8776480D02*
Y5977273D01*
X8766480Y5967273D01*
X8751480D01*
X8741480Y5977273D01*
Y6027273D01*
X8751480Y6037273D01*
X8766480D01*
X8776480Y6027273D01*
D02*
G37*
G36*
X8741480Y5944773D02*
Y5929773D01*
X8731480Y5919773D01*
X8681480D01*
X8671480Y5929773D01*
Y5944773D01*
X8681480Y5954773D01*
X8731480D01*
X8741480Y5944773D01*
D02*
G37*
G36*
X8998978Y6027273D02*
X8998978Y5997273D01*
X9006478D01*
Y5879773D01*
X9001478Y5874773D01*
X8971478Y5874773D01*
X8966478Y5879773D01*
Y5997273D01*
X8973978D01*
Y6027273D01*
X8978978Y6032273D01*
X8993978D01*
X8998978Y6027273D01*
D02*
G37*
G36*
X8928977D02*
Y5997273D01*
X8936477D01*
X8936476Y5879773D01*
X8931476Y5874773D01*
X8901476Y5874773D01*
X8896476Y5879773D01*
Y5997273D01*
X8903977D01*
Y6027273D01*
X8908977Y6032273D01*
X8923977D01*
X8928977Y6027273D01*
D02*
G37*
G36*
X8741480Y5894773D02*
Y5879773D01*
X8731480Y5869773D01*
X8681480D01*
X8671480Y5879773D01*
Y5894773D01*
X8681480Y5904773D01*
X8731480D01*
X8741480Y5894773D01*
D02*
G37*
G36*
Y5844773D02*
Y5829773D01*
X8731480Y5819773D01*
X8681480D01*
X8671480Y5829773D01*
Y5844773D01*
X8681480Y5854773D01*
X8731480D01*
X8741480Y5844773D01*
D02*
G37*
G36*
Y5794773D02*
Y5779773D01*
X8731480Y5769773D01*
X8681480D01*
X8671480Y5779773D01*
Y5794773D01*
X8681480Y5804773D01*
X8731480D01*
X8741480Y5794773D01*
D02*
G37*
G36*
X9001481Y5849775D02*
X9006481Y5844776D01*
Y5727276D01*
X8998981D01*
Y5697276D01*
X8993981Y5692276D01*
X8978981D01*
X8973982Y5697276D01*
X8973981Y5727276D01*
X8966481D01*
Y5844775D01*
X8971481Y5849776D01*
X9001481Y5849775D01*
D02*
G37*
G36*
X9068980Y6027273D02*
Y5997273D01*
X9076480D01*
Y5949773D01*
X9161480D01*
X9166480Y5944773D01*
Y5929773D01*
X9161480Y5924773D01*
X9076480D01*
Y5899773D01*
X9161480D01*
X9166480Y5894773D01*
Y5879773D01*
X9161480Y5874773D01*
X9076480D01*
Y5849773D01*
X9161480D01*
X9166480Y5844773D01*
Y5829773D01*
X9161480Y5824773D01*
X9076480D01*
Y5799773D01*
X9161480D01*
X9166480Y5794773D01*
Y5779773D01*
X9161480Y5774773D01*
X9076480D01*
Y5727273D01*
X9068980D01*
Y5697273D01*
X9063980Y5692273D01*
X9048980D01*
X9043980Y5697273D01*
Y5727273D01*
X9036480D01*
Y5997273D01*
X9043980D01*
X9043980Y6027273D01*
X9048980Y6032273D01*
X9063980D01*
X9068980Y6027273D01*
D02*
G37*
G36*
X8931480Y5849773D02*
X8936480Y5844773D01*
Y5727273D01*
X8928980D01*
X8928980Y5697273D01*
X8923980Y5692273D01*
X8908980D01*
X8903980Y5697273D01*
X8903980Y5727273D01*
X8896480D01*
Y5844773D01*
X8901480Y5849773D01*
X8931480Y5849773D01*
D02*
G37*
G36*
X8876480Y5747273D02*
Y5697273D01*
X8866480Y5687273D01*
X8851480D01*
X8841480Y5697273D01*
Y5747273D01*
X8851480Y5757273D01*
X8866480D01*
X8876480Y5747273D01*
D02*
G37*
G36*
X8826480D02*
Y5697273D01*
X8816480Y5687273D01*
X8801480D01*
X8791480Y5697273D01*
Y5747273D01*
X8801480Y5757273D01*
X8816480D01*
X8826480Y5747273D01*
D02*
G37*
G36*
X8776480D02*
Y5697273D01*
X8766480Y5687273D01*
X8751480D01*
X8741480Y5697273D01*
Y5747273D01*
X8751480Y5757273D01*
X8766480D01*
X8776480Y5747273D01*
D02*
G37*
G36*
X8883563Y4838725D02*
Y4788725D01*
X8873563Y4778725D01*
X8858563D01*
X8848563Y4788725D01*
Y4838725D01*
X8858563Y4848725D01*
X8873563D01*
X8883563Y4838725D01*
D02*
G37*
G36*
X8833563D02*
Y4788725D01*
X8823563Y4778725D01*
X8808563D01*
X8798563Y4788725D01*
Y4838725D01*
X8808563Y4848725D01*
X8823563D01*
X8833563Y4838725D01*
D02*
G37*
G36*
X8783563D02*
Y4788725D01*
X8773563Y4778725D01*
X8758563D01*
X8748563Y4788725D01*
Y4838725D01*
X8758563Y4848725D01*
X8773563D01*
X8783563Y4838725D01*
D02*
G37*
G36*
X8748563Y4756225D02*
Y4741225D01*
X8738563Y4731225D01*
X8688563D01*
X8678563Y4741225D01*
Y4756225D01*
X8688563Y4766225D01*
X8738563D01*
X8748563Y4756225D01*
D02*
G37*
G36*
X9006061Y4838725D02*
X9006062Y4808725D01*
X9013562D01*
Y4691225D01*
X9008562Y4686225D01*
X8978562Y4686225D01*
X8973562Y4691225D01*
Y4808725D01*
X8981062D01*
Y4838725D01*
X8986062Y4843725D01*
X9001062D01*
X9006061Y4838725D01*
D02*
G37*
G36*
X8936060D02*
Y4808725D01*
X8943560D01*
X8943560Y4691225D01*
X8938560Y4686225D01*
X8908560Y4686225D01*
X8903560Y4691225D01*
Y4808725D01*
X8911060D01*
Y4838725D01*
X8916060Y4843725D01*
X8931060D01*
X8936060Y4838725D01*
D02*
G37*
G36*
X8748563Y4706225D02*
Y4691225D01*
X8738563Y4681225D01*
X8688563D01*
X8678563Y4691225D01*
Y4706225D01*
X8688563Y4716225D01*
X8738563D01*
X8748563Y4706225D01*
D02*
G37*
G36*
Y4656225D02*
Y4641225D01*
X8738563Y4631225D01*
X8688563D01*
X8678563Y4641225D01*
Y4656225D01*
X8688563Y4666225D01*
X8738563D01*
X8748563Y4656225D01*
D02*
G37*
G36*
Y4606225D02*
Y4591225D01*
X8738563Y4581225D01*
X8688563D01*
X8678563Y4591225D01*
Y4606225D01*
X8688563Y4616225D01*
X8738563D01*
X8748563Y4606225D01*
D02*
G37*
G36*
X9008565Y4661227D02*
X9013565Y4656227D01*
Y4538727D01*
X9006065D01*
Y4508727D01*
X9001065Y4503727D01*
X8986065D01*
X8981065Y4508727D01*
X8981065Y4538727D01*
X8973565D01*
Y4656227D01*
X8978565Y4661227D01*
X9008565Y4661227D01*
D02*
G37*
G36*
X9076063Y4838725D02*
Y4808725D01*
X9083563D01*
Y4761225D01*
X9168563D01*
X9173563Y4756225D01*
Y4741225D01*
X9168563Y4736225D01*
X9083563D01*
Y4711225D01*
X9168563D01*
X9173563Y4706225D01*
Y4691225D01*
X9168563Y4686225D01*
X9083563D01*
Y4661225D01*
X9168563D01*
X9173563Y4656225D01*
Y4641225D01*
X9168563Y4636225D01*
X9083563D01*
Y4611225D01*
X9168563D01*
X9173563Y4606225D01*
Y4591225D01*
X9168563Y4586225D01*
X9083563D01*
Y4538725D01*
X9076063D01*
Y4508725D01*
X9071063Y4503725D01*
X9056063D01*
X9051063Y4508725D01*
Y4538725D01*
X9043563D01*
Y4808725D01*
X9051063D01*
X9051063Y4838725D01*
X9056063Y4843725D01*
X9071063D01*
X9076063Y4838725D01*
D02*
G37*
G36*
X8938563Y4661225D02*
X8943563Y4656225D01*
Y4538725D01*
X8936063D01*
X8936063Y4508725D01*
X8931063Y4503725D01*
X8916063D01*
X8911063Y4508725D01*
X8911063Y4538725D01*
X8903563D01*
Y4656225D01*
X8908563Y4661225D01*
X8938563Y4661225D01*
D02*
G37*
G36*
X8883563Y4558725D02*
Y4508725D01*
X8873563Y4498725D01*
X8858563D01*
X8848563Y4508725D01*
Y4558725D01*
X8858563Y4568725D01*
X8873563D01*
X8883563Y4558725D01*
D02*
G37*
G36*
X8833563D02*
Y4508725D01*
X8823563Y4498725D01*
X8808563D01*
X8798563Y4508725D01*
Y4558725D01*
X8808563Y4568725D01*
X8823563D01*
X8833563Y4558725D01*
D02*
G37*
G36*
X8783563D02*
Y4508725D01*
X8773563Y4498725D01*
X8758563D01*
X8748563Y4508725D01*
Y4558725D01*
X8758563Y4568725D01*
X8773563D01*
X8783563Y4558725D01*
D02*
G37*
D57*
X5042498Y5559578D02*
D03*
X5197499D02*
D03*
X5115000Y6270000D02*
D03*
X5270000D02*
D03*
X5875000Y7225720D02*
D03*
X6030001D02*
D03*
X7527501Y7501295D02*
D03*
X7372500D02*
D03*
X6030000Y8236571D02*
D03*
X5874999D02*
D03*
X6675431Y5594576D02*
D03*
X6520430D02*
D03*
D58*
X9200430Y7991918D02*
D03*
Y8271918D02*
D03*
X5530000Y6600000D02*
D03*
Y6879999D02*
D03*
X5230000Y6745426D02*
D03*
Y6465426D02*
D03*
X7910424Y8510001D02*
D03*
Y8790000D02*
D03*
X6562929Y5790000D02*
D03*
Y6070000D02*
D03*
X7650002Y8510001D02*
D03*
Y8790000D02*
D03*
D59*
X8458727Y8169076D02*
D03*
Y8014080D02*
D03*
X8980002Y7742072D02*
D03*
Y7897073D02*
D03*
X7880427Y5664999D02*
D03*
Y5820000D02*
D03*
X7880424Y6764999D02*
D03*
Y6920000D02*
D03*
X8980000Y8260001D02*
D03*
Y8105000D02*
D03*
X6869575Y5807498D02*
D03*
Y5652497D02*
D03*
X6869572Y6916003D02*
D03*
Y6761002D02*
D03*
X4564653Y5288989D02*
D03*
Y5133988D02*
D03*
X5750423Y6585004D02*
D03*
Y6740000D02*
D03*
X5197429Y5058991D02*
D03*
Y5213992D02*
D03*
D61*
X7087503Y5812074D02*
D03*
Y5685074D02*
D03*
Y5304074D02*
D03*
Y5177074D02*
D03*
Y5050074D02*
D03*
Y4923074D02*
D03*
X7662503Y5812074D02*
D03*
Y5685074D02*
D03*
Y5558074D02*
D03*
Y5431074D02*
D03*
Y5050074D02*
D03*
Y4923074D02*
D03*
Y5304074D02*
D03*
Y5177074D02*
D03*
X7087503Y5431074D02*
D03*
Y5558074D02*
D03*
X7087500Y6920000D02*
D03*
Y6793000D02*
D03*
Y6666000D02*
D03*
Y6539000D02*
D03*
Y6412000D02*
D03*
Y6285000D02*
D03*
Y6158000D02*
D03*
Y6031000D02*
D03*
X7662500Y6920000D02*
D03*
Y6793000D02*
D03*
Y6666000D02*
D03*
Y6539000D02*
D03*
Y6412000D02*
D03*
Y6285000D02*
D03*
Y6158000D02*
D03*
Y6031000D02*
D03*
D62*
X8581674Y6990238D02*
D03*
X8431672D02*
D03*
X8581674Y7160662D02*
D03*
X8431677D02*
D03*
X8580638Y4771648D02*
D03*
X8430636D02*
D03*
X8423554Y5949777D02*
D03*
X8573557D02*
D03*
X8423554Y5779348D02*
D03*
X8573557D02*
D03*
X8580638Y4601219D02*
D03*
X8430636D02*
D03*
D63*
X8804580Y7744572D02*
D03*
Y7894569D02*
D03*
X8634156Y7894574D02*
D03*
Y7744577D02*
D03*
X6120000Y4990000D02*
D03*
Y4840003D02*
D03*
D64*
X4550000Y6170000D02*
D03*
Y5510000D02*
D03*
D65*
X4850000Y8396002D02*
D03*
X4853997Y4323000D02*
D03*
X4850001Y7526277D02*
D03*
X4854004Y6662552D02*
D03*
D66*
X4596000Y8523002D02*
D03*
X4850000Y8650002D02*
D03*
X4596000Y8777002D02*
D03*
X5699001Y8546002D02*
D03*
X5826001Y8800002D02*
D03*
X5953001Y8546002D02*
D03*
X4599997Y4704000D02*
D03*
X4853997Y4577000D02*
D03*
X4599997Y4450000D02*
D03*
X7083000Y8545999D02*
D03*
X6956000Y8799999D02*
D03*
X6829000Y8545999D02*
D03*
X6702000Y8799999D02*
D03*
X6575000Y8545999D02*
D03*
X4596001Y7907277D02*
D03*
X4850001Y7780277D02*
D03*
X4596001Y7653277D02*
D03*
X4600004Y7043552D02*
D03*
X4854004Y6916552D02*
D03*
X4600004Y6789552D02*
D03*
D67*
X4670001Y8256002D02*
D03*
X6220001Y8620002D02*
D03*
X4673997Y4183000D02*
D03*
X7350000Y8619999D02*
D03*
X4670001Y7386277D02*
D03*
X4674004Y6522552D02*
D03*
D68*
X6080001Y8800002D02*
D03*
X7210000Y8799999D02*
D03*
D69*
X5400000Y8000000D02*
D03*
X7400000Y4400000D02*
D03*
D73*
X8652078Y8204996D02*
D03*
Y8154999D02*
D03*
Y8104996D02*
D03*
Y8054999D02*
D03*
X8802075Y8204996D02*
D03*
Y8154999D02*
D03*
Y8104996D02*
D03*
Y8054999D02*
D03*
D74*
X8215803Y8006913D02*
D03*
X7800802D02*
D03*
D75*
X5217922Y5737502D02*
D03*
X5027925D02*
D03*
Y6007499D02*
D03*
X5122921D02*
D03*
X5217922D02*
D03*
D76*
X4817500Y5970000D02*
D03*
Y5905000D02*
D03*
Y5840000D02*
D03*
Y5775000D02*
D03*
Y5710000D02*
D03*
D77*
X4795000Y6160000D02*
D03*
Y5520000D02*
D03*
D78*
X4550000Y5960000D02*
D03*
Y5720000D02*
D03*
D79*
X6177503Y5527499D02*
D03*
X6097503D02*
D03*
X6017503D02*
D03*
X5937498D02*
D03*
X5857499D02*
D03*
X5777499D02*
D03*
X5697499D02*
D03*
X5617499D02*
D03*
Y6372501D02*
D03*
X5697499D02*
D03*
X5777499D02*
D03*
X5857499D02*
D03*
X5937498D02*
D03*
X6017503D02*
D03*
X6097503D02*
D03*
X6177503D02*
D03*
D80*
X5475000Y5670003D02*
D03*
Y5750003D02*
D03*
Y5830003D02*
D03*
Y5910002D02*
D03*
Y5990002D02*
D03*
Y6070002D02*
D03*
Y6150002D02*
D03*
Y6230002D02*
D03*
X6320002D02*
D03*
Y6150002D02*
D03*
Y6070002D02*
D03*
Y5990002D02*
D03*
Y5910002D02*
D03*
Y5830003D02*
D03*
Y5750003D02*
D03*
Y5670003D02*
D03*
D81*
X9049999Y4313138D02*
D03*
X9050000Y5034311D02*
D03*
X9050000Y7425000D02*
D03*
Y6703826D02*
D03*
Y5501687D02*
D03*
Y6222861D02*
D03*
D82*
X7542875Y7721722D02*
D03*
X7262876D02*
D03*
X7542875Y7982148D02*
D03*
X7262876D02*
D03*
X7542875Y8242574D02*
D03*
X7262876D02*
D03*
D83*
X8974999Y8650000D02*
D03*
X8325002D02*
D03*
D84*
X5880501Y7443648D02*
D03*
X6007501D02*
D03*
X6134501D02*
D03*
X6261501D02*
D03*
X6388501D02*
D03*
X6515501D02*
D03*
X6642501D02*
D03*
X6769501D02*
D03*
X5880501Y8018648D02*
D03*
X6007501D02*
D03*
X6134501D02*
D03*
X6261501D02*
D03*
X6388501D02*
D03*
X6515501D02*
D03*
X6642501D02*
D03*
X6769501D02*
D03*
D85*
X5548001Y5053500D02*
D03*
Y4646500D02*
D03*
X5421001Y5053500D02*
D03*
Y4646500D02*
D03*
X5929001Y5053500D02*
D03*
Y4646500D02*
D03*
X5802001Y5053500D02*
D03*
Y4646500D02*
D03*
X5675001Y5053500D02*
D03*
Y4646500D02*
D03*
D86*
X5015077Y5041491D02*
D03*
Y5231488D02*
D03*
X4745080Y5041491D02*
D03*
Y5136492D02*
D03*
Y5231488D02*
D03*
%TF.MD5,490d8343c18b135518fc9a235aef1406*%
M02*
