%TF.GenerationSoftware,Altium Limited,Altium Designer,22.9.1 (49)*%
G04 Layer_Physical_Order=3*
G04 Layer_Color=16440176*
%FSLAX45Y45*%
%MOMM*%
%TF.SameCoordinates,29712687-7F25-45B9-B314-6CDD0CF2420B*%
%TF.FilePolarity,Positive*%
%TF.FileFunction,Copper,L3,Inr,Signal*%
%TF.Part,Single*%
G01*
G75*
%TA.AperFunction,ComponentPad*%
%ADD40O,1.80000X0.90000*%
%ADD41R,1.35800X1.35800*%
%ADD42C,1.35800*%
%ADD43C,1.55000*%
%ADD44R,1.35800X1.35800*%
%TA.AperFunction,WasherPad*%
%ADD45C,1.55000*%
%TA.AperFunction,ViaPad*%
%ADD46C,0.45000*%
G36*
X5100000Y7889999D02*
X5440726Y7549273D01*
X6850727Y7549273D01*
X7200000Y7200000D01*
Y4050000D01*
X4450000D01*
Y5451366D01*
X4465000Y5458763D01*
X4472220Y5453223D01*
X4488032Y5446673D01*
X4505000Y5444439D01*
X4595000D01*
X4611968Y5446673D01*
X4627780Y5453223D01*
X4641358Y5463642D01*
X4651777Y5477219D01*
X4658327Y5493031D01*
X4660561Y5510000D01*
X4658327Y5526968D01*
X4651777Y5542780D01*
X4641358Y5556358D01*
X4627780Y5566777D01*
X4611968Y5573327D01*
X4595000Y5575561D01*
X4505000D01*
X4488032Y5573327D01*
X4472220Y5566777D01*
X4465000Y5561237D01*
X4450000Y5568634D01*
Y6111366D01*
X4465000Y6118763D01*
X4472220Y6113223D01*
X4488032Y6106673D01*
X4505000Y6104439D01*
X4595000D01*
X4611968Y6106673D01*
X4627780Y6113223D01*
X4641358Y6123642D01*
X4651777Y6137220D01*
X4658327Y6153032D01*
X4660561Y6170000D01*
X4658327Y6186969D01*
X4651777Y6202781D01*
X4641358Y6216358D01*
X4627780Y6226777D01*
X4611968Y6233327D01*
X4595000Y6235561D01*
X4505000D01*
X4488032Y6233327D01*
X4472220Y6226777D01*
X4465000Y6221237D01*
X4450000Y6228634D01*
Y8950000D01*
X5100000D01*
Y7889999D01*
D02*
G37*
G36*
X9350000Y4050000D02*
X7510000D01*
Y4244989D01*
X7521118Y4252418D01*
X7547582Y4278882D01*
X7568376Y4310002D01*
X7582698Y4344579D01*
X7590000Y4381287D01*
Y4418714D01*
X7582698Y4455421D01*
X7568376Y4489999D01*
X7547582Y4521118D01*
X7521118Y4547582D01*
X7510000Y4555011D01*
Y7400000D01*
X7230000D01*
X6736952Y7893048D01*
X5756952D01*
X5574297Y8075703D01*
X5568376Y8089999D01*
X5547583Y8121118D01*
X5521118Y8147582D01*
X5500000Y8161693D01*
Y8950000D01*
X9350000D01*
Y4050000D01*
D02*
G37*
%LPC*%
G36*
X4607573Y8864902D02*
X4584428D01*
X4562072Y8858912D01*
X4542029Y8847339D01*
X4525663Y8830974D01*
X4514091Y8810930D01*
X4508100Y8788574D01*
Y8765430D01*
X4514091Y8743074D01*
X4525663Y8723030D01*
X4542029Y8706665D01*
X4562072Y8695092D01*
X4584428Y8689102D01*
X4607573D01*
X4629929Y8695092D01*
X4649972Y8706665D01*
X4666338Y8723030D01*
X4677910Y8743074D01*
X4683900Y8765430D01*
Y8788574D01*
X4677910Y8810930D01*
X4666338Y8830974D01*
X4649972Y8847339D01*
X4629929Y8858912D01*
X4607573Y8864902D01*
D02*
G37*
G36*
X4861573Y8737902D02*
X4838428D01*
X4816072Y8731912D01*
X4796029Y8720339D01*
X4779663Y8703974D01*
X4768091Y8683930D01*
X4762100Y8661574D01*
Y8638430D01*
X4768091Y8616074D01*
X4779663Y8596030D01*
X4796029Y8579665D01*
X4816072Y8568092D01*
X4838428Y8562102D01*
X4861573D01*
X4883929Y8568092D01*
X4903972Y8579665D01*
X4920338Y8596030D01*
X4931910Y8616074D01*
X4937900Y8638430D01*
Y8661574D01*
X4931910Y8683930D01*
X4920338Y8703974D01*
X4903972Y8720339D01*
X4883929Y8731912D01*
X4861573Y8737902D01*
D02*
G37*
G36*
X4607573Y8610902D02*
X4584428D01*
X4562072Y8604912D01*
X4542029Y8593339D01*
X4525663Y8576974D01*
X4514091Y8556930D01*
X4508100Y8534574D01*
Y8511430D01*
X4514091Y8489074D01*
X4525663Y8469030D01*
X4542029Y8452665D01*
X4562072Y8441092D01*
X4584428Y8435102D01*
X4607573D01*
X4629929Y8441092D01*
X4649972Y8452665D01*
X4666338Y8469030D01*
X4677910Y8489074D01*
X4683900Y8511430D01*
Y8534574D01*
X4677910Y8556930D01*
X4666338Y8576974D01*
X4649972Y8593339D01*
X4629929Y8604912D01*
X4607573Y8610902D01*
D02*
G37*
G36*
X4943301Y8489302D02*
X4862700D01*
Y8408702D01*
X4943301D01*
Y8489302D01*
D02*
G37*
G36*
X4837300D02*
X4756700D01*
Y8408702D01*
X4837300D01*
Y8489302D01*
D02*
G37*
G36*
Y8383302D02*
X4756700D01*
Y8328401D01*
X4741700Y8322188D01*
X4729867Y8334021D01*
X4707634Y8346857D01*
X4682837Y8353502D01*
X4657164D01*
X4632367Y8346857D01*
X4610134Y8334021D01*
X4591981Y8315868D01*
X4579145Y8293636D01*
X4572501Y8268838D01*
Y8243166D01*
X4579145Y8218368D01*
X4591981Y8196136D01*
X4610134Y8177983D01*
X4632367Y8165147D01*
X4657164Y8158502D01*
X4682837D01*
X4707634Y8165147D01*
X4729867Y8177983D01*
X4748020Y8196136D01*
X4760856Y8218368D01*
X4767500Y8243166D01*
Y8268838D01*
X4762446Y8287702D01*
X4770098Y8300569D01*
X4772942Y8302702D01*
X4837300D01*
Y8383302D01*
D02*
G37*
G36*
X4943301D02*
X4862700D01*
Y8302702D01*
X4943301D01*
Y8383302D01*
D02*
G37*
G36*
X4607573Y7995177D02*
X4584429D01*
X4562073Y7989186D01*
X4542029Y7977614D01*
X4525664Y7961249D01*
X4514091Y7941205D01*
X4508101Y7918849D01*
Y7895705D01*
X4514091Y7873349D01*
X4525664Y7853305D01*
X4542029Y7836939D01*
X4562073Y7825367D01*
X4584429Y7819377D01*
X4607573D01*
X4629929Y7825367D01*
X4649973Y7836939D01*
X4666338Y7853305D01*
X4677911Y7873349D01*
X4683901Y7895705D01*
Y7918849D01*
X4677911Y7941205D01*
X4666338Y7961249D01*
X4649973Y7977614D01*
X4629929Y7989186D01*
X4607573Y7995177D01*
D02*
G37*
G36*
X4861573Y7868177D02*
X4838429D01*
X4816073Y7862186D01*
X4796029Y7850614D01*
X4779664Y7834249D01*
X4768091Y7814205D01*
X4762101Y7791849D01*
Y7768705D01*
X4768091Y7746349D01*
X4779664Y7726305D01*
X4796029Y7709939D01*
X4816073Y7698367D01*
X4838429Y7692377D01*
X4861573D01*
X4883929Y7698367D01*
X4903973Y7709939D01*
X4920338Y7726305D01*
X4931911Y7746349D01*
X4937901Y7768705D01*
Y7791849D01*
X4931911Y7814205D01*
X4920338Y7834249D01*
X4903973Y7850614D01*
X4883929Y7862186D01*
X4861573Y7868177D01*
D02*
G37*
G36*
X4607573Y7741177D02*
X4584429D01*
X4562073Y7735186D01*
X4542029Y7723614D01*
X4525664Y7707249D01*
X4514091Y7687205D01*
X4508101Y7664849D01*
Y7641705D01*
X4514091Y7619349D01*
X4525664Y7599305D01*
X4542029Y7582939D01*
X4562073Y7571367D01*
X4584429Y7565377D01*
X4607573D01*
X4629929Y7571367D01*
X4649973Y7582939D01*
X4666338Y7599305D01*
X4677911Y7619349D01*
X4683901Y7641705D01*
Y7664849D01*
X4677911Y7687205D01*
X4666338Y7707249D01*
X4649973Y7723614D01*
X4629929Y7735186D01*
X4607573Y7741177D01*
D02*
G37*
G36*
X4943301Y7619577D02*
X4862701D01*
Y7538977D01*
X4943301D01*
Y7619577D01*
D02*
G37*
G36*
X4837301D02*
X4756701D01*
Y7538977D01*
X4837301D01*
Y7619577D01*
D02*
G37*
G36*
Y7513577D02*
X4756701D01*
Y7458676D01*
X4741701Y7452463D01*
X4729867Y7464296D01*
X4707635Y7477132D01*
X4682837Y7483777D01*
X4657165D01*
X4632367Y7477132D01*
X4610135Y7464296D01*
X4591982Y7446143D01*
X4579146Y7423910D01*
X4572501Y7399113D01*
Y7373441D01*
X4579146Y7348643D01*
X4591982Y7326411D01*
X4610135Y7308257D01*
X4632367Y7295422D01*
X4657165Y7288777D01*
X4682837D01*
X4707635Y7295422D01*
X4729867Y7308257D01*
X4748020Y7326411D01*
X4760856Y7348643D01*
X4767501Y7373441D01*
Y7399113D01*
X4762446Y7417977D01*
X4770099Y7430843D01*
X4772942Y7432977D01*
X4837301D01*
Y7513577D01*
D02*
G37*
G36*
X4943301D02*
X4862701D01*
Y7432977D01*
X4943301D01*
Y7513577D01*
D02*
G37*
G36*
X4611576Y7131452D02*
X4588432D01*
X4566076Y7125461D01*
X4546032Y7113889D01*
X4529667Y7097524D01*
X4518094Y7077480D01*
X4512104Y7055124D01*
Y7031979D01*
X4518094Y7009624D01*
X4529667Y6989580D01*
X4546032Y6973214D01*
X4566076Y6961642D01*
X4588432Y6955652D01*
X4611576D01*
X4633932Y6961642D01*
X4653976Y6973214D01*
X4670341Y6989580D01*
X4681914Y7009624D01*
X4687904Y7031979D01*
Y7055124D01*
X4681914Y7077480D01*
X4670341Y7097524D01*
X4653976Y7113889D01*
X4633932Y7125461D01*
X4611576Y7131452D01*
D02*
G37*
G36*
X4865576Y7004452D02*
X4842432D01*
X4820076Y6998461D01*
X4800032Y6986889D01*
X4783667Y6970524D01*
X4772094Y6950480D01*
X4766104Y6928124D01*
Y6904979D01*
X4772094Y6882624D01*
X4783667Y6862580D01*
X4800032Y6846214D01*
X4820076Y6834642D01*
X4842432Y6828652D01*
X4865576D01*
X4887932Y6834642D01*
X4907976Y6846214D01*
X4924341Y6862580D01*
X4935914Y6882624D01*
X4941904Y6904979D01*
Y6928124D01*
X4935914Y6950480D01*
X4924341Y6970524D01*
X4907976Y6986889D01*
X4887932Y6998461D01*
X4865576Y7004452D01*
D02*
G37*
G36*
X6678454Y6792500D02*
X6661546D01*
X6645926Y6786030D01*
X6633970Y6774074D01*
X6627500Y6758454D01*
Y6741546D01*
X6633970Y6725926D01*
X6645926Y6713970D01*
X6661546Y6707500D01*
X6678454D01*
X6694074Y6713970D01*
X6706030Y6725926D01*
X6712500Y6741546D01*
Y6758454D01*
X6706030Y6774074D01*
X6694074Y6786030D01*
X6678454Y6792500D01*
D02*
G37*
G36*
X4611576Y6877452D02*
X4588432D01*
X4566076Y6871461D01*
X4546032Y6859889D01*
X4529667Y6843524D01*
X4518094Y6823480D01*
X4512104Y6801124D01*
Y6777979D01*
X4518094Y6755624D01*
X4529667Y6735580D01*
X4546032Y6719214D01*
X4566076Y6707642D01*
X4588432Y6701652D01*
X4611576D01*
X4633932Y6707642D01*
X4653976Y6719214D01*
X4670341Y6735580D01*
X4681914Y6755624D01*
X4687904Y6777979D01*
Y6801124D01*
X4681914Y6823480D01*
X4670341Y6843524D01*
X4653976Y6859889D01*
X4633932Y6871461D01*
X4611576Y6877452D01*
D02*
G37*
G36*
X6188454Y6782500D02*
X6171546D01*
X6155926Y6776030D01*
X6143970Y6764074D01*
X6137500Y6748454D01*
Y6731546D01*
X6143970Y6715926D01*
X6155926Y6703970D01*
X6171546Y6697500D01*
X6188454D01*
X6204074Y6703970D01*
X6216030Y6715926D01*
X6222500Y6731546D01*
Y6748454D01*
X6216030Y6764074D01*
X6204074Y6776030D01*
X6188454Y6782500D01*
D02*
G37*
G36*
X4947304Y6755852D02*
X4866704D01*
Y6675252D01*
X4947304D01*
Y6755852D01*
D02*
G37*
G36*
X4841304D02*
X4760704D01*
Y6675252D01*
X4841304D01*
Y6755852D01*
D02*
G37*
G36*
X7095954Y6708500D02*
X7079047D01*
X7063426Y6702030D01*
X7051471Y6690074D01*
X7045000Y6674454D01*
Y6657546D01*
X7051471Y6641926D01*
X7063426Y6629970D01*
X7079047Y6623500D01*
X7095954D01*
X7111574Y6629970D01*
X7123530Y6641926D01*
X7130000Y6657546D01*
Y6674454D01*
X7123530Y6690074D01*
X7111574Y6702030D01*
X7095954Y6708500D01*
D02*
G37*
G36*
X4841304Y6649852D02*
X4760704D01*
Y6594951D01*
X4745704Y6588737D01*
X4733870Y6600571D01*
X4711638Y6613407D01*
X4686840Y6620052D01*
X4661168D01*
X4636370Y6613407D01*
X4614138Y6600571D01*
X4595985Y6582418D01*
X4583149Y6560185D01*
X4576504Y6535388D01*
Y6509715D01*
X4583149Y6484918D01*
X4595985Y6462685D01*
X4614138Y6444532D01*
X4636370Y6431696D01*
X4661168Y6425052D01*
X4686840D01*
X4711638Y6431696D01*
X4733870Y6444532D01*
X4752024Y6462685D01*
X4764859Y6484918D01*
X4771504Y6509715D01*
Y6535388D01*
X4766449Y6554251D01*
X4774102Y6567118D01*
X4776945Y6569252D01*
X4841304D01*
Y6649852D01*
D02*
G37*
G36*
X4947304D02*
X4866704D01*
Y6569252D01*
X4947304D01*
Y6649852D01*
D02*
G37*
G36*
X5388454Y6652500D02*
X5371546D01*
X5355926Y6646030D01*
X5343970Y6634074D01*
X5337500Y6618454D01*
Y6601546D01*
X5343970Y6585926D01*
X5355926Y6573970D01*
X5371546Y6567500D01*
X5388454D01*
X5404074Y6573970D01*
X5416030Y6585926D01*
X5422500Y6601546D01*
Y6618454D01*
X5416030Y6634074D01*
X5404074Y6646030D01*
X5388454Y6652500D01*
D02*
G37*
G36*
X7095954Y6581500D02*
X7079047D01*
X7063426Y6575030D01*
X7051471Y6563074D01*
X7045000Y6547454D01*
Y6530546D01*
X7051471Y6514926D01*
X7063426Y6502970D01*
X7079047Y6496500D01*
X7095954D01*
X7111574Y6502970D01*
X7123530Y6514926D01*
X7130000Y6530546D01*
Y6547454D01*
X7123530Y6563074D01*
X7111574Y6575030D01*
X7095954Y6581500D01*
D02*
G37*
G36*
X5868454Y6512500D02*
X5851546D01*
X5835926Y6506030D01*
X5823970Y6494074D01*
X5817500Y6478454D01*
Y6461546D01*
X5823970Y6445926D01*
X5835926Y6433970D01*
X5851546Y6427500D01*
X5868454D01*
X5884074Y6433970D01*
X5896030Y6445926D01*
X5902500Y6461546D01*
Y6478454D01*
X5896030Y6494074D01*
X5884074Y6506030D01*
X5868454Y6512500D01*
D02*
G37*
G36*
X7095954Y6454500D02*
X7079047D01*
X7063426Y6448030D01*
X7051471Y6436074D01*
X7045000Y6420454D01*
Y6403546D01*
X7051471Y6387926D01*
X7063426Y6375970D01*
X7079047Y6369500D01*
X7095954D01*
X7111574Y6375970D01*
X7123530Y6387926D01*
X7130000Y6403546D01*
Y6420454D01*
X7123530Y6436074D01*
X7111574Y6448030D01*
X7095954Y6454500D01*
D02*
G37*
G36*
X6918454Y6422500D02*
X6901546D01*
X6885926Y6416030D01*
X6873970Y6404074D01*
X6867500Y6388454D01*
Y6371546D01*
X6873970Y6355926D01*
X6885926Y6343970D01*
X6901546Y6337500D01*
X6918454D01*
X6934074Y6343970D01*
X6946030Y6355926D01*
X6952500Y6371546D01*
Y6388454D01*
X6946030Y6404074D01*
X6934074Y6416030D01*
X6918454Y6422500D01*
D02*
G37*
G36*
X5945952Y6415001D02*
X5929045D01*
X5913424Y6408530D01*
X5901469Y6396575D01*
X5894999Y6380954D01*
Y6364047D01*
X5901469Y6348427D01*
X5913424Y6336471D01*
X5929045Y6330001D01*
X5945952D01*
X5961573Y6336471D01*
X5973528Y6348427D01*
X5979998Y6364047D01*
Y6380954D01*
X5973528Y6396575D01*
X5961573Y6408530D01*
X5945952Y6415001D01*
D02*
G37*
G36*
X6108454Y6372500D02*
X6091546D01*
X6075926Y6366030D01*
X6063970Y6354074D01*
X6057500Y6338454D01*
Y6321546D01*
X6063970Y6305926D01*
X6075926Y6293970D01*
X6091546Y6287500D01*
X6108454D01*
X6124074Y6293970D01*
X6136030Y6305926D01*
X6142500Y6321546D01*
Y6338454D01*
X6136030Y6354074D01*
X6124074Y6366030D01*
X6108454Y6372500D01*
D02*
G37*
G36*
X6258454Y6359801D02*
X6241546D01*
X6225926Y6353330D01*
X6213970Y6341375D01*
X6207500Y6325754D01*
Y6308847D01*
X6213970Y6293227D01*
X6225926Y6281271D01*
X6241546Y6274801D01*
X6258454D01*
X6274074Y6281271D01*
X6286030Y6293227D01*
X6292500Y6308847D01*
Y6325754D01*
X6286030Y6341375D01*
X6274074Y6353330D01*
X6258454Y6359801D01*
D02*
G37*
G36*
X5620954Y6236532D02*
X5604046D01*
X5588426Y6230062D01*
X5576470Y6218106D01*
X5570000Y6202486D01*
Y6185579D01*
X5576470Y6169958D01*
X5588426Y6158003D01*
X5604046Y6151533D01*
X5620954D01*
X5636574Y6158003D01*
X5648530Y6169958D01*
X5655000Y6185579D01*
Y6202486D01*
X5648530Y6218106D01*
X5636574Y6230062D01*
X5620954Y6236532D01*
D02*
G37*
G36*
X5135621Y6054084D02*
Y6020199D01*
X5169507D01*
X5163529Y6034632D01*
X5150054Y6048106D01*
X5135621Y6054084D01*
D02*
G37*
G36*
X5110221D02*
X5095788Y6048106D01*
X5082314Y6034632D01*
X5076335Y6020199D01*
X5110221D01*
Y6054084D01*
D02*
G37*
G36*
X5616797Y6094156D02*
X5599890D01*
X5584270Y6087686D01*
X5572314Y6075731D01*
X5565844Y6060110D01*
Y6043203D01*
X5572314Y6027582D01*
X5584270Y6015627D01*
X5599890Y6009157D01*
X5616797D01*
X5632418Y6015627D01*
X5644373Y6027582D01*
X5650843Y6043203D01*
Y6060110D01*
X5644373Y6075731D01*
X5632418Y6087686D01*
X5616797Y6094156D01*
D02*
G37*
G36*
X5169507Y5994799D02*
X5135621D01*
Y5960913D01*
X5150054Y5966891D01*
X5163529Y5980365D01*
X5169507Y5994799D01*
D02*
G37*
G36*
X5110221D02*
X5076335D01*
X5082314Y5980365D01*
X5095788Y5966891D01*
X5110221Y5960913D01*
Y5994799D01*
D02*
G37*
G36*
X6323254Y6112500D02*
X6306346D01*
X6290726Y6106030D01*
X6278770Y6094074D01*
X6272300Y6078454D01*
Y6061546D01*
X6278770Y6045926D01*
X6284928Y6039768D01*
X6290334Y6033038D01*
X6284928Y6020170D01*
X6281702Y6016944D01*
X6275232Y6001324D01*
Y5984416D01*
X6281702Y5968796D01*
X6293658Y5956840D01*
X6309278Y5950370D01*
X6326186D01*
X6341806Y5956840D01*
X6353762Y5968796D01*
X6360232Y5984416D01*
Y6001324D01*
X6353762Y6016944D01*
X6347604Y6023102D01*
X6342198Y6029832D01*
X6347604Y6042700D01*
X6350830Y6045926D01*
X6357300Y6061546D01*
Y6078454D01*
X6350830Y6094074D01*
X6338874Y6106030D01*
X6323254Y6112500D01*
D02*
G37*
G36*
X4825954Y6012500D02*
X4809047D01*
X4793426Y6006030D01*
X4781470Y5994074D01*
X4775000Y5978454D01*
Y5961546D01*
X4781470Y5945926D01*
X4793426Y5933970D01*
X4809047Y5927500D01*
X4825954D01*
X4841574Y5933970D01*
X4853530Y5945926D01*
X4860000Y5961546D01*
Y5978454D01*
X4853530Y5994074D01*
X4841574Y6006030D01*
X4825954Y6012500D01*
D02*
G37*
G36*
X6480950Y5952502D02*
X6464043D01*
X6448423Y5946032D01*
X6436467Y5934077D01*
X6429997Y5918456D01*
Y5901549D01*
X6436467Y5885929D01*
X6448423Y5873973D01*
X6464043Y5867503D01*
X6480950D01*
X6496571Y5873973D01*
X6508526Y5885929D01*
X6514997Y5901549D01*
Y5918456D01*
X6508526Y5934077D01*
X6496571Y5946032D01*
X6480950Y5952502D01*
D02*
G37*
G36*
X6328454Y5872500D02*
X6311546D01*
X6295926Y5866030D01*
X6283970Y5854074D01*
X6277500Y5838454D01*
Y5821546D01*
X6283970Y5805926D01*
X6290097Y5799799D01*
X6294245Y5790000D01*
X6290097Y5780201D01*
X6283970Y5774074D01*
X6277500Y5758454D01*
Y5741546D01*
X6283970Y5725926D01*
X6295926Y5713970D01*
X6311546Y5707500D01*
X6328454D01*
X6344074Y5713970D01*
X6356030Y5725926D01*
X6362500Y5741546D01*
Y5758454D01*
X6356030Y5774074D01*
X6349903Y5780201D01*
X6345755Y5790000D01*
X6349903Y5799799D01*
X6356030Y5805926D01*
X6362500Y5821546D01*
Y5838454D01*
X6356030Y5854074D01*
X6344074Y5866030D01*
X6328454Y5872500D01*
D02*
G37*
G36*
X5226376Y5780001D02*
X5209469D01*
X5193848Y5773531D01*
X5181893Y5761576D01*
X5175422Y5745955D01*
Y5729048D01*
X5181893Y5713427D01*
X5193848Y5701472D01*
X5209469Y5695002D01*
X5226376D01*
X5241996Y5701472D01*
X5253952Y5713427D01*
X5260422Y5729048D01*
Y5745955D01*
X5253952Y5761576D01*
X5241996Y5773531D01*
X5226376Y5780001D01*
D02*
G37*
G36*
X6108454Y5532500D02*
X6091546D01*
X6075926Y5526030D01*
X6063970Y5514074D01*
X6057500Y5498454D01*
Y5481546D01*
X6063970Y5465926D01*
X6075926Y5453970D01*
X6091546Y5447500D01*
X6108454D01*
X6124074Y5453970D01*
X6136030Y5465926D01*
X6142500Y5481546D01*
Y5498454D01*
X6136030Y5514074D01*
X6124074Y5526030D01*
X6108454Y5532500D01*
D02*
G37*
G36*
X5628454Y5522500D02*
X5611546D01*
X5595926Y5516030D01*
X5583970Y5504074D01*
X5577500Y5488454D01*
Y5471546D01*
X5583970Y5455926D01*
X5595926Y5443970D01*
X5611546Y5437500D01*
X5628454D01*
X5644074Y5443970D01*
X5656030Y5455926D01*
X5662500Y5471546D01*
Y5488454D01*
X5656030Y5504074D01*
X5644074Y5516030D01*
X5628454Y5522500D01*
D02*
G37*
G36*
X5205885Y5263990D02*
X5188978D01*
X5173358Y5257520D01*
X5161402Y5245564D01*
X5154932Y5229944D01*
Y5213037D01*
X5161402Y5197416D01*
X5173358Y5185461D01*
X5188978Y5178990D01*
X5205885D01*
X5221506Y5185461D01*
X5233461Y5197416D01*
X5239932Y5213037D01*
Y5229944D01*
X5233461Y5245564D01*
X5221506Y5257520D01*
X5205885Y5263990D01*
D02*
G37*
G36*
X5938454Y5202500D02*
X5921546D01*
X5905926Y5196030D01*
X5893970Y5184074D01*
X5887500Y5168454D01*
Y5151546D01*
X5893970Y5135926D01*
X5905926Y5123970D01*
X5921546Y5117500D01*
X5938454D01*
X5954074Y5123970D01*
X5966030Y5135926D01*
X5972500Y5151546D01*
Y5168454D01*
X5966030Y5184074D01*
X5954074Y5196030D01*
X5938454Y5202500D01*
D02*
G37*
G36*
X6128454Y5042502D02*
X6111546D01*
X6095926Y5036032D01*
X6083970Y5024077D01*
X6077500Y5008456D01*
Y4991549D01*
X6083970Y4975928D01*
X6095926Y4963973D01*
X6111546Y4957503D01*
X6128454D01*
X6144074Y4963973D01*
X6156030Y4975928D01*
X6162500Y4991549D01*
Y5008456D01*
X6156030Y5024077D01*
X6144074Y5036032D01*
X6128454Y5042502D01*
D02*
G37*
G36*
X4612697Y4797188D02*
Y4716699D01*
X4693185D01*
X4686939Y4740013D01*
X4674655Y4761288D01*
X4657284Y4778659D01*
X4636009Y4790942D01*
X4612697Y4797188D01*
D02*
G37*
G36*
X4587297D02*
X4563984Y4790942D01*
X4542709Y4778659D01*
X4525338Y4761288D01*
X4513055Y4740013D01*
X4506808Y4716699D01*
X4587297D01*
Y4797188D01*
D02*
G37*
G36*
X4693185Y4691299D02*
X4612697D01*
Y4610812D01*
X4636009Y4617058D01*
X4657284Y4629341D01*
X4674655Y4646712D01*
X4686939Y4667987D01*
X4693185Y4691299D01*
D02*
G37*
G36*
X4587297D02*
X4506808D01*
X4513055Y4667987D01*
X4525338Y4646712D01*
X4542709Y4629341D01*
X4563984Y4617058D01*
X4587297Y4610812D01*
Y4691299D01*
D02*
G37*
G36*
X4865569Y4664900D02*
X4842424D01*
X4820069Y4658910D01*
X4800025Y4647337D01*
X4783659Y4630972D01*
X4772087Y4610928D01*
X4766097Y4588572D01*
Y4565428D01*
X4772087Y4543072D01*
X4783659Y4523028D01*
X4800025Y4506663D01*
X4820069Y4495090D01*
X4842424Y4489100D01*
X4865569D01*
X4887925Y4495090D01*
X4907969Y4506663D01*
X4924334Y4523028D01*
X4935906Y4543072D01*
X4941897Y4565428D01*
Y4588572D01*
X4935906Y4610928D01*
X4924334Y4630972D01*
X4907969Y4647337D01*
X4887925Y4658910D01*
X4865569Y4664900D01*
D02*
G37*
G36*
X4611569Y4537900D02*
X4588424D01*
X4566069Y4531910D01*
X4546025Y4520337D01*
X4529659Y4503972D01*
X4518087Y4483928D01*
X4512097Y4461572D01*
Y4438428D01*
X4518087Y4416072D01*
X4529659Y4396028D01*
X4546025Y4379663D01*
X4566069Y4368090D01*
X4588424Y4362100D01*
X4611569D01*
X4633925Y4368090D01*
X4653969Y4379663D01*
X4670334Y4396028D01*
X4681906Y4416072D01*
X4687897Y4438428D01*
Y4461572D01*
X4681906Y4483928D01*
X4670334Y4503972D01*
X4653969Y4520337D01*
X4633925Y4531910D01*
X4611569Y4537900D01*
D02*
G37*
G36*
X4941897Y4410900D02*
X4766097D01*
Y4248478D01*
X4755220Y4244143D01*
X4751097Y4243786D01*
X4733863Y4261019D01*
X4711630Y4273855D01*
X4686833Y4280500D01*
X4661161D01*
X4636363Y4273855D01*
X4614130Y4261019D01*
X4595977Y4242866D01*
X4583141Y4220634D01*
X4576497Y4195836D01*
Y4170164D01*
X4583141Y4145366D01*
X4595977Y4123134D01*
X4614130Y4104981D01*
X4636363Y4092145D01*
X4661161Y4085500D01*
X4686833D01*
X4711630Y4092145D01*
X4733863Y4104981D01*
X4752016Y4123134D01*
X4764852Y4145366D01*
X4771497Y4170164D01*
Y4195836D01*
X4764852Y4220633D01*
X4773821Y4235100D01*
X4941897D01*
Y4410900D01*
D02*
G37*
G36*
X6173301Y8893302D02*
X6092701D01*
Y8812701D01*
X6173301D01*
Y8893302D01*
D02*
G37*
G36*
X6067301D02*
X5986701D01*
Y8812701D01*
X6067301D01*
Y8893302D01*
D02*
G37*
G36*
X6714699Y8893187D02*
Y8812698D01*
X6795188D01*
X6788941Y8836012D01*
X6776658Y8857287D01*
X6759287Y8874658D01*
X6738012Y8886941D01*
X6714699Y8893187D01*
D02*
G37*
G36*
X6689299Y8893187D02*
X6665987Y8886941D01*
X6644712Y8874658D01*
X6627341Y8857287D01*
X6615058Y8836012D01*
X6608811Y8812698D01*
X6689299D01*
Y8893187D01*
D02*
G37*
G36*
X9133454Y8892500D02*
X9116546D01*
X9100926Y8886030D01*
X9088970Y8874074D01*
X9082500Y8858454D01*
Y8841546D01*
X9088970Y8825926D01*
X9100926Y8813970D01*
X9116546Y8807500D01*
X9133454D01*
X9149074Y8813970D01*
X9161030Y8825926D01*
X9167500Y8841546D01*
Y8858454D01*
X9161030Y8874074D01*
X9149074Y8886030D01*
X9133454Y8892500D01*
D02*
G37*
G36*
X9033454D02*
X9016546D01*
X9000926Y8886030D01*
X8988970Y8874074D01*
X8982500Y8858454D01*
Y8841546D01*
X8988970Y8825926D01*
X9000926Y8813970D01*
X9016546Y8807500D01*
X9033454D01*
X9049074Y8813970D01*
X9061030Y8825926D01*
X9067500Y8841546D01*
Y8858454D01*
X9061030Y8874074D01*
X9049074Y8886030D01*
X9033454Y8892500D01*
D02*
G37*
G36*
X8933454D02*
X8916546D01*
X8900926Y8886030D01*
X8888970Y8874074D01*
X8882500Y8858454D01*
Y8841546D01*
X8888970Y8825926D01*
X8900926Y8813970D01*
X8916546Y8807500D01*
X8933454D01*
X8949074Y8813970D01*
X8961030Y8825926D01*
X8967500Y8841546D01*
Y8858454D01*
X8961030Y8874074D01*
X8949074Y8886030D01*
X8933454Y8892500D01*
D02*
G37*
G36*
X8833454D02*
X8816546D01*
X8800926Y8886030D01*
X8788970Y8874074D01*
X8782500Y8858454D01*
Y8841546D01*
X8788970Y8825926D01*
X8800926Y8813970D01*
X8816546Y8807500D01*
X8833454D01*
X8849074Y8813970D01*
X8861030Y8825926D01*
X8867500Y8841546D01*
Y8858454D01*
X8861030Y8874074D01*
X8849074Y8886030D01*
X8833454Y8892500D01*
D02*
G37*
G36*
X5837574Y8887902D02*
X5814429D01*
X5792073Y8881912D01*
X5772029Y8870339D01*
X5755664Y8853974D01*
X5744092Y8833930D01*
X5738101Y8811574D01*
Y8788430D01*
X5744092Y8766074D01*
X5755664Y8746030D01*
X5772029Y8729665D01*
X5792073Y8718092D01*
X5814429Y8712102D01*
X5837574D01*
X5859929Y8718092D01*
X5879973Y8729665D01*
X5896339Y8746030D01*
X5907911Y8766074D01*
X5913901Y8788430D01*
Y8811574D01*
X5907911Y8833930D01*
X5896339Y8853974D01*
X5879973Y8870339D01*
X5859929Y8881912D01*
X5837574Y8887902D01*
D02*
G37*
G36*
X6967572Y8887899D02*
X6944427D01*
X6922071Y8881909D01*
X6902028Y8870336D01*
X6885662Y8853971D01*
X6874090Y8833927D01*
X6868100Y8811571D01*
Y8788427D01*
X6874090Y8766071D01*
X6885662Y8746027D01*
X6902028Y8729661D01*
X6922071Y8718089D01*
X6944427Y8712099D01*
X6967572D01*
X6989928Y8718089D01*
X7009972Y8729661D01*
X7026337Y8746027D01*
X7037909Y8766071D01*
X7043900Y8788427D01*
Y8811571D01*
X7037909Y8833927D01*
X7026337Y8853971D01*
X7009972Y8870336D01*
X6989928Y8881909D01*
X6967572Y8887899D01*
D02*
G37*
G36*
X9133454Y8792500D02*
X9116546D01*
X9100926Y8786030D01*
X9088970Y8774074D01*
X9082500Y8758454D01*
Y8741546D01*
X9088970Y8725926D01*
X9100926Y8713970D01*
X9116546Y8707500D01*
X9133454D01*
X9149074Y8713970D01*
X9161030Y8725926D01*
X9167500Y8741546D01*
Y8758454D01*
X9161030Y8774074D01*
X9149074Y8786030D01*
X9133454Y8792500D01*
D02*
G37*
G36*
X9033454D02*
X9016546D01*
X9000926Y8786030D01*
X8988970Y8774074D01*
X8982500Y8758454D01*
Y8741546D01*
X8988970Y8725926D01*
X9000926Y8713970D01*
X9016546Y8707500D01*
X9033454D01*
X9049074Y8713970D01*
X9061030Y8725926D01*
X9067500Y8741546D01*
Y8758454D01*
X9061030Y8774074D01*
X9049074Y8786030D01*
X9033454Y8792500D01*
D02*
G37*
G36*
X8933454D02*
X8916546D01*
X8900926Y8786030D01*
X8888970Y8774074D01*
X8882500Y8758454D01*
Y8741546D01*
X8888970Y8725926D01*
X8900926Y8713970D01*
X8916546Y8707500D01*
X8933454D01*
X8949074Y8713970D01*
X8961030Y8725926D01*
X8967500Y8741546D01*
Y8758454D01*
X8961030Y8774074D01*
X8949074Y8786030D01*
X8933454Y8792500D01*
D02*
G37*
G36*
X8833454D02*
X8816546D01*
X8800926Y8786030D01*
X8788970Y8774074D01*
X8782500Y8758454D01*
Y8741546D01*
X8788970Y8725926D01*
X8800926Y8713970D01*
X8816546Y8707500D01*
X8833454D01*
X8849074Y8713970D01*
X8861030Y8725926D01*
X8867500Y8741546D01*
Y8758454D01*
X8861030Y8774074D01*
X8849074Y8786030D01*
X8833454Y8792500D01*
D02*
G37*
G36*
X6689299Y8787298D02*
X6608811D01*
X6615058Y8763986D01*
X6627341Y8742711D01*
X6644712Y8725340D01*
X6665987Y8713057D01*
X6689299Y8706811D01*
Y8787298D01*
D02*
G37*
G36*
X6795188D02*
X6714699D01*
Y8706810D01*
X6738012Y8713057D01*
X6759287Y8725340D01*
X6776658Y8742711D01*
X6788941Y8763986D01*
X6795188Y8787298D01*
D02*
G37*
G36*
X6067301Y8787301D02*
X5986701D01*
Y8706702D01*
X6067301D01*
Y8787301D01*
D02*
G37*
G36*
X9133454Y8692500D02*
X9116546D01*
X9100926Y8686030D01*
X9088970Y8674074D01*
X9082500Y8658454D01*
Y8641546D01*
X9088970Y8625926D01*
X9100926Y8613970D01*
X9116546Y8607500D01*
X9133454D01*
X9149074Y8613970D01*
X9161030Y8625926D01*
X9167500Y8641546D01*
Y8658454D01*
X9161030Y8674074D01*
X9149074Y8686030D01*
X9133454Y8692500D01*
D02*
G37*
G36*
X9033454D02*
X9016546D01*
X9000926Y8686030D01*
X8988970Y8674074D01*
X8982500Y8658454D01*
Y8641546D01*
X8988970Y8625926D01*
X9000926Y8613970D01*
X9016546Y8607500D01*
X9033454D01*
X9049074Y8613970D01*
X9061030Y8625926D01*
X9067500Y8641546D01*
Y8658454D01*
X9061030Y8674074D01*
X9049074Y8686030D01*
X9033454Y8692500D01*
D02*
G37*
G36*
X8933454D02*
X8916546D01*
X8900926Y8686030D01*
X8888970Y8674074D01*
X8882500Y8658454D01*
Y8641546D01*
X8888970Y8625926D01*
X8900926Y8613970D01*
X8916546Y8607500D01*
X8933454D01*
X8949074Y8613970D01*
X8961030Y8625926D01*
X8967500Y8641546D01*
Y8658454D01*
X8961030Y8674074D01*
X8949074Y8686030D01*
X8933454Y8692500D01*
D02*
G37*
G36*
X8833454D02*
X8816546D01*
X8800926Y8686030D01*
X8788970Y8674074D01*
X8782500Y8658454D01*
Y8641546D01*
X8788970Y8625926D01*
X8800926Y8613970D01*
X8816546Y8607500D01*
X8833454D01*
X8849074Y8613970D01*
X8861030Y8625926D01*
X8867500Y8641546D01*
Y8658454D01*
X8861030Y8674074D01*
X8849074Y8686030D01*
X8833454Y8692500D01*
D02*
G37*
G36*
X7095699Y8639187D02*
Y8558698D01*
X7176188D01*
X7169941Y8582012D01*
X7157658Y8603287D01*
X7140287Y8620658D01*
X7119012Y8632941D01*
X7095699Y8639187D01*
D02*
G37*
G36*
X7070299Y8639187D02*
X7046987Y8632941D01*
X7025712Y8620658D01*
X7008341Y8603287D01*
X6996058Y8582012D01*
X6989811Y8558698D01*
X7070299D01*
Y8639187D01*
D02*
G37*
G36*
X6173301Y8787301D02*
X6092701D01*
Y8706702D01*
X6147602D01*
X6153815Y8691702D01*
X6141982Y8679868D01*
X6129146Y8657636D01*
X6122501Y8632838D01*
Y8607166D01*
X6129146Y8582368D01*
X6141982Y8560136D01*
X6160135Y8541983D01*
X6182368Y8529147D01*
X6207165Y8522502D01*
X6232837D01*
X6257635Y8529147D01*
X6279868Y8541983D01*
X6298021Y8560136D01*
X6310857Y8582368D01*
X6317501Y8607166D01*
Y8632838D01*
X6310857Y8657636D01*
X6298021Y8679868D01*
X6279868Y8698021D01*
X6257635Y8710857D01*
X6232837Y8717502D01*
X6207165D01*
X6188302Y8712447D01*
X6175435Y8720100D01*
X6173301Y8722943D01*
Y8787301D01*
D02*
G37*
G36*
X7297900Y8887899D02*
X7122100D01*
Y8712099D01*
X7284521D01*
X7288856Y8701222D01*
X7289214Y8697099D01*
X7271980Y8679865D01*
X7259144Y8657633D01*
X7252500Y8632835D01*
Y8607163D01*
X7259144Y8582365D01*
X7271980Y8560133D01*
X7290133Y8541980D01*
X7312366Y8529144D01*
X7337163Y8522499D01*
X7362836D01*
X7387633Y8529144D01*
X7409866Y8541980D01*
X7428019Y8560133D01*
X7440855Y8582365D01*
X7447499Y8607163D01*
Y8632835D01*
X7440855Y8657633D01*
X7428019Y8679865D01*
X7409866Y8698018D01*
X7387633Y8710854D01*
X7362836Y8717499D01*
X7337163D01*
X7312366Y8710854D01*
X7297900Y8719823D01*
Y8887899D01*
D02*
G37*
G36*
X9133454Y8592500D02*
X9116546D01*
X9100926Y8586030D01*
X9088970Y8574074D01*
X9082500Y8558454D01*
Y8541546D01*
X9088970Y8525926D01*
X9100926Y8513970D01*
X9116546Y8507500D01*
X9133454D01*
X9149074Y8513970D01*
X9161030Y8525926D01*
X9167500Y8541546D01*
Y8558454D01*
X9161030Y8574074D01*
X9149074Y8586030D01*
X9133454Y8592500D01*
D02*
G37*
G36*
X9033454D02*
X9016546D01*
X9000926Y8586030D01*
X8988970Y8574074D01*
X8982500Y8558454D01*
Y8541546D01*
X8988970Y8525926D01*
X9000926Y8513970D01*
X9016546Y8507500D01*
X9033454D01*
X9049074Y8513970D01*
X9061030Y8525926D01*
X9067500Y8541546D01*
Y8558454D01*
X9061030Y8574074D01*
X9049074Y8586030D01*
X9033454Y8592500D01*
D02*
G37*
G36*
X8933454D02*
X8916546D01*
X8900926Y8586030D01*
X8888970Y8574074D01*
X8882500Y8558454D01*
Y8541546D01*
X8888970Y8525926D01*
X8900926Y8513970D01*
X8916546Y8507500D01*
X8933454D01*
X8949074Y8513970D01*
X8961030Y8525926D01*
X8967500Y8541546D01*
Y8558454D01*
X8961030Y8574074D01*
X8949074Y8586030D01*
X8933454Y8592500D01*
D02*
G37*
G36*
X8833454D02*
X8816546D01*
X8800926Y8586030D01*
X8788970Y8574074D01*
X8782500Y8558454D01*
Y8541546D01*
X8788970Y8525926D01*
X8800926Y8513970D01*
X8816546Y8507500D01*
X8833454D01*
X8849074Y8513970D01*
X8861030Y8525926D01*
X8867500Y8541546D01*
Y8558454D01*
X8861030Y8574074D01*
X8849074Y8586030D01*
X8833454Y8592500D01*
D02*
G37*
G36*
X5964574Y8633902D02*
X5941429D01*
X5919073Y8627912D01*
X5899029Y8616339D01*
X5882664Y8599974D01*
X5871092Y8579930D01*
X5865101Y8557574D01*
Y8534430D01*
X5871092Y8512074D01*
X5882664Y8492030D01*
X5899029Y8475665D01*
X5919073Y8464092D01*
X5941429Y8458102D01*
X5964574D01*
X5986929Y8464092D01*
X6006973Y8475665D01*
X6023339Y8492030D01*
X6034911Y8512074D01*
X6040901Y8534430D01*
Y8557574D01*
X6034911Y8579930D01*
X6023339Y8599974D01*
X6006973Y8616339D01*
X5986929Y8627912D01*
X5964574Y8633902D01*
D02*
G37*
G36*
X5710574D02*
X5687429D01*
X5665073Y8627912D01*
X5645029Y8616339D01*
X5628664Y8599974D01*
X5617092Y8579930D01*
X5611101Y8557574D01*
Y8534430D01*
X5617092Y8512074D01*
X5628664Y8492030D01*
X5645029Y8475665D01*
X5665073Y8464092D01*
X5687429Y8458102D01*
X5710574D01*
X5732929Y8464092D01*
X5752973Y8475665D01*
X5769339Y8492030D01*
X5780911Y8512074D01*
X5786901Y8534430D01*
Y8557574D01*
X5780911Y8579930D01*
X5769339Y8599974D01*
X5752973Y8616339D01*
X5732929Y8627912D01*
X5710574Y8633902D01*
D02*
G37*
G36*
X6840572Y8633899D02*
X6817427D01*
X6795072Y8627909D01*
X6775028Y8616336D01*
X6758662Y8599971D01*
X6747090Y8579927D01*
X6741100Y8557571D01*
Y8534427D01*
X6747090Y8512071D01*
X6758662Y8492027D01*
X6775028Y8475661D01*
X6795072Y8464089D01*
X6817427Y8458099D01*
X6840572D01*
X6862928Y8464089D01*
X6882972Y8475661D01*
X6899337Y8492027D01*
X6910909Y8512071D01*
X6916900Y8534427D01*
Y8557571D01*
X6910909Y8579927D01*
X6899337Y8599971D01*
X6882972Y8616336D01*
X6862928Y8627909D01*
X6840572Y8633899D01*
D02*
G37*
G36*
X6586572D02*
X6563427D01*
X6541071Y8627909D01*
X6521028Y8616336D01*
X6504662Y8599971D01*
X6493090Y8579927D01*
X6487100Y8557571D01*
Y8534427D01*
X6493090Y8512071D01*
X6504662Y8492027D01*
X6521028Y8475661D01*
X6541071Y8464089D01*
X6563427Y8458099D01*
X6586572D01*
X6608928Y8464089D01*
X6628972Y8475661D01*
X6645337Y8492027D01*
X6656909Y8512071D01*
X6662900Y8534427D01*
Y8557571D01*
X6656909Y8579927D01*
X6645337Y8599971D01*
X6628972Y8616336D01*
X6608928Y8627909D01*
X6586572Y8633899D01*
D02*
G37*
G36*
X7070299Y8533298D02*
X6989811D01*
X6996058Y8509986D01*
X7008341Y8488711D01*
X7025712Y8471340D01*
X7046987Y8459057D01*
X7070299Y8452811D01*
Y8533298D01*
D02*
G37*
G36*
X7176188D02*
X7095699D01*
Y8452810D01*
X7119012Y8459057D01*
X7140287Y8471340D01*
X7157658Y8488711D01*
X7169941Y8509986D01*
X7176188Y8533298D01*
D02*
G37*
G36*
X9133454Y8492500D02*
X9116546D01*
X9100926Y8486030D01*
X9088970Y8474074D01*
X9082500Y8458454D01*
Y8441546D01*
X9088970Y8425926D01*
X9100926Y8413970D01*
X9116546Y8407500D01*
X9133454D01*
X9149074Y8413970D01*
X9161030Y8425926D01*
X9167500Y8441546D01*
Y8458454D01*
X9161030Y8474074D01*
X9149074Y8486030D01*
X9133454Y8492500D01*
D02*
G37*
G36*
X9033454D02*
X9016546D01*
X9000926Y8486030D01*
X8988970Y8474074D01*
X8982500Y8458454D01*
Y8441546D01*
X8988970Y8425926D01*
X9000926Y8413970D01*
X9016546Y8407500D01*
X9033454D01*
X9049074Y8413970D01*
X9061030Y8425926D01*
X9067500Y8441546D01*
Y8458454D01*
X9061030Y8474074D01*
X9049074Y8486030D01*
X9033454Y8492500D01*
D02*
G37*
G36*
X8833454D02*
X8816546D01*
X8800926Y8486030D01*
X8788970Y8474074D01*
X8782500Y8458454D01*
Y8441546D01*
X8788970Y8425926D01*
X8800926Y8413970D01*
X8816546Y8407500D01*
X8833454D01*
X8849074Y8413970D01*
X8861030Y8425926D01*
X8867500Y8441546D01*
Y8458454D01*
X8861030Y8474074D01*
X8849074Y8486030D01*
X8833454Y8492500D01*
D02*
G37*
G36*
X8933454Y8492500D02*
X8916546D01*
X8900926Y8486030D01*
X8888970Y8474074D01*
X8882500Y8458453D01*
Y8441546D01*
X8888970Y8425926D01*
X8900926Y8413970D01*
X8916546Y8407500D01*
X8933454D01*
X8949074Y8413970D01*
X8961030Y8425926D01*
X8967500Y8441546D01*
Y8458453D01*
X8961030Y8474074D01*
X8949074Y8486030D01*
X8933454Y8492500D01*
D02*
G37*
G36*
X5886204Y8276320D02*
X5869297D01*
X5853676Y8269850D01*
X5841721Y8257894D01*
X5835250Y8242274D01*
Y8225366D01*
X5841721Y8209746D01*
X5853676Y8197790D01*
X5869297Y8191320D01*
X5886204D01*
X5901824Y8197790D01*
X5913780Y8209746D01*
X5920250Y8225366D01*
Y8242274D01*
X5913780Y8257894D01*
X5901824Y8269850D01*
X5886204Y8276320D01*
D02*
G37*
G36*
X9233454Y8150000D02*
X9216546D01*
X9200926Y8143530D01*
X9191250Y8133854D01*
X9181574Y8143530D01*
X9165954Y8150000D01*
X9149046D01*
X9133426Y8143530D01*
X9121470Y8131574D01*
X9115000Y8115954D01*
Y8099046D01*
X9121470Y8083426D01*
X9133426Y8071470D01*
X9149046Y8065000D01*
X9165954D01*
X9181574Y8071470D01*
X9191250Y8081146D01*
X9200926Y8071470D01*
X9216546Y8065000D01*
X9233454D01*
X9249074Y8071470D01*
X9261030Y8083426D01*
X9267500Y8099046D01*
Y8115954D01*
X9261030Y8131574D01*
X9249074Y8143530D01*
X9233454Y8150000D01*
D02*
G37*
G36*
X6648454Y8112500D02*
X6631546D01*
X6615926Y8106030D01*
X6603970Y8094074D01*
X6597500Y8078454D01*
Y8061546D01*
X6603970Y8045926D01*
X6615926Y8033970D01*
X6631546Y8027500D01*
X6648454D01*
X6664074Y8033970D01*
X6676030Y8045926D01*
X6682500Y8061546D01*
Y8078454D01*
X6676030Y8094074D01*
X6664074Y8106030D01*
X6648454Y8112500D01*
D02*
G37*
G36*
X9233883Y8034418D02*
X9216976D01*
X9201356Y8027948D01*
X9191756Y8018348D01*
X9182156Y8027948D01*
X9166535Y8034418D01*
X9149628D01*
X9134007Y8027948D01*
X9122052Y8015993D01*
X9115582Y8000372D01*
Y7983465D01*
X9122052Y7967844D01*
X9134007Y7955889D01*
X9149628Y7949419D01*
X9166535D01*
X9182156Y7955889D01*
X9191756Y7965489D01*
X9201356Y7955889D01*
X9216976Y7949419D01*
X9233883D01*
X9249504Y7955889D01*
X9261460Y7967844D01*
X9267930Y7983465D01*
Y8000372D01*
X9261460Y8015993D01*
X9249504Y8027948D01*
X9233883Y8034418D01*
D02*
G37*
G36*
X7596326Y7934651D02*
X7579419D01*
X7563798Y7928180D01*
X7555047Y7919429D01*
X7548131Y7916787D01*
X7536565Y7918538D01*
X7529074Y7926030D01*
X7513454Y7932500D01*
X7496546D01*
X7480926Y7926030D01*
X7468970Y7914074D01*
X7462500Y7898454D01*
Y7881546D01*
X7468970Y7865926D01*
X7480926Y7853970D01*
X7496546Y7847500D01*
X7513454D01*
X7529074Y7853970D01*
X7537825Y7862721D01*
X7544742Y7865364D01*
X7556307Y7863612D01*
X7563798Y7856121D01*
X7579419Y7849651D01*
X7596326D01*
X7611947Y7856121D01*
X7623902Y7868077D01*
X7630372Y7883697D01*
Y7900604D01*
X7623902Y7916225D01*
X7611947Y7928180D01*
X7596326Y7934651D01*
D02*
G37*
G36*
X7599606Y7824224D02*
X7582699D01*
X7567079Y7817754D01*
X7555123Y7805798D01*
X7553337Y7801487D01*
X7537101D01*
X7536030Y7804074D01*
X7524074Y7816030D01*
X7508454Y7822500D01*
X7491546D01*
X7475926Y7816030D01*
X7463970Y7804074D01*
X7457500Y7788454D01*
Y7771546D01*
X7463970Y7755926D01*
X7475926Y7743970D01*
X7491546Y7737500D01*
X7508454D01*
X7524074Y7743970D01*
X7536030Y7755926D01*
X7537816Y7760237D01*
X7554051D01*
X7555123Y7757650D01*
X7567079Y7745695D01*
X7582699Y7739225D01*
X7599606D01*
X7615227Y7745695D01*
X7627182Y7757650D01*
X7633652Y7773271D01*
Y7790178D01*
X7627182Y7805798D01*
X7615227Y7817754D01*
X7599606Y7824224D01*
D02*
G37*
G36*
X9117301Y7234750D02*
Y7200864D01*
X9151186D01*
X9145208Y7215297D01*
X9131734Y7228772D01*
X9117301Y7234750D01*
D02*
G37*
G36*
X9091901D02*
X9077467Y7228772D01*
X9063993Y7215297D01*
X9058015Y7200864D01*
X9091901D01*
Y7234750D01*
D02*
G37*
G36*
X9151186Y7175464D02*
X9117301D01*
Y7141579D01*
X9131734Y7147557D01*
X9145208Y7161031D01*
X9151186Y7175464D01*
D02*
G37*
G36*
X9091901D02*
X9058015D01*
X9063993Y7161031D01*
X9077467Y7147557D01*
X9091901Y7141579D01*
Y7175464D01*
D02*
G37*
G36*
X9122298Y7110997D02*
Y7077111D01*
X9156184D01*
X9150205Y7091544D01*
X9136731Y7105019D01*
X9122298Y7110997D01*
D02*
G37*
G36*
X9096898D02*
X9082465Y7105019D01*
X9068990Y7091544D01*
X9063012Y7077111D01*
X9096898D01*
Y7110997D01*
D02*
G37*
G36*
X9156184Y7051711D02*
X9122298D01*
Y7017825D01*
X9136731Y7023804D01*
X9150205Y7037278D01*
X9156184Y7051711D01*
D02*
G37*
G36*
X9096898D02*
X9063012D01*
X9068990Y7037278D01*
X9082465Y7023804D01*
X9096898Y7017825D01*
Y7051711D01*
D02*
G37*
G36*
X9117301Y6984751D02*
Y6950865D01*
X9151186D01*
X9145208Y6965298D01*
X9131734Y6978772D01*
X9117301Y6984751D01*
D02*
G37*
G36*
X9091901D02*
X9077467Y6978772D01*
X9063993Y6965298D01*
X9058015Y6950865D01*
X9091901D01*
Y6984751D01*
D02*
G37*
G36*
X9151186Y6925465D02*
X9117301D01*
Y6891579D01*
X9131734Y6897557D01*
X9145208Y6911032D01*
X9151186Y6925465D01*
D02*
G37*
G36*
X9091901D02*
X9058015D01*
X9063993Y6911032D01*
X9077467Y6897557D01*
X9091901Y6891579D01*
Y6925465D01*
D02*
G37*
G36*
X7888454Y6962923D02*
X7871546D01*
X7855926Y6956453D01*
X7843970Y6944498D01*
X7837500Y6928877D01*
Y6911970D01*
X7843970Y6896349D01*
X7855926Y6884394D01*
X7871546Y6877924D01*
X7888454D01*
X7904074Y6884394D01*
X7916030Y6896349D01*
X7922500Y6911970D01*
Y6928877D01*
X7916030Y6944498D01*
X7904074Y6956453D01*
X7888454Y6962923D01*
D02*
G37*
G36*
X8933454Y7242740D02*
X8916547D01*
X8900926Y7236270D01*
X8888971Y7224314D01*
X8882501Y7208694D01*
Y7191787D01*
X8888971Y7176166D01*
X8898935Y7166203D01*
X8888971Y7156239D01*
X8882501Y7140618D01*
Y7123711D01*
X8888971Y7108090D01*
X8900861Y7096201D01*
X8888971Y7084311D01*
X8882501Y7068690D01*
Y7051783D01*
X8888971Y7036162D01*
X8899898Y7025235D01*
X8888971Y7014308D01*
X8882501Y6998688D01*
Y6981781D01*
X8888971Y6966160D01*
X8900827Y6954304D01*
X8888971Y6942448D01*
X8882501Y6926828D01*
Y6909920D01*
X8888971Y6894300D01*
X8900926Y6882344D01*
X8916547Y6875874D01*
X8933454D01*
X8949075Y6882344D01*
X8961030Y6894300D01*
X8967500Y6909920D01*
Y6926828D01*
X8961030Y6942448D01*
X8949174Y6954304D01*
X8961030Y6966160D01*
X8967500Y6981781D01*
Y6998688D01*
X8961030Y7014308D01*
X8950103Y7025235D01*
X8961030Y7036162D01*
X8967500Y7051783D01*
Y7068690D01*
X8961030Y7084311D01*
X8949140Y7096201D01*
X8961030Y7108090D01*
X8967500Y7123711D01*
Y7140618D01*
X8961030Y7156239D01*
X8951066Y7166203D01*
X8961030Y7176166D01*
X8967500Y7191787D01*
Y7208694D01*
X8961030Y7224314D01*
X8949075Y7236270D01*
X8933454Y7242740D01*
D02*
G37*
G36*
X7888454Y6202500D02*
X7871546D01*
X7855926Y6196030D01*
X7843970Y6184074D01*
X7837500Y6168454D01*
Y6151546D01*
X7843970Y6135926D01*
X7855926Y6123970D01*
X7871546Y6117500D01*
X7888454D01*
X7904074Y6123970D01*
X7916030Y6135926D01*
X7922500Y6151546D01*
Y6168454D01*
X7916030Y6184074D01*
X7904074Y6196030D01*
X7888454Y6202500D01*
D02*
G37*
G36*
X9124179Y6019287D02*
Y5985402D01*
X9158065D01*
X9152087Y5999835D01*
X9138612Y6013309D01*
X9124179Y6019287D01*
D02*
G37*
G36*
X9098779D02*
X9084346Y6013309D01*
X9070872Y5999835D01*
X9064893Y5985402D01*
X9098779D01*
Y6019287D01*
D02*
G37*
G36*
X9158065Y5960002D02*
X9064893D01*
X9070872Y5945568D01*
X9084346Y5932094D01*
X9097405Y5926685D01*
X9101951Y5924801D01*
X9101052Y5910174D01*
X9091953Y5910174D01*
X9074347Y5902882D01*
X9060873Y5889407D01*
X9054895Y5874974D01*
X9148066D01*
X9142088Y5889407D01*
X9128613Y5902882D01*
X9115554Y5908291D01*
X9111009Y5910174D01*
X9111907Y5924801D01*
X9121007Y5924802D01*
X9138612Y5932094D01*
X9152087Y5945568D01*
X9158065Y5960002D01*
D02*
G37*
G36*
X9148066Y5849574D02*
X9114180D01*
Y5815688D01*
X9128613Y5821667D01*
X9142088Y5835141D01*
X9148066Y5849574D01*
D02*
G37*
G36*
X9088780D02*
X9054895D01*
X9060873Y5835141D01*
X9074347Y5821667D01*
X9088780Y5815688D01*
Y5849574D01*
D02*
G37*
G36*
X7888454Y5862073D02*
X7871546D01*
X7855926Y5855603D01*
X7843970Y5843647D01*
X7837500Y5828027D01*
Y5811120D01*
X7843970Y5795499D01*
X7855926Y5783544D01*
X7871546Y5777074D01*
X7888454D01*
X7904074Y5783544D01*
X7916030Y5795499D01*
X7922500Y5811120D01*
Y5828027D01*
X7916030Y5843647D01*
X7904074Y5855603D01*
X7888454Y5862073D01*
D02*
G37*
G36*
X9124179Y5794287D02*
Y5760401D01*
X9158065D01*
X9152087Y5774835D01*
X9138612Y5788309D01*
X9124179Y5794287D01*
D02*
G37*
G36*
X9098779D02*
X9084346Y5788309D01*
X9070872Y5774835D01*
X9064893Y5760401D01*
X9098779D01*
Y5794287D01*
D02*
G37*
G36*
X9158065Y5735001D02*
X9124179D01*
Y5701116D01*
X9138612Y5707094D01*
X9152087Y5720568D01*
X9158065Y5735001D01*
D02*
G37*
G36*
X9098779D02*
X9064893D01*
X9070872Y5720568D01*
X9084346Y5707094D01*
X9098779Y5701116D01*
Y5735001D01*
D02*
G37*
G36*
X8924333Y6034644D02*
X8907425D01*
X8891805Y6028173D01*
X8879849Y6016218D01*
X8873379Y6000597D01*
Y5983690D01*
X8879849Y5968070D01*
X8889125Y5958794D01*
X8879849Y5949517D01*
X8873379Y5933897D01*
Y5916990D01*
X8879849Y5901369D01*
X8886805Y5894413D01*
X8879849Y5887458D01*
X8873379Y5871837D01*
Y5854930D01*
X8879849Y5839309D01*
X8888545Y5830614D01*
X8879849Y5821918D01*
X8873379Y5806298D01*
Y5789390D01*
X8879849Y5773770D01*
X8888835Y5764784D01*
X8879849Y5755798D01*
X8873379Y5740177D01*
Y5723270D01*
X8879849Y5707649D01*
X8891805Y5695694D01*
X8907425Y5689224D01*
X8924333D01*
X8939953Y5695694D01*
X8951909Y5707649D01*
X8958379Y5723270D01*
Y5740177D01*
X8951909Y5755798D01*
X8942923Y5764784D01*
X8951909Y5773770D01*
X8958379Y5789390D01*
Y5806298D01*
X8951909Y5821918D01*
X8943213Y5830614D01*
X8951909Y5839309D01*
X8958379Y5854930D01*
Y5871837D01*
X8951909Y5887458D01*
X8944953Y5894413D01*
X8951909Y5901369D01*
X8958379Y5916990D01*
Y5933897D01*
X8951909Y5949517D01*
X8942633Y5958794D01*
X8951909Y5968070D01*
X8958379Y5983690D01*
Y6000597D01*
X8951909Y6016218D01*
X8939953Y6028173D01*
X8924333Y6034644D01*
D02*
G37*
G36*
X7888454Y5092500D02*
X7871546D01*
X7855926Y5086030D01*
X7843970Y5074074D01*
X7837500Y5058454D01*
Y5041546D01*
X7843970Y5025926D01*
X7855926Y5013970D01*
X7871546Y5007500D01*
X7888454D01*
X7904074Y5013970D01*
X7916030Y5025926D01*
X7922500Y5041546D01*
Y5058454D01*
X7916030Y5074074D01*
X7904074Y5086030D01*
X7888454Y5092500D01*
D02*
G37*
G36*
X9121847Y4841160D02*
Y4807274D01*
X9155733D01*
X9149755Y4821707D01*
X9136280Y4835182D01*
X9121847Y4841160D01*
D02*
G37*
G36*
X9096447D02*
X9082014Y4835182D01*
X9068540Y4821707D01*
X9062562Y4807274D01*
X9096447D01*
Y4841160D01*
D02*
G37*
G36*
X9155733Y4781874D02*
X9121847D01*
Y4747988D01*
X9136280Y4753967D01*
X9149755Y4767441D01*
X9155733Y4781874D01*
D02*
G37*
G36*
X9096447D02*
X9062562D01*
X9068540Y4767441D01*
X9082014Y4753967D01*
X9096447Y4747988D01*
Y4781874D01*
D02*
G37*
G36*
X9121262Y4720312D02*
Y4686426D01*
X9155148D01*
X9149169Y4700859D01*
X9135695Y4714333D01*
X9121262Y4720312D01*
D02*
G37*
G36*
X9095862D02*
X9081429Y4714333D01*
X9067954Y4700859D01*
X9061976Y4686426D01*
X9095862D01*
Y4720312D01*
D02*
G37*
G36*
X9155148Y4661026D02*
X9121262D01*
Y4627140D01*
X9135695Y4633118D01*
X9149169Y4646593D01*
X9155148Y4661026D01*
D02*
G37*
G36*
X9095862D02*
X9061976D01*
X9067954Y4646593D01*
X9081429Y4633118D01*
X9095862Y4627140D01*
Y4661026D01*
D02*
G37*
G36*
X9121847Y4591160D02*
Y4557274D01*
X9155733D01*
X9149755Y4571707D01*
X9136280Y4585182D01*
X9121847Y4591160D01*
D02*
G37*
G36*
X9096447D02*
X9082014Y4585182D01*
X9068540Y4571707D01*
X9062562Y4557274D01*
X9096447D01*
Y4591160D01*
D02*
G37*
G36*
X9155733Y4531874D02*
X9121847D01*
Y4497988D01*
X9136280Y4503967D01*
X9149755Y4517441D01*
X9155733Y4531874D01*
D02*
G37*
G36*
X9096447D02*
X9062562D01*
X9068540Y4517441D01*
X9082014Y4503967D01*
X9096447Y4497988D01*
Y4531874D01*
D02*
G37*
G36*
X8931954Y4848803D02*
X8915047D01*
X8899426Y4842333D01*
X8887471Y4830377D01*
X8881001Y4814757D01*
Y4797850D01*
X8887471Y4782229D01*
X8896797Y4772903D01*
X8887471Y4763577D01*
X8881001Y4747957D01*
Y4731050D01*
X8887471Y4715429D01*
X8896309Y4706591D01*
X8887518Y4697800D01*
X8881048Y4682179D01*
Y4665272D01*
X8887518Y4649652D01*
X8889952Y4647218D01*
X8899166Y4637371D01*
X8889952Y4627619D01*
X8887471Y4625138D01*
X8881001Y4609517D01*
Y4592610D01*
X8887471Y4576990D01*
X8895777Y4568683D01*
X8887471Y4560376D01*
X8881001Y4544755D01*
Y4527848D01*
X8887471Y4512228D01*
X8899426Y4500272D01*
X8915047Y4493802D01*
X8931954D01*
X8947574Y4500272D01*
X8959530Y4512228D01*
X8966000Y4527848D01*
Y4544755D01*
X8959530Y4560376D01*
X8951223Y4568683D01*
X8959530Y4576990D01*
X8966000Y4592610D01*
Y4609517D01*
X8959530Y4625138D01*
X8957096Y4627572D01*
X8947882Y4637418D01*
X8957096Y4647171D01*
X8959577Y4649652D01*
X8966047Y4665272D01*
Y4682179D01*
X8959577Y4697800D01*
X8950739Y4706638D01*
X8959530Y4715429D01*
X8966000Y4731050D01*
Y4747957D01*
X8959530Y4763577D01*
X8950204Y4772903D01*
X8959530Y4782229D01*
X8966000Y4797850D01*
Y4814757D01*
X8959530Y4830377D01*
X8947574Y4842333D01*
X8931954Y4848803D01*
D02*
G37*
%LPD*%
D40*
X4550000Y6170000D02*
D03*
Y5510000D02*
D03*
D41*
X4850000Y8396002D02*
D03*
X4853997Y4323000D02*
D03*
X4850001Y7526277D02*
D03*
X4854004Y6662552D02*
D03*
D42*
X4596000Y8523002D02*
D03*
X4850000Y8650002D02*
D03*
X4596000Y8777002D02*
D03*
X5699001Y8546002D02*
D03*
X5826001Y8800002D02*
D03*
X5953001Y8546002D02*
D03*
X4599997Y4704000D02*
D03*
X4853997Y4577000D02*
D03*
X4599997Y4450000D02*
D03*
X7083000Y8545999D02*
D03*
X6956000Y8799999D02*
D03*
X6829000Y8545999D02*
D03*
X6702000Y8799999D02*
D03*
X6575000Y8545999D02*
D03*
X4596001Y7907277D02*
D03*
X4850001Y7780277D02*
D03*
X4596001Y7653277D02*
D03*
X4600004Y7043552D02*
D03*
X4854004Y6916552D02*
D03*
X4600004Y6789552D02*
D03*
D43*
X4670001Y8256002D02*
D03*
X6220001Y8620002D02*
D03*
X4673997Y4183000D02*
D03*
X7350000Y8619999D02*
D03*
X4670001Y7386277D02*
D03*
X4674004Y6522552D02*
D03*
D44*
X6080001Y8800002D02*
D03*
X7210000Y8799999D02*
D03*
D45*
X5400000Y8000000D02*
D03*
X7400000Y4400000D02*
D03*
D46*
X9225430Y7991918D02*
D03*
X9158082D02*
D03*
X7660000Y5920000D02*
D03*
X7880427Y5664999D02*
D03*
X7880424Y6764999D02*
D03*
X8759164Y7437070D02*
D03*
X6700000Y8160000D02*
D03*
X8800000Y7640000D02*
D03*
X8400000Y6220000D02*
D03*
X8843339Y5205664D02*
D03*
X8494232Y5487964D02*
D03*
X5197500Y5462500D02*
D03*
X5604799Y6470401D02*
D03*
X7130000Y7720000D02*
D03*
X9080000Y7750000D02*
D03*
X8440000Y7417500D02*
D03*
X7359800Y7574195D02*
D03*
X9167500Y8327500D02*
D03*
Y8240000D02*
D03*
X9225000Y8107500D02*
D03*
X9157500D02*
D03*
X9255000Y8327500D02*
D03*
X6560000Y6220000D02*
D03*
X6317732Y5992870D02*
D03*
X7087500Y5945000D02*
D03*
X5380000Y6610000D02*
D03*
X5230000Y6870000D02*
D03*
X5800000Y6230000D02*
D03*
X5860000Y6470000D02*
D03*
X5937498Y6372501D02*
D03*
X5750000Y6850000D02*
D03*
X4497500Y8022500D02*
D03*
X6100000Y5490000D02*
D03*
X5930000Y5160000D02*
D03*
X6820000Y6460000D02*
D03*
X6902500Y6147500D02*
D03*
X6910000Y6380000D02*
D03*
X6670000Y6750000D02*
D03*
X6180000Y6740000D02*
D03*
X5608344Y6051656D02*
D03*
X5530000Y7000000D02*
D03*
X5302500Y7295000D02*
D03*
X5850000Y5870000D02*
D03*
X4817500Y5970000D02*
D03*
X5217922Y5737502D02*
D03*
X5122921Y6007499D02*
D03*
X4817757Y5643978D02*
D03*
X9257500Y8240000D02*
D03*
X8198998Y8733134D02*
D03*
X8190000Y8600000D02*
D03*
X8400000Y8860000D02*
D03*
X8330000D02*
D03*
X8120000Y8600000D02*
D03*
X8260000D02*
D03*
X8400000D02*
D03*
X8330000D02*
D03*
X8260000Y8860000D02*
D03*
X8190000D02*
D03*
X8640000Y6540000D02*
D03*
X8850000D02*
D03*
X8635000Y5302500D02*
D03*
X8350937Y7829449D02*
D03*
X7220000Y8100000D02*
D03*
X6866615Y5543069D02*
D03*
X4563314Y5399946D02*
D03*
X5197500Y4950000D02*
D03*
X6030158Y8346124D02*
D03*
X5095807Y6367602D02*
D03*
X4820000Y6380000D02*
D03*
X6120000Y5000002D02*
D03*
X8360000Y5660000D02*
D03*
X8370000Y6540000D02*
D03*
X7500000Y7780000D02*
D03*
X7505000Y7890000D02*
D03*
X7587873Y7892151D02*
D03*
X8080000Y7830000D02*
D03*
X5877750Y8233820D02*
D03*
X9300000Y8680000D02*
D03*
X5680000Y8130000D02*
D03*
X6310000Y8360000D02*
D03*
X7130000Y8240000D02*
D03*
X7260000Y8450000D02*
D03*
X7910424Y8650000D02*
D03*
X7650002D02*
D03*
X8120000Y8860000D02*
D03*
X8080000Y8070000D02*
D03*
X7600000Y7100000D02*
D03*
X7535000Y7375000D02*
D03*
X8367105Y6804412D02*
D03*
X8850000Y6390000D02*
D03*
X8630000Y6400000D02*
D03*
X8815000Y4202500D02*
D03*
X8432500Y4877500D02*
D03*
X7855000Y4320000D02*
D03*
X8840826Y5360245D02*
D03*
X7662500Y4827500D02*
D03*
X8425000Y4465000D02*
D03*
X8470000Y5070000D02*
D03*
X4775000Y8865000D02*
D03*
X6865000Y4330000D02*
D03*
X7080000Y4800000D02*
D03*
X6237500Y4842500D02*
D03*
X5930000Y4440000D02*
D03*
X5610000D02*
D03*
X5105000Y4307500D02*
D03*
X6770000Y7270000D02*
D03*
X4570000Y6380000D02*
D03*
X5910000Y6220000D02*
D03*
X4697431Y5711490D02*
D03*
X5930000Y4850000D02*
D03*
X5460000D02*
D03*
X4855838Y5162557D02*
D03*
X5027431Y5361490D02*
D03*
X6675000Y5457500D02*
D03*
X6472497Y5910003D02*
D03*
X5612500Y6194032D02*
D03*
X6314800Y6070000D02*
D03*
X7087500Y6666000D02*
D03*
Y6539000D02*
D03*
Y6412000D02*
D03*
X6030001Y7225720D02*
D03*
X5620000Y5480000D02*
D03*
X6320000Y5750000D02*
D03*
Y5830000D02*
D03*
X6250000Y6317301D02*
D03*
X6100000Y6330000D02*
D03*
X6770000Y6760000D02*
D03*
X6640000Y8070000D02*
D03*
X7880000Y5819573D02*
D03*
Y6920424D02*
D03*
Y5050000D02*
D03*
Y6160000D02*
D03*
X9101480Y5862274D02*
D03*
X9111479Y5747701D02*
D03*
X8915879Y5731724D02*
D03*
Y5797844D02*
D03*
X8925000Y7060237D02*
D03*
X9109598Y7064411D02*
D03*
X9104601Y6938165D02*
D03*
Y7188164D02*
D03*
X8925000Y7132165D02*
D03*
Y6990234D02*
D03*
Y7200240D02*
D03*
Y6918374D02*
D03*
X8923500Y4806303D02*
D03*
X9109147Y4544574D02*
D03*
Y4794574D02*
D03*
X8923500Y4601064D02*
D03*
Y4536302D02*
D03*
X9111479Y5972702D02*
D03*
X9108562Y4673726D02*
D03*
X8923500Y4739503D02*
D03*
X8923547Y4673726D02*
D03*
X8915879Y5863383D02*
D03*
Y5925443D02*
D03*
Y5992144D02*
D03*
X6270000Y5530000D02*
D03*
X7591153Y7781724D02*
D03*
X9025000Y8450000D02*
D03*
X8925000Y8850000D02*
D03*
X9025000Y8550000D02*
D03*
X9125000D02*
D03*
X8925000D02*
D03*
X8825000Y8450000D02*
D03*
X9025000Y8650000D02*
D03*
X9125000D02*
D03*
Y8450000D02*
D03*
X8825000Y8550000D02*
D03*
X9025000Y8850000D02*
D03*
X9125000Y8750000D02*
D03*
X8825000D02*
D03*
X8925000Y8450000D02*
D03*
X8825000Y8850000D02*
D03*
X8925000Y8750000D02*
D03*
Y8650000D02*
D03*
X9025000Y8750000D02*
D03*
X8825000Y8650000D02*
D03*
X9125000Y8850000D02*
D03*
X5197432Y5221490D02*
D03*
%TF.MD5,bdc872f95234a650047f55088dc758d9*%
M02*
