%TF.GenerationSoftware,Altium Limited,Altium Designer,22.9.1 (49)*%
G04 Layer_Color=65535*
%FSLAX45Y45*%
%MOMM*%
%TF.SameCoordinates,29712687-7F25-45B9-B314-6CDD0CF2420B*%
%TF.FilePolarity,Positive*%
%TF.FileFunction,Legend,Top*%
%TF.Part,Single*%
G01*
G75*
%TA.AperFunction,NonConductor*%
%ADD54C,0.25000*%
%ADD55C,0.20000*%
%ADD56C,0.25400*%
%ADD70C,0.60000*%
%ADD71C,0.12700*%
%ADD72C,0.15000*%
D54*
X8834575Y7985000D02*
G03*
X8834575Y7985000I-12500J0D01*
G01*
X5315424Y6007500D02*
G03*
X5315424Y6007500I-12500J0D01*
G01*
X6332499Y5587500D02*
G03*
X6332499Y5587500I-12500J0D01*
G01*
X7100000Y5897077D02*
G03*
X7100000Y5897077I-12500J0D01*
G01*
X8732100Y6934415D02*
G03*
X8732100Y6934415I-12500J0D01*
G01*
X8723980Y5732273D02*
G03*
X8723980Y5732273I-12500J0D01*
G01*
X8731063Y4543725D02*
G03*
X8731063Y4543725I-12500J0D01*
G01*
X7099998Y7005001D02*
G03*
X7099998Y7005001I-12500J0D01*
G01*
X5808000Y7443649D02*
G03*
X5808000Y7443649I-12500J0D01*
G01*
X4757580Y5316490D02*
G03*
X4757580Y5316490I-12500J0D01*
G01*
D55*
X4910000Y6040000D02*
G03*
X4910000Y6040000I-10000J0D01*
G01*
X5356000Y4516500D02*
G03*
X5356000Y4516500I-10000J0D01*
G01*
X9120430Y8096917D02*
Y8166914D01*
X9280430Y8096917D02*
Y8166914D01*
X8714374Y8239997D02*
X8739774D01*
X8714374Y8019998D02*
X8739774D01*
X8714374D02*
Y8239997D01*
X8739774Y8019998D02*
Y8239997D01*
X5450000Y6704999D02*
Y6774996D01*
X5610000Y6704999D02*
Y6774996D01*
X4972924Y5827499D02*
X5272923D01*
X4972924Y5917501D02*
X5272923D01*
X4972924Y5827499D02*
Y5917501D01*
X5272923Y5827499D02*
Y5917501D01*
X5587502Y6259999D02*
X6207500D01*
X5587502Y5640000D02*
X6207500D01*
X5587502D02*
Y6259999D01*
X6207500Y5640000D02*
Y6259999D01*
X7215001Y4867575D02*
X7535000D01*
X7215001Y5867573D02*
X7535000D01*
Y4867575D02*
Y5867573D01*
X7215001Y4867575D02*
Y5867573D01*
X5310000Y6570426D02*
Y6640426D01*
X5150000Y6570426D02*
Y6640426D01*
X7830424Y8614999D02*
Y8685002D01*
X7990423Y8614999D02*
Y8685002D01*
X7367875Y7902148D02*
X7437877D01*
X7367875Y8062148D02*
X7437877D01*
X7214998Y5975501D02*
Y6975499D01*
X7534997Y5975501D02*
Y6975499D01*
X7214998D02*
X7534997D01*
X7214998Y5975501D02*
X7534997D01*
X5824997Y7571146D02*
X6825000D01*
X5824997Y7891145D02*
X6825000D01*
X5824997Y7571146D02*
Y7891145D01*
X6825000Y7571146D02*
Y7891145D01*
X6001000Y4678499D02*
Y5021501D01*
X5349002Y4678499D02*
Y5021501D01*
X4835078Y4976492D02*
X4925080D01*
X4835078Y5296492D02*
X4925080D01*
Y4976492D02*
Y5296492D01*
X4835078Y4976492D02*
Y5296492D01*
X6482929Y5895004D02*
Y5965001D01*
X6642929Y5895004D02*
Y5965001D01*
X7367875Y7641722D02*
X7437877D01*
X7367875Y7801722D02*
X7437877D01*
X7570003Y8614999D02*
Y8685002D01*
X7730002Y8614999D02*
Y8685002D01*
X7367875Y8162574D02*
X7437877D01*
X7367875Y8322574D02*
X7437877D01*
D56*
X6065400Y4546183D02*
Y4698534D01*
X6141575D01*
X6166967Y4673142D01*
Y4622359D01*
X6141575Y4596967D01*
X6065400D01*
X6217751Y4647751D02*
Y4546183D01*
Y4596967D01*
X6243143Y4622359D01*
X6268534Y4647751D01*
X6293926D01*
X6395493Y4546183D02*
X6446277D01*
X6471669Y4571575D01*
Y4622359D01*
X6446277Y4647751D01*
X6395493D01*
X6370102Y4622359D01*
Y4571575D01*
X6395493Y4546183D01*
X6573236Y4495400D02*
X6598628D01*
X6624020Y4520792D01*
Y4647751D01*
X6547844D01*
X6522452Y4622359D01*
Y4571575D01*
X6547844Y4546183D01*
X6624020D01*
X9329467Y6635400D02*
X9227900D01*
X9329467Y6736967D01*
Y6762359D01*
X9304075Y6787751D01*
X9253292D01*
X9227900Y6762359D01*
X9326967Y5425400D02*
X9225400D01*
X9326967Y5526967D01*
Y5552359D01*
X9301575Y5577751D01*
X9250792D01*
X9225400Y5552359D01*
X9329467Y4235400D02*
X9227900D01*
X9329467Y4336967D01*
Y4362359D01*
X9304075Y4387751D01*
X9253292D01*
X9227900Y4362359D01*
X9242900Y4962900D02*
X9293683D01*
X9268292D01*
Y5115251D01*
X9242900Y5089859D01*
X9245400Y6160400D02*
X9296184D01*
X9270792D01*
Y6312751D01*
X9245400Y6287359D01*
X9250400Y7357900D02*
X9301184D01*
X9275792D01*
Y7510251D01*
X9250400Y7484859D01*
X8597702Y8853200D02*
X8699269D01*
X5032900Y4272751D02*
X5083684D01*
X5058292D01*
Y4120400D01*
X5032900D01*
X5083684D01*
X5159859D02*
Y4221967D01*
X5236034D01*
X5261426Y4196575D01*
Y4120400D01*
X5337601D02*
Y4247359D01*
Y4196575D01*
X5312210D01*
X5362993D01*
X5337601D01*
Y4247359D01*
X5362993Y4272751D01*
X5439168Y4221967D02*
Y4120400D01*
Y4171183D01*
X5464560Y4196575D01*
X5489952Y4221967D01*
X5515344D01*
X5616911D02*
X5667695D01*
X5693086Y4196575D01*
Y4120400D01*
X5616911D01*
X5591519Y4145792D01*
X5616911Y4171183D01*
X5693086D01*
X5527900Y8212900D02*
Y8365251D01*
X5578684Y8314467D01*
X5629467Y8365251D01*
Y8212900D01*
X5680251Y8365251D02*
X5781818D01*
X5731034D01*
Y8212900D01*
X6534467Y8342359D02*
X6509075Y8367751D01*
X6458292D01*
X6432900Y8342359D01*
Y8316967D01*
X6458292Y8291575D01*
X6509075D01*
X6534467Y8266183D01*
Y8240792D01*
X6509075Y8215400D01*
X6458292D01*
X6432900Y8240792D01*
X6661426Y8215400D02*
X6610643D01*
X6585251Y8240792D01*
Y8291575D01*
X6610643Y8316967D01*
X6661426D01*
X6686818Y8291575D01*
Y8266183D01*
X6585251D01*
X6737601Y8316967D02*
Y8215400D01*
Y8266183D01*
X6762993Y8291575D01*
X6788385Y8316967D01*
X6813777D01*
X6889952D02*
X6940736Y8215400D01*
X6991519Y8316967D01*
X7067695Y8215400D02*
X7118478D01*
X7143870Y8240792D01*
Y8291575D01*
X7118478Y8316967D01*
X7067695D01*
X7042303Y8291575D01*
Y8240792D01*
X7067695Y8215400D01*
X5020400Y6992900D02*
Y7145251D01*
X5071183Y7094467D01*
X5121967Y7145251D01*
Y6992900D01*
X5172751Y7119859D02*
X5198143Y7145251D01*
X5248926D01*
X5274318Y7119859D01*
Y7094467D01*
X5248926Y7069076D01*
X5223534D01*
X5248926D01*
X5274318Y7043684D01*
Y7018292D01*
X5248926Y6992900D01*
X5198143D01*
X5172751Y7018292D01*
X5032900Y7635400D02*
Y7787751D01*
X5083684Y7736967D01*
X5134467Y7787751D01*
Y7635400D01*
X5286818D02*
X5185251D01*
X5286818Y7736967D01*
Y7762359D01*
X5261426Y7787751D01*
X5210643D01*
X5185251Y7762359D01*
X5037900Y8280400D02*
Y8432751D01*
X5088683Y8381967D01*
X5139467Y8432751D01*
Y8280400D01*
X5190251D02*
X5241034D01*
X5215643D01*
Y8432751D01*
X5190251Y8407359D01*
X8391633Y6098899D02*
Y6251250D01*
X8442417Y6200466D01*
X8493200Y6251250D01*
Y6098899D01*
X8645551D02*
X8543984D01*
X8645551Y6200466D01*
Y6225858D01*
X8620159Y6251250D01*
X8569376D01*
X8543984Y6225858D01*
X8397900Y4907900D02*
Y5060251D01*
X8448683Y5009467D01*
X8499467Y5060251D01*
Y4907900D01*
X8550251Y5034859D02*
X8575642Y5060251D01*
X8626426D01*
X8651818Y5034859D01*
Y5009467D01*
X8626426Y4984075D01*
X8601034D01*
X8626426D01*
X8651818Y4958684D01*
Y4933292D01*
X8626426Y4907900D01*
X8575642D01*
X8550251Y4933292D01*
X8399748Y7309714D02*
Y7462065D01*
X8450531Y7411281D01*
X8501315Y7462065D01*
Y7309714D01*
X8552099D02*
X8602882D01*
X8577491D01*
Y7462065D01*
X8552099Y7436673D01*
X9247900Y8833683D02*
X9349467D01*
X9298683Y8884467D02*
Y8782900D01*
D70*
X6137499Y5740000D02*
G03*
X6137499Y5740000I-30000J0D01*
G01*
X7345000Y5767577D02*
G03*
X7345000Y5767577I-30000J0D01*
G01*
X7344998Y6875501D02*
G03*
X7344998Y6875501I-30000J0D01*
G01*
X5955000Y7671149D02*
G03*
X5955000Y7671149I-30000J0D01*
G01*
D71*
X4405000Y5460000D02*
Y6220000D01*
X4660000D02*
X4700000D01*
X4660000Y5460000D02*
X4700000D01*
X4410000Y6220000D02*
X4440000D01*
X4410000Y5460000D02*
X4440000D01*
X4780000Y8231502D02*
X4983000D01*
X4463000D02*
X4560001D01*
X4463000D02*
Y8938502D01*
X4983000D01*
Y8231502D02*
Y8938502D01*
X5537501Y8933002D02*
X6244501D01*
X5537501Y8413002D02*
Y8933002D01*
Y8413002D02*
X6244501D01*
Y8510002D01*
Y8730002D02*
Y8933002D01*
X4986997Y4158500D02*
Y4865500D01*
X4466997D02*
X4986997D01*
X4466997Y4158500D02*
Y4865500D01*
Y4158500D02*
X4563997D01*
X4783997D02*
X4986997D01*
X7377500Y8729999D02*
Y8932999D01*
Y8412999D02*
Y8509999D01*
X6407500Y8412999D02*
X7377500D01*
X6407500D02*
Y8932999D01*
X7377500D01*
X4983001Y7361777D02*
Y8068777D01*
X4463001D02*
X4983001D01*
X4463001Y7361777D02*
Y8068777D01*
Y7361777D02*
X4560001D01*
X4780001D02*
X4983001D01*
X4987004Y6498052D02*
Y7205052D01*
X4467004D02*
X4987004D01*
X4467004Y6498052D02*
Y7205052D01*
Y6498052D02*
X4564004D01*
X4784004D02*
X4987004D01*
D72*
X8699601Y6909415D02*
X8717102D01*
X8699601Y7219412D02*
X8717102D01*
X8699601Y7189415D02*
Y7219412D01*
Y6909415D02*
Y6939413D01*
X8691484Y5707273D02*
Y5737276D01*
Y5987273D02*
Y6017275D01*
X8708984D01*
X8691484Y5707273D02*
X8708984D01*
X8698565Y4518725D02*
Y4548727D01*
Y4798724D02*
Y4828727D01*
X8716066D01*
X8698565Y4518725D02*
X8716066D01*
%TF.MD5,e8fe7ec054d95e2cd516f97fe09897d2*%
M02*
