%TF.GenerationSoftware,Altium Limited,Altium Designer,22.9.1 (49)*%
G04 Layer_Color=32896*
%FSLAX45Y45*%
%MOMM*%
%TF.SameCoordinates,EA90029D-DDF1-4691-B258-B80E594B725E*%
%TF.FilePolarity,Positive*%
%TF.FileFunction,Legend,Bot*%
%TF.Part,Single*%
G01*
G75*
%TA.AperFunction,NonConductor*%
%ADD53C,0.10000*%
%ADD54C,0.25000*%
%ADD55C,0.20000*%
%ADD56C,0.25400*%
G36*
X7145326Y7702159D02*
X7153792Y7700748D01*
X7163668Y7697926D01*
X7173545Y7692282D01*
X7184833Y7686638D01*
X7194710Y7678172D01*
X7196121Y7676761D01*
X7198943Y7673939D01*
X7203176Y7668295D01*
X7208819Y7661241D01*
X7213052Y7651364D01*
X7217285Y7641487D01*
X7220107Y7628788D01*
X7221518Y7616090D01*
Y7614679D01*
Y7610446D01*
X7220107Y7604802D01*
Y7594925D01*
X7217285Y7583637D01*
X7214463Y7569528D01*
X7211641Y7551185D01*
X7205998Y7531431D01*
X7049380Y6897906D01*
Y6895084D01*
X7046558Y6888029D01*
X7043736Y6876741D01*
X7040914Y6862631D01*
X7036681Y6847111D01*
X7031037Y6831590D01*
X7026805Y6816069D01*
X7022572Y6803371D01*
Y6801960D01*
X7021161Y6799138D01*
X7018339Y6793494D01*
X7014106Y6786439D01*
X7004229Y6769507D01*
X6995763Y6759631D01*
X6987297Y6751165D01*
X6985886Y6749754D01*
X6983065Y6748343D01*
X6977421Y6744110D01*
X6968955Y6741288D01*
X6959078Y6737055D01*
X6946379Y6732822D01*
X6932270Y6731411D01*
X6915338Y6730000D01*
X6908283D01*
X6899817Y6731411D01*
X6889940Y6732822D01*
X6878653Y6735644D01*
X6867365Y6738466D01*
X6856077Y6744110D01*
X6844789Y6751165D01*
X6843378Y6752576D01*
X6840557Y6755398D01*
X6836324Y6759631D01*
X6830680Y6765275D01*
X6817981Y6780795D01*
X6808104Y6799138D01*
Y6800549D01*
X6806693Y6804782D01*
X6803871Y6811837D01*
X6801049Y6821713D01*
X6796816Y6834412D01*
X6792584Y6851344D01*
X6786940Y6871097D01*
X6779885Y6893673D01*
X6627500Y7459472D01*
X6473704Y6893673D01*
X6472293Y6890851D01*
X6470882Y6883796D01*
X6466649Y6872508D01*
X6463828Y6858399D01*
X6453951Y6828768D01*
X6448307Y6814658D01*
X6444074Y6801960D01*
Y6800549D01*
X6442663Y6797727D01*
X6439841Y6792083D01*
X6435608Y6785028D01*
X6431375Y6776562D01*
X6424320Y6768096D01*
X6417266Y6759631D01*
X6407389Y6751165D01*
X6405978Y6749754D01*
X6403156Y6748343D01*
X6397512Y6744110D01*
X6389046Y6741288D01*
X6379169Y6737055D01*
X6367882Y6732822D01*
X6353772Y6731411D01*
X6338251Y6730000D01*
X6332607D01*
X6325552Y6731411D01*
X6317087D01*
X6298744Y6735644D01*
X6278990Y6742699D01*
X6277580D01*
X6274758Y6745521D01*
X6266292Y6752576D01*
X6253593Y6763864D01*
X6242305Y6779384D01*
Y6780795D01*
X6239483Y6783617D01*
X6238072Y6789261D01*
X6233839Y6794905D01*
X6231018Y6803371D01*
X6226785Y6813247D01*
X6219730Y6835823D01*
Y6837234D01*
X6218319Y6841467D01*
X6216908Y6848522D01*
X6214086Y6856988D01*
X6209853Y6876741D01*
X6204209Y6897906D01*
X6047591Y7531431D01*
Y7534253D01*
X6044769Y7541308D01*
X6043358Y7551185D01*
X6040536Y7563884D01*
X6036303Y7590692D01*
X6033481Y7604802D01*
Y7616089D01*
Y7617500D01*
Y7621733D01*
X6034892Y7628788D01*
X6036303Y7637254D01*
X6039125Y7647131D01*
X6044769Y7658419D01*
X6050413Y7668295D01*
X6058879Y7678172D01*
X6060290Y7679583D01*
X6063112Y7682405D01*
X6068756Y7686638D01*
X6075811Y7690871D01*
X6085687Y7695104D01*
X6096975Y7699337D01*
X6108263Y7702159D01*
X6122373Y7703570D01*
X6130838D01*
X6139304Y7702159D01*
X6150592Y7699337D01*
X6161880Y7695104D01*
X6173167Y7689460D01*
X6183044Y7680994D01*
X6191510Y7669706D01*
X6192921Y7668295D01*
X6194332Y7664062D01*
X6198565Y7655597D01*
X6202798Y7644309D01*
X6207031Y7631610D01*
X6212675Y7614678D01*
X6218319Y7594925D01*
X6223962Y7572349D01*
X6346717Y7023482D01*
X6484992Y7537075D01*
X6486403Y7539897D01*
X6487814Y7546952D01*
X6490636Y7556829D01*
X6494869Y7570938D01*
X6499102Y7585048D01*
X6503334Y7600569D01*
X6507567Y7614678D01*
X6511800Y7627377D01*
Y7628788D01*
X6514622Y7633021D01*
X6517444Y7638665D01*
X6521677Y7645720D01*
X6534376Y7662651D01*
X6551307Y7680994D01*
X6552718Y7682405D01*
X6556951Y7685227D01*
X6562595Y7688049D01*
X6571061Y7692282D01*
X6582349Y7696515D01*
X6595048Y7700748D01*
X6610568Y7702159D01*
X6627500Y7703570D01*
X6635966D01*
X6644431Y7702159D01*
X6654308Y7700748D01*
X6667007Y7697926D01*
X6679706Y7693693D01*
X6690993Y7688049D01*
X6702281Y7679583D01*
X6703692Y7678172D01*
X6706514Y7675350D01*
X6710747Y7671117D01*
X6716391Y7664062D01*
X6729090Y7647131D01*
X6734734Y7637254D01*
X6738966Y7627377D01*
Y7625966D01*
X6740377Y7621733D01*
X6743199Y7616089D01*
X6747432Y7606213D01*
X6750254Y7593514D01*
X6755898Y7577993D01*
X6761542Y7559651D01*
X6767186Y7537075D01*
X6906872Y7023482D01*
X7029626Y7572349D01*
Y7573760D01*
X7031037Y7579404D01*
X7033859Y7587870D01*
X7035270Y7597747D01*
X7040914Y7618911D01*
X7043736Y7630199D01*
X7046558Y7640076D01*
Y7641487D01*
X7047969Y7644309D01*
X7050791Y7648542D01*
X7053613Y7654186D01*
X7062079Y7668295D01*
X7074777Y7683816D01*
X7076188Y7685227D01*
X7079010Y7686638D01*
X7083243Y7689460D01*
X7088887Y7693693D01*
X7097353Y7697926D01*
X7107230Y7700748D01*
X7118517Y7702159D01*
X7131216Y7703570D01*
X7138271D01*
X7145326Y7702159D01*
D02*
G37*
G36*
X7785906Y7702159D02*
X7798605D01*
X7814126Y7700748D01*
X7831057Y7697926D01*
X7847989Y7696515D01*
X7887496Y7689460D01*
X7929825Y7678172D01*
X7972154Y7662652D01*
X7993319Y7654186D01*
X8013072Y7642898D01*
X8014483D01*
X8017305Y7640076D01*
X8022949Y7637254D01*
X8030004Y7631610D01*
X8039881Y7625966D01*
X8049758Y7618912D01*
X8072333Y7599158D01*
X8099142Y7575172D01*
X8124539Y7546952D01*
X8149936Y7513089D01*
X8172512Y7473582D01*
Y7472171D01*
X8175334Y7469349D01*
X8178156Y7462294D01*
X8180978Y7453828D01*
X8185211Y7443951D01*
X8189444Y7431253D01*
X8195088Y7417143D01*
X8200732Y7400211D01*
X8204965Y7383280D01*
X8210608Y7363526D01*
X8214841Y7342361D01*
X8219074Y7319786D01*
X8224718Y7270402D01*
X8227540Y7216785D01*
Y7215374D01*
Y7212552D01*
Y7206908D01*
Y7198443D01*
X8226129Y7188566D01*
Y7177278D01*
X8224718Y7164579D01*
X8223307Y7151881D01*
X8220485Y7120839D01*
X8214841Y7086976D01*
X8207786Y7053113D01*
X8197910Y7019249D01*
Y7017838D01*
X8196499Y7015016D01*
X8195088Y7010784D01*
X8192266Y7003729D01*
X8189444Y6996674D01*
X8185211Y6988208D01*
X8175334Y6967043D01*
X8162635Y6941646D01*
X8148526Y6916249D01*
X8130183Y6889440D01*
X8109019Y6864043D01*
X8106197Y6861221D01*
X8099142Y6852755D01*
X8086443Y6841467D01*
X8068100Y6827357D01*
X8046936Y6810426D01*
X8022949Y6794905D01*
X7994730Y6777973D01*
X7963689Y6763864D01*
X7962278D01*
X7959456Y6762453D01*
X7955223Y6761042D01*
X7948168Y6758220D01*
X7939702Y6755398D01*
X7931236Y6752576D01*
X7919949Y6749754D01*
X7907250Y6746932D01*
X7877620Y6741288D01*
X7843756Y6735644D01*
X7807071Y6731411D01*
X7766153Y6730001D01*
X7747810D01*
X7737933Y6731411D01*
X7726646D01*
X7713947Y6732822D01*
X7699837Y6734233D01*
X7670207Y6738466D01*
X7636344Y6745521D01*
X7602480Y6753987D01*
X7568617Y6765275D01*
X7567206D01*
X7564384Y6766686D01*
X7560151Y6769508D01*
X7554507Y6772330D01*
X7537576Y6779384D01*
X7517822Y6790672D01*
X7493836Y6804782D01*
X7469849Y6823125D01*
X7445863Y6842878D01*
X7421876Y6865454D01*
Y6866865D01*
X7419054Y6868276D01*
X7411999Y6876741D01*
X7402123Y6890851D01*
X7389424Y6909194D01*
X7375314Y6931769D01*
X7361204Y6958578D01*
X7347095Y6988208D01*
X7334396Y7020660D01*
Y7022071D01*
X7332985Y7024893D01*
X7331574Y7030537D01*
X7330163Y7036181D01*
X7327341Y7044647D01*
X7324519Y7055935D01*
X7321697Y7067222D01*
X7320286Y7079921D01*
X7314642Y7109551D01*
X7308999Y7143415D01*
X7306177Y7178689D01*
X7304766Y7218196D01*
Y7219607D01*
Y7222429D01*
Y7229484D01*
Y7236539D01*
X7306177Y7246416D01*
Y7257703D01*
X7307588Y7270402D01*
X7308999Y7284512D01*
X7311821Y7314142D01*
X7317464Y7348005D01*
X7325930Y7383280D01*
X7335807Y7417143D01*
Y7418554D01*
X7337218Y7421376D01*
X7338629Y7425609D01*
X7341451Y7432664D01*
X7344273Y7439718D01*
X7348506Y7449595D01*
X7358383Y7470760D01*
X7371081Y7494746D01*
X7386602Y7521555D01*
X7404944Y7546952D01*
X7424698Y7572350D01*
X7426109Y7573761D01*
X7427520Y7575172D01*
X7435986Y7582226D01*
X7447273Y7594925D01*
X7465616Y7609035D01*
X7485370Y7624555D01*
X7510767Y7640076D01*
X7537575Y7655597D01*
X7568617Y7669707D01*
X7570028D01*
X7572850Y7671117D01*
X7577083Y7672528D01*
X7584137Y7675350D01*
X7591192Y7678172D01*
X7601069Y7680994D01*
X7612357Y7683816D01*
X7625056Y7686638D01*
X7653275Y7692282D01*
X7687138Y7697926D01*
X7722413Y7702159D01*
X7761920Y7703570D01*
X7776029D01*
X7785906Y7702159D01*
D02*
G37*
G36*
X5508601Y7702158D02*
X5521299D01*
X5536820Y7700747D01*
X5553752Y7697925D01*
X5570683Y7696514D01*
X5610190Y7689460D01*
X5652520Y7678172D01*
X5694849Y7662651D01*
X5716013Y7654185D01*
X5735767Y7642898D01*
X5737178D01*
X5740000Y7640076D01*
X5745644Y7637254D01*
X5752698Y7631610D01*
X5762575Y7625966D01*
X5772452Y7618911D01*
X5795028Y7599158D01*
X5821836Y7575171D01*
X5847233Y7546952D01*
X5872631Y7513089D01*
X5895206Y7473581D01*
Y7472170D01*
X5898029Y7469349D01*
X5900851Y7462294D01*
X5903672Y7453828D01*
X5907905Y7443951D01*
X5912138Y7431252D01*
X5917782Y7417143D01*
X5923426Y7400211D01*
X5927659Y7383279D01*
X5933303Y7363526D01*
X5937536Y7342361D01*
X5941769Y7319786D01*
X5947413Y7270402D01*
X5950234Y7216785D01*
Y7215374D01*
Y7212552D01*
Y7206908D01*
Y7198442D01*
X5948824Y7188566D01*
Y7177278D01*
X5947413Y7164579D01*
X5946002Y7151880D01*
X5943180Y7120839D01*
X5937536Y7086976D01*
X5930481Y7053112D01*
X5920604Y7019249D01*
Y7017838D01*
X5919193Y7015016D01*
X5917782Y7010783D01*
X5914960Y7003728D01*
X5912138Y6996674D01*
X5907905Y6988208D01*
X5898029Y6967043D01*
X5885330Y6941646D01*
X5871220Y6916248D01*
X5852878Y6889440D01*
X5831713Y6864042D01*
X5828891Y6861220D01*
X5821836Y6852755D01*
X5809137Y6841467D01*
X5790795Y6827357D01*
X5769630Y6810426D01*
X5745644Y6794905D01*
X5717424Y6777973D01*
X5686383Y6763863D01*
X5684972D01*
X5682150Y6762452D01*
X5677917Y6761041D01*
X5670862Y6758219D01*
X5662397Y6755397D01*
X5653931Y6752576D01*
X5642643Y6749754D01*
X5629944Y6746932D01*
X5600314Y6741288D01*
X5566451Y6735644D01*
X5529765Y6731411D01*
X5488847Y6730000D01*
X5470505D01*
X5460628Y6731411D01*
X5449340D01*
X5436641Y6732822D01*
X5422532Y6734233D01*
X5392901Y6738466D01*
X5359038Y6745521D01*
X5325175Y6753986D01*
X5291311Y6765274D01*
X5289901D01*
X5287079Y6766685D01*
X5282846Y6769507D01*
X5277202Y6772329D01*
X5260270Y6779384D01*
X5240517Y6790672D01*
X5216530Y6804781D01*
X5192544Y6823124D01*
X5168557Y6842878D01*
X5144571Y6865453D01*
Y6866864D01*
X5141749Y6868275D01*
X5134694Y6876741D01*
X5124817Y6890851D01*
X5112118Y6909193D01*
X5098009Y6931769D01*
X5083899Y6958577D01*
X5069789Y6988208D01*
X5057090Y7020660D01*
Y7022071D01*
X5055679Y7024893D01*
X5054269Y7030537D01*
X5052858Y7036180D01*
X5050036Y7044646D01*
X5047214Y7055934D01*
X5044392Y7067222D01*
X5042981Y7079921D01*
X5037337Y7109551D01*
X5031693Y7143414D01*
X5028871Y7178688D01*
X5027460Y7218196D01*
Y7219607D01*
Y7222429D01*
Y7229483D01*
Y7236538D01*
X5028871Y7246415D01*
Y7257703D01*
X5030282Y7270402D01*
X5031693Y7284511D01*
X5034515Y7314142D01*
X5040159Y7348005D01*
X5048625Y7383279D01*
X5058501Y7417142D01*
Y7418553D01*
X5059912Y7421375D01*
X5061323Y7425608D01*
X5064145Y7432663D01*
X5066967Y7439718D01*
X5071200Y7449595D01*
X5081077Y7470759D01*
X5093775Y7494746D01*
X5109296Y7521554D01*
X5127639Y7546952D01*
X5147392Y7572349D01*
X5148803Y7573760D01*
X5150214Y7575171D01*
X5158680Y7582226D01*
X5169968Y7594925D01*
X5188310Y7609034D01*
X5208064Y7624555D01*
X5233461Y7640076D01*
X5260270Y7655596D01*
X5291311Y7669706D01*
X5292722D01*
X5295544Y7671117D01*
X5299777Y7672528D01*
X5306832Y7675350D01*
X5313887Y7678172D01*
X5323764Y7680994D01*
X5335051Y7683816D01*
X5347750Y7686638D01*
X5375969Y7692282D01*
X5409833Y7697925D01*
X5445107Y7702158D01*
X5484614Y7703569D01*
X5498724D01*
X5508601Y7702158D01*
D02*
G37*
%LPC*%
G36*
X7761920Y7552596D02*
X7752043D01*
X7742166Y7551185D01*
X7728056Y7549774D01*
X7711125Y7546952D01*
X7694193Y7542719D01*
X7674440Y7537075D01*
X7656097Y7530020D01*
X7654686Y7528610D01*
X7647631Y7525788D01*
X7639165Y7521555D01*
X7627878Y7514500D01*
X7615179Y7506034D01*
X7601069Y7494746D01*
X7586959Y7482048D01*
X7572850Y7467938D01*
X7571439Y7466527D01*
X7567206Y7460883D01*
X7560151Y7451006D01*
X7553096Y7439718D01*
X7544631Y7424198D01*
X7534754Y7405855D01*
X7526288Y7384691D01*
X7517822Y7362115D01*
X7516411Y7359293D01*
X7515000Y7350827D01*
X7512178Y7338129D01*
X7507945Y7319786D01*
X7503712Y7298621D01*
X7500891Y7274635D01*
X7499480Y7247827D01*
X7498069Y7218196D01*
Y7216785D01*
Y7213963D01*
Y7209730D01*
Y7204086D01*
X7499480Y7189977D01*
X7500891Y7170223D01*
X7502301Y7147648D01*
X7506534Y7123661D01*
X7510767Y7098264D01*
X7517822Y7072866D01*
X7519233Y7070044D01*
X7522055Y7061578D01*
X7526288Y7050291D01*
X7531932Y7034770D01*
X7540398Y7017838D01*
X7550274Y7000907D01*
X7561562Y6982564D01*
X7574261Y6965632D01*
X7575672Y6964222D01*
X7581316Y6958578D01*
X7588371Y6951523D01*
X7599658Y6941646D01*
X7612357Y6931769D01*
X7626467Y6920481D01*
X7643398Y6910605D01*
X7660330Y6902139D01*
X7663152Y6900728D01*
X7668796Y6899317D01*
X7678673Y6895084D01*
X7691371Y6892262D01*
X7706892Y6888029D01*
X7725235Y6883796D01*
X7743577Y6882385D01*
X7764742Y6880974D01*
X7777441D01*
X7791550Y6882385D01*
X7808482Y6885207D01*
X7829647Y6889440D01*
X7852222Y6896495D01*
X7876209Y6904961D01*
X7898784Y6916249D01*
X7900195D01*
X7901606Y6917660D01*
X7908661Y6923303D01*
X7919949Y6931769D01*
X7934058Y6944468D01*
X7949579Y6959989D01*
X7966511Y6979742D01*
X7983442Y7002318D01*
X7997552Y7029126D01*
Y7030537D01*
X7998963Y7033359D01*
X8000374Y7037592D01*
X8003196Y7043236D01*
X8006018Y7050291D01*
X8008840Y7060167D01*
X8013073Y7070044D01*
X8015895Y7081332D01*
X8022949Y7109551D01*
X8028593Y7142004D01*
X8032826Y7178689D01*
X8034237Y7218196D01*
Y7219607D01*
Y7222429D01*
Y7228073D01*
Y7235128D01*
X8032826Y7245005D01*
Y7254881D01*
X8030004Y7280279D01*
X8025771Y7308498D01*
X8020127Y7338129D01*
X8011662Y7367759D01*
X8000374Y7397389D01*
Y7398800D01*
X7998963Y7400211D01*
X7997552Y7404444D01*
X7994730Y7410088D01*
X7986264Y7424198D01*
X7976387Y7441129D01*
X7962278Y7459472D01*
X7945346Y7477815D01*
X7927003Y7496157D01*
X7904428Y7513089D01*
X7901606Y7514500D01*
X7893140Y7518733D01*
X7880441Y7525788D01*
X7863510Y7532842D01*
X7842345Y7539897D01*
X7818359Y7546952D01*
X7791550Y7551185D01*
X7761920Y7552596D01*
D02*
G37*
G36*
X5484614Y7552596D02*
X5474737D01*
X5464861Y7551185D01*
X5450751Y7549774D01*
X5433819Y7546952D01*
X5416888Y7542719D01*
X5397134Y7537075D01*
X5378791Y7530020D01*
X5377380Y7528609D01*
X5370326Y7525787D01*
X5361860Y7521554D01*
X5350572Y7514499D01*
X5337873Y7506034D01*
X5323764Y7494746D01*
X5309654Y7482047D01*
X5295544Y7467937D01*
X5294133Y7466526D01*
X5289901Y7460882D01*
X5282846Y7451006D01*
X5275791Y7439718D01*
X5267325Y7424197D01*
X5257448Y7405855D01*
X5248982Y7384690D01*
X5240517Y7362115D01*
X5239106Y7359293D01*
X5237695Y7350827D01*
X5234873Y7338128D01*
X5230640Y7319785D01*
X5226407Y7298621D01*
X5223585Y7274634D01*
X5222174Y7247826D01*
X5220763Y7218196D01*
Y7216785D01*
Y7213963D01*
Y7209730D01*
Y7204086D01*
X5222174Y7189976D01*
X5223585Y7170223D01*
X5224996Y7147647D01*
X5229229Y7123661D01*
X5233462Y7098263D01*
X5240517Y7072866D01*
X5241928Y7070044D01*
X5244749Y7061578D01*
X5248982Y7050290D01*
X5254626Y7034770D01*
X5263092Y7017838D01*
X5272969Y7000906D01*
X5284257Y6982564D01*
X5296955Y6965632D01*
X5298366Y6964221D01*
X5304010Y6958577D01*
X5311065Y6951522D01*
X5322353Y6941646D01*
X5335052Y6931769D01*
X5349161Y6920481D01*
X5366093Y6910604D01*
X5383025Y6902138D01*
X5385846Y6900727D01*
X5391490Y6899316D01*
X5401367Y6895083D01*
X5414066Y6892262D01*
X5429587Y6888029D01*
X5447929Y6883796D01*
X5466272Y6882385D01*
X5487436Y6880974D01*
X5500135D01*
X5514245Y6882385D01*
X5531176Y6885207D01*
X5552341Y6889440D01*
X5574916Y6896494D01*
X5598903Y6904960D01*
X5621478Y6916248D01*
X5622889D01*
X5624300Y6917659D01*
X5631355Y6923303D01*
X5642643Y6931769D01*
X5656753Y6944467D01*
X5672273Y6959988D01*
X5689205Y6979742D01*
X5706137Y7002317D01*
X5720246Y7029126D01*
Y7030537D01*
X5721657Y7033359D01*
X5723068Y7037591D01*
X5725890Y7043235D01*
X5728712Y7050290D01*
X5731534Y7060167D01*
X5735767Y7070044D01*
X5738589Y7081332D01*
X5745644Y7109551D01*
X5751288Y7142003D01*
X5755521Y7178689D01*
X5756932Y7218196D01*
Y7219607D01*
Y7222429D01*
Y7228073D01*
Y7235128D01*
X5755521Y7245004D01*
Y7254881D01*
X5752699Y7280278D01*
X5748466Y7308498D01*
X5742822Y7338128D01*
X5734356Y7367758D01*
X5723068Y7397389D01*
Y7398800D01*
X5721657Y7400211D01*
X5720246Y7404444D01*
X5717424Y7410088D01*
X5708959Y7424197D01*
X5699082Y7441129D01*
X5684972Y7459471D01*
X5668040Y7477814D01*
X5649698Y7496157D01*
X5627122Y7513088D01*
X5624300Y7514499D01*
X5615834Y7518732D01*
X5603136Y7525787D01*
X5586204Y7532842D01*
X5565039Y7539897D01*
X5541053Y7546952D01*
X5514244Y7551185D01*
X5484614Y7552596D01*
D02*
G37*
%LPD*%
D53*
X5961286Y5975859D02*
G03*
X5961286Y5975859I-5000J0D01*
G01*
X6703711Y5622077D02*
G03*
X6703711Y5622077I-5000J0D01*
G01*
X7266289Y8131285D02*
G03*
X7266289Y8131285I-5000J0D01*
G01*
X5101570Y4845274D02*
G03*
X5101570Y4845274I-5000J0D01*
G01*
D54*
X8597500Y8374502D02*
G03*
X8597500Y8374502I-12500J0D01*
G01*
D55*
X8808003Y5597276D02*
Y5667278D01*
X8968002Y5597276D02*
Y5667278D01*
X8287103Y5597276D02*
Y5667278D01*
X8447102Y5597276D02*
Y5667278D01*
X8547499Y5592267D02*
Y5662264D01*
X8707498Y5592267D02*
Y5662264D01*
Y6087704D02*
Y6157701D01*
X8547499Y6087704D02*
Y6157701D01*
X8707502Y4895428D02*
Y4965431D01*
X8547503Y4895428D02*
Y4965431D01*
Y4405004D02*
Y4475001D01*
X8707502Y4405004D02*
Y4475001D01*
X8967998Y4895428D02*
Y4965431D01*
X8807998Y4895428D02*
Y4965431D01*
X8967999Y6087704D02*
Y6157701D01*
X8807999Y6087704D02*
Y6157701D01*
X8807998Y4405004D02*
Y4475001D01*
X8967998Y4405004D02*
Y4475001D01*
X8287102Y4405004D02*
Y4475001D01*
X8447101Y4405004D02*
Y4475001D01*
X8287105Y6769411D02*
Y6839413D01*
X8447105Y6769411D02*
Y6839413D01*
X8807953Y7259839D02*
Y7329836D01*
X8967952Y7259839D02*
Y7329836D01*
X8547526Y7259839D02*
Y7329836D01*
X8707526Y7259839D02*
Y7329836D01*
X8807953Y6769411D02*
Y6839413D01*
X8967952Y6769411D02*
Y6839413D01*
X8547526Y6769411D02*
Y6839413D01*
X8707526Y6769411D02*
Y6839413D01*
X8152877Y8056575D02*
Y8126578D01*
X7992877Y8056575D02*
Y8126578D01*
X8413303Y8051566D02*
Y8121564D01*
X8253303Y8051566D02*
Y8121564D01*
X8683300Y8056575D02*
Y8126578D01*
X8523300Y8056575D02*
Y8126578D01*
X7989148Y8556579D02*
Y8626577D01*
X8149148Y8556579D02*
Y8626577D01*
X8249575Y8556579D02*
Y8626577D01*
X8409574Y8556579D02*
Y8626577D01*
D56*
X8207770Y4248534D02*
Y4096184D01*
Y4172359D01*
X8106203D01*
Y4248534D01*
Y4096184D01*
X8055419D02*
X8004636D01*
X8030027D01*
Y4197751D01*
X8055419D01*
X7928460Y4096184D02*
Y4121575D01*
X7903069D01*
Y4096184D01*
X7928460D01*
X7801502D02*
Y4121575D01*
X7776110D01*
Y4096184D01*
X7801502D01*
X7674543D02*
Y4121575D01*
X7649151D01*
Y4096184D01*
X7674543D01*
X7395233Y4197751D02*
Y4096184D01*
Y4146967D01*
X7369841Y4172359D01*
X7344450Y4197751D01*
X7319058D01*
X7192099Y4045400D02*
X7166707D01*
X7141315Y4070792D01*
Y4197751D01*
X7217491D01*
X7242882Y4172359D01*
Y4121575D01*
X7217491Y4096184D01*
X7141315D01*
X7090532Y4197751D02*
Y4096184D01*
Y4146967D01*
X7065140Y4172359D01*
X7039748Y4197751D01*
X7014356D01*
X6836614Y4248534D02*
Y4096184D01*
X6912789D01*
X6938181Y4121575D01*
Y4172359D01*
X6912789Y4197751D01*
X6836614D01*
X6785830Y4096184D02*
X6709655D01*
X6684263Y4121575D01*
X6709655Y4146967D01*
X6760438D01*
X6785830Y4172359D01*
X6760438Y4197751D01*
X6684263D01*
X6608088Y4070792D02*
X6582696Y4096184D01*
Y4121575D01*
X6608088D01*
Y4096184D01*
X6582696D01*
X6608088Y4070792D01*
X6633479Y4045400D01*
X6328778Y4096184D02*
Y4197751D01*
X6277995Y4248534D01*
X6227211Y4197751D01*
Y4096184D01*
Y4172359D01*
X6328778D01*
X6176427Y4197751D02*
Y4096184D01*
Y4146967D01*
X6151035Y4172359D01*
X6125644Y4197751D01*
X6100252D01*
X5998685Y4223142D02*
Y4197751D01*
X6024077D01*
X5973293D01*
X5998685D01*
Y4121575D01*
X5973293Y4096184D01*
X5897118Y4197751D02*
Y4121575D01*
X5871726Y4096184D01*
X5795551D01*
Y4197751D01*
X5744767D02*
Y4096184D01*
Y4146967D01*
X5719375Y4172359D01*
X5693984Y4197751D01*
X5668592D01*
X5338498Y4248534D02*
X5440066D01*
Y4096184D01*
X5338498D01*
X5440066Y4172359D02*
X5389282D01*
X5287715Y4096184D02*
Y4248534D01*
Y4146967D02*
X5211539Y4197751D01*
X5287715Y4146967D02*
X5211539Y4096184D01*
X5135364D02*
X5059189D01*
X5033797Y4121575D01*
X5059189Y4146967D01*
X5109972D01*
X5135364Y4172359D01*
X5109972Y4197751D01*
X5033797D01*
X4983013Y4096184D02*
X4932230D01*
X4957622D01*
Y4197751D01*
X4983013D01*
%TF.MD5,b621ae1a0eb374d201afb546b5f07ca2*%
M02*
