%TF.GenerationSoftware,Altium Limited,Altium Designer,22.9.1 (49)*%
G04 Layer_Physical_Order=4*
G04 Layer_Color=16711680*
%FSLAX45Y45*%
%MOMM*%
%TF.SameCoordinates,EA90029D-DDF1-4691-B258-B80E594B725E*%
%TF.FilePolarity,Positive*%
%TF.FileFunction,Copper,L4,Bot,Signal*%
%TF.Part,Single*%
G01*
G75*
%TA.AperFunction,Conductor*%
%ADD10C,0.25400*%
%TA.AperFunction,SMDPad,CuDef*%
%ADD11R,1.80000X1.30000*%
%ADD12R,0.95000X0.95000*%
%ADD14R,0.90000X0.90000*%
%ADD20R,0.95000X0.95000*%
%ADD23R,1.75000X0.60000*%
%ADD30R,0.90000X0.90000*%
%TA.AperFunction,Conductor*%
%ADD37C,0.50000*%
%ADD38C,1.00000*%
%TA.AperFunction,ComponentPad*%
%ADD40O,1.80000X0.90000*%
%ADD41R,1.35800X1.35800*%
%ADD42C,1.35800*%
%ADD43C,1.55000*%
%ADD44R,1.35800X1.35800*%
%TA.AperFunction,WasherPad*%
%ADD45C,1.55000*%
%TA.AperFunction,ViaPad*%
%ADD46C,0.45000*%
%TA.AperFunction,SMDPad,CuDef*%
%ADD47R,5.10000X4.50000*%
%TA.AperFunction,Conductor*%
%ADD48C,2.00000*%
%ADD49C,3.00000*%
%ADD50R,1.45000X2.15000*%
%ADD51R,2.00000X3.10000*%
%ADD52R,7.23302X3.60000*%
G36*
X4472576Y8144979D02*
X4607378Y8010177D01*
X4601165Y7995177D01*
X4584429D01*
X4562073Y7989186D01*
X4542029Y7977614D01*
X4525664Y7961249D01*
X4514091Y7941205D01*
X4508101Y7918849D01*
Y7895705D01*
X4514091Y7873349D01*
X4525664Y7853305D01*
X4542029Y7836939D01*
X4562073Y7825367D01*
X4584429Y7819377D01*
X4607573D01*
X4629929Y7825367D01*
X4649973Y7836939D01*
X4666338Y7853305D01*
X4677911Y7873349D01*
X4683901Y7895705D01*
Y7918849D01*
X4677911Y7941205D01*
X4666982Y7960134D01*
X4669724Y7968683D01*
X4674227Y7974573D01*
X4750875D01*
X4843947Y7881500D01*
X4843537Y7880510D01*
X4836559Y7867676D01*
X4816073Y7862186D01*
X4796029Y7850614D01*
X4779664Y7834249D01*
X4768091Y7814205D01*
X4762101Y7791849D01*
Y7768705D01*
X4768091Y7746349D01*
X4779664Y7726305D01*
X4796029Y7709939D01*
X4799111Y7708160D01*
X4795092Y7693160D01*
X4674472D01*
X4666338Y7707249D01*
X4649973Y7723614D01*
X4629929Y7735186D01*
X4607573Y7741177D01*
X4584429D01*
X4562073Y7735186D01*
X4542029Y7723614D01*
X4525664Y7707249D01*
X4514091Y7687205D01*
X4508101Y7664849D01*
Y7641705D01*
X4514091Y7619349D01*
X4525664Y7599305D01*
X4542029Y7582939D01*
X4562073Y7571367D01*
X4584429Y7565377D01*
X4607573D01*
X4629929Y7571367D01*
X4649973Y7582939D01*
X4666338Y7599305D01*
X4667546Y7601397D01*
X4756701D01*
Y7538977D01*
X4850001D01*
Y7526277D01*
X4862701D01*
Y7432977D01*
X4934048D01*
Y7254938D01*
X4605841D01*
X4588283Y7251445D01*
X4573398Y7241500D01*
X4465000Y7133102D01*
X4450000Y7139315D01*
Y8149760D01*
X4465000Y8154852D01*
X4472576Y8144979D01*
D02*
G37*
G36*
X5100000Y7889999D02*
X5439999Y7550000D01*
X6850000D01*
X7200000Y7200000D01*
Y4050000D01*
X4450000D01*
Y5451366D01*
X4465000Y5458763D01*
X4472220Y5453223D01*
X4488032Y5446673D01*
X4505000Y5444439D01*
X4595000D01*
X4611968Y5446673D01*
X4627780Y5453223D01*
X4641358Y5463642D01*
X4651777Y5477219D01*
X4658327Y5493031D01*
X4660561Y5510000D01*
X4658327Y5526968D01*
X4651777Y5542780D01*
X4641358Y5556358D01*
X4627780Y5566777D01*
X4611968Y5573327D01*
X4595000Y5575561D01*
X4505000D01*
X4488032Y5573327D01*
X4472220Y5566777D01*
X4465000Y5561237D01*
X4450000Y5568634D01*
Y6111366D01*
X4465000Y6118763D01*
X4472220Y6113223D01*
X4488032Y6106673D01*
X4505000Y6104439D01*
X4595000D01*
X4611968Y6106673D01*
X4627780Y6113223D01*
X4641358Y6123642D01*
X4651777Y6137220D01*
X4658327Y6153032D01*
X4660561Y6170000D01*
X4658327Y6186969D01*
X4651777Y6202781D01*
X4641358Y6216358D01*
X4627780Y6226777D01*
X4611968Y6233327D01*
X4595000Y6235561D01*
X4505000D01*
X4488032Y6233327D01*
X4472220Y6226777D01*
X4465000Y6221237D01*
X4450000Y6228634D01*
Y6853451D01*
X4465000Y6859664D01*
X4514521Y6810144D01*
X4512104Y6801124D01*
Y6777979D01*
X4518094Y6755624D01*
X4529667Y6735580D01*
X4546032Y6719214D01*
X4566076Y6707642D01*
X4588432Y6701652D01*
X4611576D01*
X4633932Y6707642D01*
X4653976Y6719214D01*
X4670341Y6735580D01*
X4681914Y6755624D01*
X4687904Y6777979D01*
Y6801124D01*
X4681914Y6823480D01*
X4670341Y6843524D01*
X4653976Y6859889D01*
X4633932Y6871461D01*
X4611576Y6877452D01*
X4588432D01*
X4579404Y6875033D01*
X4532982Y6921456D01*
Y6967457D01*
X4547982Y6972089D01*
X4566076Y6961642D01*
X4588432Y6955652D01*
X4610553D01*
X4610817Y6955258D01*
X4796365Y6769710D01*
X4790624Y6755852D01*
X4760704D01*
Y6675252D01*
X4854004D01*
X4947304D01*
Y6684547D01*
X4961162Y6690288D01*
X5236680Y6414769D01*
Y6389979D01*
X5239218Y6377220D01*
X5246446Y6366404D01*
X5565844Y6047006D01*
Y6043203D01*
X5572314Y6027582D01*
X5584270Y6015627D01*
X5585240Y6015225D01*
X5588166Y6000513D01*
X5330485Y5742833D01*
X5319265Y5728210D01*
X5312212Y5711182D01*
X5309806Y5692908D01*
Y5433713D01*
X5147507Y5271415D01*
X5136287Y5256792D01*
X5129234Y5239764D01*
X5126828Y5221490D01*
X5127570Y5215851D01*
X5048205Y5136486D01*
X4960356D01*
Y5048239D01*
X4946498Y5042498D01*
X4933731Y5055265D01*
X4922914Y5062493D01*
X4917427Y5063584D01*
Y5128990D01*
X4787427D01*
Y4998991D01*
X4787427D01*
X4786455Y4984393D01*
X4782027D01*
Y4926693D01*
X4922827D01*
Y4952270D01*
X4936685Y4958010D01*
X4960356Y4934339D01*
Y4846490D01*
X5095356D01*
Y4981490D01*
X5014829D01*
X5011091Y4986486D01*
X5018601Y5001486D01*
X5095356D01*
Y5089335D01*
X5165125Y5159105D01*
X5179158Y5153292D01*
X5197432Y5150886D01*
X5215705Y5153292D01*
X5232734Y5160346D01*
X5247356Y5171566D01*
X5430334Y5354544D01*
X5441555Y5369166D01*
X5448608Y5386195D01*
X5451014Y5404468D01*
Y5663663D01*
X5754924Y5967574D01*
X5766145Y5982196D01*
X5773198Y5999225D01*
X5775604Y6017498D01*
Y6556896D01*
X5879362D01*
X5883652Y6548804D01*
X5884746Y6541896D01*
X5855349Y6512500D01*
X5851546D01*
X5835926Y6506030D01*
X5823970Y6494074D01*
X5817500Y6478454D01*
Y6461546D01*
X5823970Y6445926D01*
X5835926Y6433970D01*
X5851546Y6427500D01*
X5868454D01*
X5884074Y6433970D01*
X5896030Y6445926D01*
X5902500Y6461546D01*
Y6465349D01*
X5923810Y6486659D01*
X6120000D01*
X6132759Y6489197D01*
X6143575Y6496425D01*
X6279810Y6632659D01*
X7060737D01*
X7063426Y6629970D01*
X7079047Y6623500D01*
X7095954D01*
X7111574Y6629970D01*
X7123530Y6641926D01*
X7130000Y6657546D01*
Y6674454D01*
X7123530Y6690074D01*
X7111574Y6702030D01*
X7095954Y6708500D01*
X7079047D01*
X7063426Y6702030D01*
X7060737Y6699340D01*
X6738268D01*
X6730870Y6714340D01*
X6731145Y6714698D01*
X6738198Y6731726D01*
X6740604Y6750000D01*
X6738198Y6768273D01*
X6731145Y6785302D01*
X6719925Y6799924D01*
X6705302Y6811145D01*
X6688274Y6818198D01*
X6670000Y6820604D01*
X6190000D01*
X6171727Y6818198D01*
X6154698Y6811145D01*
X6140076Y6799924D01*
X6130076Y6789924D01*
X6127390Y6786425D01*
X6039069Y6698104D01*
X5705000D01*
X5686726Y6695698D01*
X5669698Y6688645D01*
X5659219Y6680604D01*
X5450604D01*
Y6860000D01*
X5448198Y6878274D01*
X5441145Y6895302D01*
X5429924Y6909925D01*
X5075256Y7264594D01*
Y7646252D01*
X5075391Y7647278D01*
Y7820510D01*
X5072985Y7838784D01*
X5065931Y7855812D01*
X5054711Y7870435D01*
X5025421Y7899724D01*
X4830044Y8095101D01*
X4815422Y8106322D01*
X4798393Y8113375D01*
X4780120Y8115781D01*
X4701472D01*
X4672609Y8144644D01*
X4678349Y8158502D01*
X4682837D01*
X4707634Y8165147D01*
X4729867Y8177983D01*
X4748020Y8196136D01*
X4760856Y8218368D01*
X4767500Y8243166D01*
Y8268838D01*
X4762446Y8287702D01*
X4770098Y8300569D01*
X4772942Y8302702D01*
X4837300D01*
Y8383302D01*
X4756700D01*
Y8328401D01*
X4741700Y8322188D01*
X4729867Y8334021D01*
X4707634Y8346857D01*
X4682837Y8353502D01*
X4675547D01*
X4668913Y8366955D01*
X4669268Y8367418D01*
X4676321Y8384446D01*
X4678727Y8402720D01*
Y8485563D01*
X4678148Y8489962D01*
X4683900Y8511430D01*
Y8534574D01*
X4677910Y8556930D01*
X4666338Y8576974D01*
X4649972Y8593339D01*
X4629929Y8604912D01*
X4607573Y8610902D01*
X4584428D01*
X4562072Y8604912D01*
X4542029Y8593339D01*
X4525663Y8576974D01*
X4514091Y8556930D01*
X4508100Y8534574D01*
Y8511430D01*
X4514091Y8489074D01*
X4525663Y8469030D01*
X4537519Y8457174D01*
Y8431965D01*
X4472576Y8367021D01*
X4465000Y8357148D01*
X4450000Y8362240D01*
Y8950000D01*
X5100000D01*
Y7889999D01*
D02*
G37*
G36*
X5309396Y6830755D02*
Y6610000D01*
X5309488Y6609302D01*
X5295281Y6602296D01*
X4967068Y6930509D01*
X4956251Y6937736D01*
X4943493Y6940274D01*
X4938648D01*
X4935914Y6950480D01*
X4924341Y6970524D01*
X4907976Y6986889D01*
X4887932Y6998461D01*
X4865576Y7004452D01*
X4842432D01*
X4820076Y6998461D01*
X4800032Y6986889D01*
X4783667Y6970524D01*
X4772094Y6950480D01*
X4766104Y6928124D01*
Y6915485D01*
X4751104Y6909271D01*
X4670508Y6989868D01*
X4681914Y7009624D01*
X4687904Y7031979D01*
Y7055124D01*
X4681914Y7077480D01*
X4670341Y7097524D01*
X4653976Y7113889D01*
X4633932Y7125461D01*
X4613753Y7130868D01*
X4606422Y7144751D01*
X4624846Y7163175D01*
X4976976D01*
X5309396Y6830755D01*
D02*
G37*
G36*
X5380000Y6539396D02*
X5634396D01*
Y6282779D01*
X5620538Y6277038D01*
X5372296Y6525281D01*
X5379302Y6539488D01*
X5380000Y6539396D01*
D02*
G37*
G36*
X9350000Y4050000D02*
X7510000D01*
Y4244989D01*
X7521118Y4252418D01*
X7547582Y4278882D01*
X7568376Y4310002D01*
X7582698Y4344579D01*
X7590000Y4381287D01*
Y4418714D01*
X7582698Y4455421D01*
X7568376Y4489999D01*
X7547582Y4521118D01*
X7521118Y4547582D01*
X7510000Y4555011D01*
Y7400000D01*
X7230000D01*
X6730000Y7900000D01*
X5750000D01*
X5574297Y8075703D01*
X5568376Y8089999D01*
X5547583Y8121118D01*
X5521118Y8147582D01*
X5500000Y8161693D01*
Y8950000D01*
X9350000D01*
Y4050000D01*
D02*
G37*
%LPC*%
G36*
X4837301Y7513577D02*
X4756701D01*
Y7458676D01*
X4741701Y7452463D01*
X4729867Y7464296D01*
X4707635Y7477132D01*
X4682837Y7483777D01*
X4657165D01*
X4632367Y7477132D01*
X4610135Y7464296D01*
X4591982Y7446143D01*
X4579146Y7423910D01*
X4572501Y7399113D01*
Y7373441D01*
X4579146Y7348643D01*
X4591982Y7326411D01*
X4610135Y7308257D01*
X4632367Y7295422D01*
X4657165Y7288777D01*
X4682837D01*
X4707635Y7295422D01*
X4729867Y7308257D01*
X4748020Y7326411D01*
X4760856Y7348643D01*
X4767501Y7373441D01*
Y7399113D01*
X4762446Y7417977D01*
X4770099Y7430843D01*
X4772942Y7432977D01*
X4837301D01*
Y7513577D01*
D02*
G37*
G36*
X4607573Y8864902D02*
X4584428D01*
X4562072Y8858912D01*
X4542029Y8847339D01*
X4525663Y8830974D01*
X4514091Y8810930D01*
X4508100Y8788574D01*
Y8765430D01*
X4514091Y8743074D01*
X4525663Y8723030D01*
X4542029Y8706665D01*
X4562072Y8695092D01*
X4584428Y8689102D01*
X4607573D01*
X4629929Y8695092D01*
X4649972Y8706665D01*
X4666338Y8723030D01*
X4677910Y8743074D01*
X4683900Y8765430D01*
Y8788574D01*
X4677910Y8810930D01*
X4666338Y8830974D01*
X4649972Y8847339D01*
X4629929Y8858912D01*
X4607573Y8864902D01*
D02*
G37*
G36*
X4861573Y8737902D02*
X4838428D01*
X4816072Y8731912D01*
X4796029Y8720339D01*
X4779663Y8703974D01*
X4768091Y8683930D01*
X4762100Y8661574D01*
Y8638430D01*
X4768091Y8616074D01*
X4779663Y8596030D01*
X4796029Y8579665D01*
X4816072Y8568092D01*
X4838428Y8562102D01*
X4861573D01*
X4883929Y8568092D01*
X4903972Y8579665D01*
X4920338Y8596030D01*
X4931910Y8616074D01*
X4937900Y8638430D01*
Y8661574D01*
X4931910Y8683930D01*
X4920338Y8703974D01*
X4903972Y8720339D01*
X4883929Y8731912D01*
X4861573Y8737902D01*
D02*
G37*
G36*
X4943301Y8489302D02*
X4862700D01*
Y8408702D01*
X4943301D01*
Y8489302D01*
D02*
G37*
G36*
X4837300D02*
X4756700D01*
Y8408702D01*
X4837300D01*
Y8489302D01*
D02*
G37*
G36*
X4943301Y8383302D02*
X4862700D01*
Y8302702D01*
X4943301D01*
Y8383302D01*
D02*
G37*
G36*
X4841304Y6649852D02*
X4760704D01*
Y6594951D01*
X4745704Y6588737D01*
X4733870Y6600571D01*
X4711638Y6613407D01*
X4686840Y6620052D01*
X4661168D01*
X4636370Y6613407D01*
X4614138Y6600571D01*
X4595985Y6582418D01*
X4583149Y6560185D01*
X4576504Y6535388D01*
Y6509715D01*
X4583149Y6484918D01*
X4595985Y6462685D01*
X4614138Y6444532D01*
X4636370Y6431696D01*
X4661168Y6425052D01*
X4686840D01*
X4711638Y6431696D01*
X4733870Y6444532D01*
X4752024Y6462685D01*
X4764859Y6484918D01*
X4771504Y6509715D01*
Y6535388D01*
X4766449Y6554251D01*
X4774102Y6567118D01*
X4776945Y6569252D01*
X4841304D01*
Y6649852D01*
D02*
G37*
G36*
X4947304D02*
X4866704D01*
Y6569252D01*
X4947304D01*
Y6649852D01*
D02*
G37*
G36*
X7095954Y6581500D02*
X7079047D01*
X7063426Y6575030D01*
X7060737Y6572340D01*
X6318999D01*
X6306240Y6569803D01*
X6295423Y6562575D01*
X6191589Y6458740D01*
X5990397D01*
X5977639Y6456202D01*
X5966822Y6448975D01*
X5932848Y6415001D01*
X5929045D01*
X5913424Y6408530D01*
X5901469Y6396575D01*
X5894999Y6380954D01*
Y6364047D01*
X5901469Y6348427D01*
X5913424Y6336471D01*
X5929045Y6330001D01*
X5945952D01*
X5961573Y6336471D01*
X5973528Y6348427D01*
X5979998Y6364047D01*
Y6367850D01*
X6004207Y6392059D01*
X6083613D01*
X6086273Y6389965D01*
X6092276Y6377059D01*
X6088440Y6371213D01*
X6075926Y6366030D01*
X6063970Y6354074D01*
X6057500Y6338454D01*
Y6321546D01*
X6063970Y6305926D01*
X6064496Y6305400D01*
X6058283Y6290400D01*
X6032703D01*
Y6220000D01*
Y6149600D01*
X6063279D01*
X6069019Y6135742D01*
X6045349Y6112071D01*
X5957499D01*
Y5977071D01*
X6051908D01*
X6056458Y5962071D01*
X6051825Y5958975D01*
X5615349Y5522500D01*
X5611546D01*
X5595926Y5516030D01*
X5583970Y5504074D01*
X5577500Y5488454D01*
Y5471546D01*
X5583970Y5455926D01*
X5595926Y5443970D01*
X5611546Y5437500D01*
X5628454D01*
X5644074Y5443970D01*
X5656030Y5455926D01*
X5662500Y5471546D01*
Y5475349D01*
X6089210Y5902059D01*
X6135311D01*
X6141051Y5888201D01*
X5905426Y5652576D01*
X5898198Y5641760D01*
X5895660Y5629001D01*
Y5185764D01*
X5893970Y5184074D01*
X5887500Y5168454D01*
Y5151546D01*
X5893970Y5135926D01*
X5905926Y5123970D01*
X5921546Y5117500D01*
X5938454D01*
X5954074Y5123970D01*
X5966030Y5135926D01*
X5972500Y5151546D01*
X5986659Y5149517D01*
Y5113810D01*
X5483190Y4610341D01*
X4936064D01*
X4935906Y4610928D01*
X4924334Y4630972D01*
X4907969Y4647337D01*
X4887925Y4658910D01*
X4865569Y4664900D01*
X4842424D01*
X4820069Y4658910D01*
X4800025Y4647337D01*
X4783659Y4630972D01*
X4772087Y4610928D01*
X4766097Y4588572D01*
Y4565428D01*
X4772087Y4543072D01*
X4783659Y4523028D01*
X4800025Y4506663D01*
X4820069Y4495090D01*
X4842424Y4489100D01*
X4865569D01*
X4887925Y4495090D01*
X4907969Y4506663D01*
X4924334Y4523028D01*
X4935906Y4543072D01*
X4936064Y4543659D01*
X5497000D01*
X5509759Y4546197D01*
X5520575Y4553425D01*
X6043575Y5076425D01*
X6050803Y5087241D01*
X6053340Y5100000D01*
Y5455375D01*
X6068340Y5461556D01*
X6075926Y5453970D01*
X6086659Y5449524D01*
Y5026766D01*
X6083970Y5024077D01*
X6077500Y5008456D01*
Y4991549D01*
X6083970Y4975928D01*
X6095926Y4963973D01*
X6111546Y4957503D01*
X6128454D01*
X6144074Y4963973D01*
X6156030Y4975928D01*
X6162500Y4991549D01*
Y5008456D01*
X6156030Y5024077D01*
X6153340Y5026766D01*
Y5465321D01*
X6150803Y5478080D01*
X6143575Y5488896D01*
X6142500Y5489971D01*
Y5498454D01*
X6136030Y5514074D01*
X6124074Y5526030D01*
X6108454Y5532500D01*
X6091546D01*
X6090381Y5532017D01*
X6081884Y5544733D01*
X6268305Y5731155D01*
X6283017Y5728228D01*
X6283970Y5725926D01*
X6295926Y5713970D01*
X6311546Y5707500D01*
X6315349D01*
X6407499Y5615350D01*
Y5485866D01*
X6542499D01*
Y5562635D01*
X6557499Y5570146D01*
X6562500Y5566403D01*
Y5485866D01*
X6697500D01*
Y5620866D01*
X6609650D01*
X6584775Y5645742D01*
X6590515Y5659600D01*
X6617300D01*
Y5730000D01*
Y5800400D01*
X6559600D01*
Y5795960D01*
X6544997Y5795000D01*
Y5795000D01*
X6414998D01*
Y5721751D01*
X6401140Y5716011D01*
X6362500Y5754651D01*
Y5758454D01*
X6356030Y5774074D01*
X6349903Y5780201D01*
X6345755Y5790000D01*
X6349903Y5799799D01*
X6356030Y5805926D01*
X6362500Y5821546D01*
Y5838454D01*
X6362113Y5839388D01*
X6370446Y5851860D01*
X6395003D01*
Y5837924D01*
X6529598D01*
X6530003Y5837924D01*
X6544599Y5836948D01*
Y5832524D01*
X6604799D01*
Y5905424D01*
Y5978324D01*
X6544599D01*
Y5973900D01*
X6530003Y5972924D01*
X6529598Y5972924D01*
X6455507D01*
X6449767Y5986782D01*
X6489644Y6026660D01*
X6530000D01*
X6542759Y6029197D01*
X6553575Y6036425D01*
X6723810Y6206659D01*
X6915500D01*
X6928259Y6209197D01*
X6939076Y6216425D01*
X7092151Y6369500D01*
X7095954D01*
X7111574Y6375970D01*
X7123530Y6387926D01*
X7130000Y6403546D01*
Y6420454D01*
X7123530Y6436074D01*
X7111574Y6448030D01*
X7095954Y6454500D01*
X7079047D01*
X7063426Y6448030D01*
X7051471Y6436074D01*
X7045000Y6420454D01*
Y6416651D01*
X6901690Y6273341D01*
X6710000D01*
X6697241Y6270803D01*
X6686425Y6263575D01*
X6516190Y6093341D01*
X6475834D01*
X6463075Y6090803D01*
X6452259Y6083575D01*
X6418340Y6049657D01*
X6403341Y6055870D01*
Y6197301D01*
X6400803Y6210060D01*
X6393575Y6220876D01*
X6292500Y6321952D01*
Y6325754D01*
X6290054Y6331659D01*
X6300077Y6346659D01*
X6883237D01*
X6885926Y6343970D01*
X6901546Y6337500D01*
X6918454D01*
X6934074Y6343970D01*
X6946030Y6355926D01*
X6952500Y6371546D01*
Y6388454D01*
X6946030Y6404074D01*
X6934074Y6416030D01*
X6918454Y6422500D01*
X6901546D01*
X6885926Y6416030D01*
X6883237Y6413340D01*
X6260088D01*
X6254348Y6427198D01*
X6332809Y6505659D01*
X7060737D01*
X7063426Y6502970D01*
X7079047Y6496500D01*
X7095954D01*
X7111574Y6502970D01*
X7123530Y6514926D01*
X7130000Y6530546D01*
Y6547454D01*
X7123530Y6563074D01*
X7111574Y6575030D01*
X7095954Y6581500D01*
D02*
G37*
G36*
X6007303Y6290400D02*
X5949603D01*
Y6232700D01*
X6007303D01*
Y6290400D01*
D02*
G37*
G36*
Y6207300D02*
X5949603D01*
Y6149600D01*
X6007303D01*
Y6207300D01*
D02*
G37*
G36*
X5135621Y6054084D02*
Y6020199D01*
X5169507D01*
X5163529Y6034632D01*
X5150054Y6048106D01*
X5135621Y6054084D01*
D02*
G37*
G36*
X5110221D02*
X5095788Y6048106D01*
X5082314Y6034632D01*
X5076335Y6020199D01*
X5110221D01*
Y6054084D01*
D02*
G37*
G36*
X5169507Y5994799D02*
X5135621D01*
Y5960913D01*
X5150054Y5966891D01*
X5163529Y5980365D01*
X5169507Y5994799D01*
D02*
G37*
G36*
X5110221D02*
X5076335D01*
X5082314Y5980365D01*
X5095788Y5966891D01*
X5110221Y5960913D01*
Y5994799D01*
D02*
G37*
G36*
X6690399Y5978324D02*
X6630199D01*
Y5918124D01*
X6690399D01*
Y5978324D01*
D02*
G37*
G36*
Y5892724D02*
X6630199D01*
Y5832524D01*
X6690399D01*
Y5892724D01*
D02*
G37*
G36*
X6700400Y5800400D02*
X6642700D01*
Y5742700D01*
X6700400D01*
Y5800400D01*
D02*
G37*
G36*
X4817500Y6015882D02*
X4799942Y6012389D01*
X4785057Y6002443D01*
X4775111Y5987558D01*
X4771619Y5970000D01*
Y5759293D01*
X4775111Y5741734D01*
X4785057Y5726849D01*
X4814346Y5697560D01*
X4829231Y5687614D01*
X4846790Y5684121D01*
X5210424D01*
X5227982Y5687614D01*
X5242867Y5697560D01*
X5250365Y5705058D01*
X5260311Y5719943D01*
X5263804Y5737502D01*
X5260311Y5755060D01*
X5250365Y5769945D01*
X5235480Y5779890D01*
X5217922Y5783383D01*
X5200364Y5779890D01*
X5194369Y5775885D01*
X4865794D01*
X4863382Y5778297D01*
Y5970000D01*
X4859889Y5987558D01*
X4849943Y6002443D01*
X4835058Y6012389D01*
X4817500Y6015882D01*
D02*
G37*
G36*
X6700400Y5717300D02*
X6642700D01*
Y5659600D01*
X6700400D01*
Y5717300D01*
D02*
G37*
G36*
X4922827Y4901293D02*
X4865127D01*
Y4843593D01*
X4922827D01*
Y4901293D01*
D02*
G37*
G36*
X4839727D02*
X4782027D01*
Y4843593D01*
X4839727D01*
Y4901293D01*
D02*
G37*
G36*
X4612697Y4797188D02*
Y4716699D01*
X4693185D01*
X4686939Y4740013D01*
X4674655Y4761288D01*
X4657284Y4778659D01*
X4636009Y4790942D01*
X4612697Y4797188D01*
D02*
G37*
G36*
X4587297D02*
X4563984Y4790942D01*
X4542709Y4778659D01*
X4525338Y4761288D01*
X4513055Y4740013D01*
X4506808Y4716699D01*
X4587297D01*
Y4797188D01*
D02*
G37*
G36*
X4693185Y4691299D02*
X4612697D01*
Y4610812D01*
X4636009Y4617058D01*
X4657284Y4629341D01*
X4674655Y4646712D01*
X4686939Y4667987D01*
X4693185Y4691299D01*
D02*
G37*
G36*
X4587297D02*
X4506808D01*
X4513055Y4667987D01*
X4525338Y4646712D01*
X4542709Y4629341D01*
X4563984Y4617058D01*
X4587297Y4610812D01*
Y4691299D01*
D02*
G37*
G36*
X4611569Y4537900D02*
X4588424D01*
X4566069Y4531910D01*
X4546025Y4520337D01*
X4529659Y4503972D01*
X4518087Y4483928D01*
X4512097Y4461572D01*
Y4438428D01*
X4518087Y4416072D01*
X4529659Y4396028D01*
X4546025Y4379663D01*
X4566069Y4368090D01*
X4588424Y4362100D01*
X4611569D01*
X4633925Y4368090D01*
X4653969Y4379663D01*
X4670334Y4396028D01*
X4681906Y4416072D01*
X4687897Y4438428D01*
Y4461572D01*
X4681906Y4483928D01*
X4670334Y4503972D01*
X4653969Y4520337D01*
X4633925Y4531910D01*
X4611569Y4537900D01*
D02*
G37*
G36*
X4941897Y4410900D02*
X4766097D01*
Y4248478D01*
X4755220Y4244143D01*
X4751097Y4243786D01*
X4733863Y4261019D01*
X4711630Y4273855D01*
X4686833Y4280500D01*
X4661161D01*
X4636363Y4273855D01*
X4614130Y4261019D01*
X4595977Y4242866D01*
X4583141Y4220634D01*
X4576497Y4195836D01*
Y4170164D01*
X4583141Y4145366D01*
X4595977Y4123134D01*
X4614130Y4104981D01*
X4636363Y4092145D01*
X4661161Y4085500D01*
X4686833D01*
X4711630Y4092145D01*
X4733863Y4104981D01*
X4752016Y4123134D01*
X4764852Y4145366D01*
X4771497Y4170164D01*
Y4195836D01*
X4764852Y4220633D01*
X4773821Y4235100D01*
X4941897D01*
Y4410900D01*
D02*
G37*
G36*
X8572302Y8895900D02*
X8472102D01*
Y8853200D01*
X8572302D01*
Y8895900D01*
D02*
G37*
G36*
X6173301Y8893302D02*
X6092701D01*
Y8812701D01*
X6173301D01*
Y8893302D01*
D02*
G37*
G36*
X6067301D02*
X5986701D01*
Y8812701D01*
X6067301D01*
Y8893302D01*
D02*
G37*
G36*
X6714699Y8893187D02*
Y8812698D01*
X6795188D01*
X6788941Y8836012D01*
X6776658Y8857287D01*
X6759287Y8874658D01*
X6738012Y8886941D01*
X6714699Y8893187D01*
D02*
G37*
G36*
X6689299Y8893187D02*
X6665987Y8886941D01*
X6644712Y8874658D01*
X6627341Y8857287D01*
X6615058Y8836012D01*
X6608811Y8812698D01*
X6689299D01*
Y8893187D01*
D02*
G37*
G36*
X8184548Y8821975D02*
X8081848D01*
Y8744275D01*
X8184548D01*
Y8821975D01*
D02*
G37*
G36*
X8444974D02*
X8342274D01*
Y8744275D01*
X8444974D01*
Y8821975D01*
D02*
G37*
G36*
X8316874D02*
X8214175D01*
Y8744275D01*
X8316874D01*
Y8821975D01*
D02*
G37*
G36*
X8056448D02*
X7953748D01*
Y8744275D01*
X8056448D01*
Y8821975D01*
D02*
G37*
G36*
X5837574Y8887902D02*
X5814429D01*
X5792073Y8881912D01*
X5772029Y8870339D01*
X5755664Y8853974D01*
X5744092Y8833930D01*
X5738101Y8811574D01*
Y8788430D01*
X5744092Y8766074D01*
X5755664Y8746030D01*
X5772029Y8729665D01*
X5792073Y8718092D01*
X5814429Y8712102D01*
X5837574D01*
X5859929Y8718092D01*
X5879973Y8729665D01*
X5896339Y8746030D01*
X5907911Y8766074D01*
X5913901Y8788430D01*
Y8811574D01*
X5907911Y8833930D01*
X5896339Y8853974D01*
X5879973Y8870339D01*
X5859929Y8881912D01*
X5837574Y8887902D01*
D02*
G37*
G36*
X6689299Y8787298D02*
X6608811D01*
X6615058Y8763986D01*
X6627341Y8742711D01*
X6644712Y8725340D01*
X6665987Y8713057D01*
X6689299Y8706811D01*
Y8787298D01*
D02*
G37*
G36*
X6795188D02*
X6714699D01*
Y8706810D01*
X6738012Y8713057D01*
X6759287Y8725340D01*
X6776658Y8742711D01*
X6788941Y8763986D01*
X6795188Y8787298D01*
D02*
G37*
G36*
X6067301Y8787301D02*
X5986701D01*
Y8706702D01*
X6067301D01*
Y8787301D01*
D02*
G37*
G36*
X8444974Y8718875D02*
X8342274D01*
Y8641175D01*
X8444974D01*
Y8718875D01*
D02*
G37*
G36*
X8316874D02*
X8214175D01*
Y8641175D01*
X8316874D01*
Y8718875D01*
D02*
G37*
G36*
X8184548D02*
X8081848D01*
Y8641175D01*
X8184548D01*
Y8718875D01*
D02*
G37*
G36*
X8056448D02*
X7953748D01*
Y8641175D01*
X8056448D01*
Y8718875D01*
D02*
G37*
G36*
X7095699Y8639187D02*
Y8558698D01*
X7176188D01*
X7169941Y8582012D01*
X7157658Y8603287D01*
X7140287Y8620658D01*
X7119012Y8632941D01*
X7095699Y8639187D01*
D02*
G37*
G36*
X6173301Y8787301D02*
X6092701D01*
Y8706702D01*
X6147602D01*
X6153815Y8691702D01*
X6141982Y8679868D01*
X6129146Y8657636D01*
X6122501Y8632838D01*
Y8607166D01*
X6129146Y8582368D01*
X6141982Y8560136D01*
X6160135Y8541983D01*
X6182368Y8529147D01*
X6207165Y8522502D01*
X6232837D01*
X6257635Y8529147D01*
X6279868Y8541983D01*
X6298021Y8560136D01*
X6310857Y8582368D01*
X6317501Y8607166D01*
Y8632838D01*
X6310857Y8657636D01*
X6298021Y8679868D01*
X6279868Y8698021D01*
X6257635Y8710857D01*
X6232837Y8717502D01*
X6207165D01*
X6188302Y8712447D01*
X6175435Y8720100D01*
X6173301Y8722943D01*
Y8787301D01*
D02*
G37*
G36*
X7297900Y8887899D02*
X7122100D01*
Y8712099D01*
X7284521D01*
X7288856Y8701222D01*
X7289214Y8697099D01*
X7271980Y8679865D01*
X7259144Y8657633D01*
X7252500Y8632835D01*
Y8607163D01*
X7259144Y8582365D01*
X7271980Y8560133D01*
X7290133Y8541980D01*
X7312366Y8529144D01*
X7337163Y8522499D01*
X7362836D01*
X7387633Y8529144D01*
X7409866Y8541980D01*
X7428019Y8560133D01*
X7440855Y8582365D01*
X7447499Y8607163D01*
Y8632835D01*
X7440855Y8657633D01*
X7428019Y8679865D01*
X7409866Y8698018D01*
X7387633Y8710854D01*
X7362836Y8717499D01*
X7337163D01*
X7312366Y8710854D01*
X7297900Y8719823D01*
Y8887899D01*
D02*
G37*
G36*
X5964574Y8633902D02*
X5941429D01*
X5919073Y8627912D01*
X5899029Y8616339D01*
X5882664Y8599974D01*
X5871092Y8579930D01*
X5865101Y8557574D01*
Y8534430D01*
X5871092Y8512074D01*
X5882664Y8492030D01*
X5899029Y8475665D01*
X5919073Y8464092D01*
X5941429Y8458102D01*
X5964574D01*
X5986929Y8464092D01*
X6006973Y8475665D01*
X6023339Y8492030D01*
X6034911Y8512074D01*
X6040901Y8534430D01*
Y8557574D01*
X6034911Y8579930D01*
X6023339Y8599974D01*
X6006973Y8616339D01*
X5986929Y8627912D01*
X5964574Y8633902D01*
D02*
G37*
G36*
X5710574D02*
X5687429D01*
X5665073Y8627912D01*
X5645029Y8616339D01*
X5628664Y8599974D01*
X5617092Y8579930D01*
X5611101Y8557574D01*
Y8534430D01*
X5617092Y8512074D01*
X5628664Y8492030D01*
X5645029Y8475665D01*
X5665073Y8464092D01*
X5687429Y8458102D01*
X5710574D01*
X5732929Y8464092D01*
X5752973Y8475665D01*
X5769339Y8492030D01*
X5780911Y8512074D01*
X5786901Y8534430D01*
Y8557574D01*
X5780911Y8579930D01*
X5769339Y8599974D01*
X5752973Y8616339D01*
X5732929Y8627912D01*
X5710574Y8633902D01*
D02*
G37*
G36*
X6586572Y8633899D02*
X6563427D01*
X6541071Y8627909D01*
X6521028Y8616336D01*
X6504662Y8599971D01*
X6493090Y8579927D01*
X6487100Y8557571D01*
Y8534427D01*
X6493090Y8512071D01*
X6504662Y8492027D01*
X6521028Y8475661D01*
X6541071Y8464089D01*
X6563427Y8458099D01*
X6586572D01*
X6608928Y8464089D01*
X6628972Y8475661D01*
X6645337Y8492027D01*
X6656909Y8512071D01*
X6662900Y8534427D01*
Y8557571D01*
X6656909Y8579927D01*
X6645337Y8599971D01*
X6628972Y8616336D01*
X6608928Y8627909D01*
X6586572Y8633899D01*
D02*
G37*
G36*
X7070299Y8533298D02*
X6989811D01*
X6996058Y8509986D01*
X7008341Y8488711D01*
X7025712Y8471340D01*
X7046987Y8459057D01*
X7070299Y8452811D01*
Y8533298D01*
D02*
G37*
G36*
X7176188D02*
X7095699D01*
Y8452810D01*
X7119012Y8459057D01*
X7140287Y8471340D01*
X7157658Y8488711D01*
X7169941Y8509986D01*
X7176188Y8533298D01*
D02*
G37*
G36*
X7315171Y8093763D02*
X7257470D01*
Y8036063D01*
X7315171D01*
Y8093763D01*
D02*
G37*
G36*
X8718700Y8041977D02*
X8616000D01*
Y7964277D01*
X8718700D01*
Y8041977D01*
D02*
G37*
G36*
X8590600D02*
X8487900D01*
Y7964277D01*
X8590600D01*
Y8041977D01*
D02*
G37*
G36*
X8188277D02*
X8085577D01*
Y7964277D01*
X8188277D01*
Y8041977D01*
D02*
G37*
G36*
X8448703Y8036968D02*
X8346003D01*
Y7959268D01*
X8448703D01*
Y8036968D01*
D02*
G37*
G36*
X8320603D02*
X8217903D01*
Y7959268D01*
X8320603D01*
Y8036968D01*
D02*
G37*
G36*
X6956000Y8921035D02*
X6924674Y8916911D01*
X6895483Y8904820D01*
X6870415Y8885585D01*
X6851180Y8860517D01*
X6839089Y8831326D01*
X6834965Y8800000D01*
Y8776135D01*
X6743415Y8684585D01*
X6724180Y8659518D01*
X6712089Y8630327D01*
X6707965Y8599000D01*
Y8279702D01*
X5877750D01*
X5860192Y8276209D01*
X5845307Y8266263D01*
X5835361Y8251378D01*
X5831869Y8233820D01*
X5835361Y8216262D01*
X5845307Y8201377D01*
X5860192Y8191431D01*
X5877750Y8187938D01*
X6718118D01*
X6724180Y8173302D01*
X6743415Y8148235D01*
X6773310Y8118341D01*
X6767096Y8103341D01*
X6666763D01*
X6664074Y8106030D01*
X6648454Y8112500D01*
X6631546D01*
X6615926Y8106030D01*
X6603970Y8094074D01*
X6597500Y8078454D01*
Y8061546D01*
X6603970Y8045926D01*
X6615926Y8033970D01*
X6631546Y8027500D01*
X6648454D01*
X6664074Y8033970D01*
X6666763Y8036660D01*
X6790000D01*
X6802759Y8039198D01*
X6813575Y8046425D01*
X6829400Y8062250D01*
X7137235Y7754415D01*
X7162302Y7735180D01*
X7191494Y7723088D01*
X7222820Y7718964D01*
X7522273D01*
Y7717123D01*
X7524679Y7698849D01*
X7531732Y7681821D01*
X7542952Y7667199D01*
X7629396Y7580755D01*
Y6920000D01*
Y6359997D01*
X7631802Y6341723D01*
X7638855Y6324695D01*
X7650076Y6310072D01*
X7702933Y6257215D01*
Y6160000D01*
X7704796Y6145845D01*
Y5924173D01*
X7707202Y5905900D01*
X7714256Y5888871D01*
X7725476Y5874249D01*
X7797633Y5802092D01*
X7780484Y5784943D01*
X7770538Y5770058D01*
X7767045Y5752500D01*
Y5117073D01*
X7770538Y5099515D01*
X7780484Y5084630D01*
X7847557Y5017557D01*
X7862442Y5007611D01*
X7880000Y5004119D01*
X7897558Y5007611D01*
X7912443Y5017557D01*
X7913296Y5018833D01*
X7933469Y5022024D01*
X7936280Y5019807D01*
Y4777965D01*
X7939562Y4744639D01*
X7949283Y4712594D01*
X7965069Y4683061D01*
X7986313Y4657175D01*
X8093056Y4550432D01*
X8118942Y4529188D01*
X8148475Y4513402D01*
X8180520Y4503681D01*
X8213846Y4500399D01*
X8257102D01*
Y4495005D01*
X8477101D01*
Y4499509D01*
X8517503D01*
Y4495005D01*
X8737502D01*
Y4499509D01*
X8777998D01*
Y4495005D01*
X8912143D01*
X8915047Y4493802D01*
X8931954D01*
X8934857Y4495005D01*
X8969924D01*
X8973145Y4494364D01*
X8976367Y4495005D01*
X8997998D01*
Y4500193D01*
X9002363Y4501061D01*
X9008088Y4504887D01*
X9008905Y4505412D01*
X9008931Y4505450D01*
X9008978Y4505481D01*
X9008979Y4505482D01*
X9009155Y4505658D01*
X9011271Y4508825D01*
X9013438Y4511951D01*
X9013476Y4512125D01*
X9013575Y4512273D01*
X9014318Y4516007D01*
X9015124Y4519727D01*
X9020958Y4859599D01*
X9020926Y4859774D01*
X9020961Y4859949D01*
X9020218Y4863686D01*
X9019540Y4867428D01*
X9019444Y4867578D01*
X9019409Y4867753D01*
X9017294Y4870918D01*
X9015234Y4874119D01*
X9015088Y4874220D01*
X9014989Y4874368D01*
X9011821Y4876485D01*
X9008695Y4878652D01*
X9008521Y4878690D01*
X9008373Y4878789D01*
X9004639Y4879531D01*
X9000919Y4880338D01*
X9000744Y4880306D01*
X9000569Y4880341D01*
X8567300D01*
X8561313Y4881532D01*
X8553509Y4879979D01*
X8546893Y4875559D01*
X8546893Y4875558D01*
X8546764Y4875430D01*
X8517503D01*
Y4851890D01*
X8492666D01*
X8480002Y4857530D01*
X8480002Y4866890D01*
Y4917730D01*
X8407101D01*
X8334202D01*
Y4866890D01*
X8334201Y4857530D01*
X8321538Y4851890D01*
X8296874D01*
X8296870Y4851889D01*
X8296867Y4851890D01*
X8293979Y4851889D01*
X8292925Y4851679D01*
X8283300Y4856836D01*
X8279992Y4859698D01*
X8277925Y4862824D01*
Y5401877D01*
X8354403D01*
Y5492277D01*
Y5582677D01*
X8277925D01*
Y5686881D01*
X8517499D01*
Y5682268D01*
X8737498D01*
Y5686881D01*
X8986479D01*
X8988469Y5687277D01*
X8998002D01*
Y5690919D01*
X9000898Y5692854D01*
X9005319Y5699469D01*
X9006871Y5707273D01*
Y6047702D01*
X9006870Y6047708D01*
X9006871Y6047715D01*
X9006111Y6051521D01*
X9005319Y6055505D01*
X9005315Y6055511D01*
X9005314Y6055517D01*
X9003242Y6058614D01*
X9000898Y6062121D01*
X9000893Y6062125D01*
X9000889Y6062130D01*
X8998000Y6064058D01*
X8997999Y6067701D01*
X8986479Y6068094D01*
X8986478Y6068094D01*
X8986466Y6068094D01*
X8983161Y6068091D01*
X8547409Y6067813D01*
X8547407Y6067813D01*
X8547406Y6067813D01*
X8547394D01*
X8546829Y6067700D01*
X8517499D01*
Y6046351D01*
X8504256Y6033109D01*
X8481953D01*
X8480003Y6047301D01*
X8480003Y6048109D01*
Y6107501D01*
X8407102D01*
X8334203D01*
Y6048109D01*
X8334202Y6047301D01*
X8332252Y6033109D01*
X8277925D01*
Y6574012D01*
X8354405D01*
Y6664412D01*
Y6754812D01*
X8277925D01*
Y6859059D01*
X8963803D01*
X8965253Y6858771D01*
X8966702Y6859059D01*
X8980310D01*
X8980346Y6859066D01*
X8980383Y6859059D01*
X8982123Y6859412D01*
X8997952D01*
Y6869856D01*
X8999149Y6871647D01*
X8999157Y6871684D01*
X8999177Y6871715D01*
X8999929Y6875566D01*
X9000702Y6879451D01*
X9000694Y6879488D01*
X9000701Y6879524D01*
X8999470Y7221312D01*
X8998690Y7225163D01*
X8997952Y7228870D01*
Y7239835D01*
X8987246D01*
X8986882Y7240078D01*
X8986845Y7240086D01*
X8986814Y7240106D01*
X8982963Y7240858D01*
X8979078Y7241630D01*
X8936133D01*
X8933454Y7242740D01*
X8916547D01*
X8913868Y7241630D01*
X8540368D01*
X8532564Y7240078D01*
X8532208Y7239840D01*
X8517527D01*
Y7227236D01*
X8500510Y7210219D01*
X8481888D01*
X8480005Y7224439D01*
X8480005Y7225219D01*
Y7284640D01*
X8407106D01*
X8334205D01*
Y7225219D01*
X8334205Y7224439D01*
X8332322Y7210219D01*
X8277925D01*
Y7521935D01*
X8274643Y7555260D01*
X8264922Y7587306D01*
X8249136Y7616838D01*
X8227892Y7642724D01*
X8023298Y7847319D01*
X8029038Y7861177D01*
X8060177D01*
Y7951577D01*
Y8041977D01*
X8029038D01*
X8023298Y8055835D01*
X8107071Y8139608D01*
X8623265D01*
X8624876Y8139396D01*
X8970756D01*
X9097108Y8013044D01*
Y7942500D01*
X9098660Y7934696D01*
X9103081Y7928081D01*
X9109696Y7923660D01*
X9117500Y7922108D01*
X9262500D01*
X9270304Y7923660D01*
X9276919Y7928081D01*
X9281340Y7934696D01*
X9282892Y7942500D01*
Y8157500D01*
X9281340Y8165304D01*
X9276919Y8171919D01*
X9270304Y8176340D01*
X9262500Y8177892D01*
X9131958D01*
X9049925Y8259924D01*
X9035303Y8271144D01*
X9018274Y8278198D01*
X9000001Y8280604D01*
X8713694D01*
Y8405000D01*
X9249999D01*
Y8895000D01*
X8712528D01*
X8697902Y8895901D01*
X8685371Y8895900D01*
X8597702D01*
Y8840500D01*
X8585002D01*
Y8827800D01*
X8472102D01*
Y8785101D01*
X8487058D01*
X8488535Y8770101D01*
X8482196Y8768840D01*
X8475581Y8764419D01*
X8471160Y8757804D01*
X8469608Y8750000D01*
Y8540392D01*
X7970000D01*
X7962196Y8538840D01*
X7955581Y8534419D01*
X7951160Y8527804D01*
X7949608Y8520000D01*
Y8465304D01*
X7692087Y8207783D01*
X7670843Y8181897D01*
X7655058Y8152364D01*
X7645337Y8120319D01*
X7642055Y8086993D01*
Y7937416D01*
X7628197Y7931676D01*
X7617797Y7942075D01*
X7613754Y7945177D01*
Y8117129D01*
X7610262Y8134687D01*
X7600316Y8149572D01*
X7552501Y8197386D01*
Y8267500D01*
X7417501D01*
Y8190731D01*
X7402501Y8183221D01*
X7397500Y8186963D01*
Y8267500D01*
X7262500D01*
Y8132500D01*
X7350350D01*
X7375229Y8107621D01*
X7369489Y8093763D01*
X7340571D01*
Y8023363D01*
X7327871D01*
Y8010663D01*
X7257470D01*
Y7996118D01*
X7243612Y7990378D01*
X6950036Y8283954D01*
Y8548866D01*
X6979557Y8578387D01*
X6993006Y8570623D01*
X6989811Y8558698D01*
X7070299D01*
Y8639187D01*
X7056768Y8635562D01*
X7047968Y8648733D01*
X7060820Y8665483D01*
X7072912Y8694674D01*
X7077036Y8726000D01*
Y8800000D01*
X7072912Y8831326D01*
X7060820Y8860517D01*
X7041585Y8885585D01*
X7016518Y8904820D01*
X6987327Y8916911D01*
X6956000Y8921035D01*
D02*
G37*
G36*
X8718700Y7938877D02*
X8616000D01*
Y7861177D01*
X8718700D01*
Y7938877D01*
D02*
G37*
G36*
X8590600D02*
X8487900D01*
Y7861177D01*
X8590600D01*
Y7938877D01*
D02*
G37*
G36*
X8188277D02*
X8085577D01*
Y7861177D01*
X8188277D01*
Y7938877D01*
D02*
G37*
G36*
X8448703Y7933868D02*
X8346003D01*
Y7856168D01*
X8448703D01*
Y7933868D01*
D02*
G37*
G36*
X8320603D02*
X8217903D01*
Y7856168D01*
X8320603D01*
Y7933868D01*
D02*
G37*
G36*
X8742926Y7525240D02*
X8640227D01*
Y7447540D01*
X8742926D01*
Y7525240D01*
D02*
G37*
G36*
X9003352D02*
X8900653D01*
Y7447540D01*
X9003352D01*
Y7525240D01*
D02*
G37*
G36*
X8614827D02*
X8512126D01*
Y7447540D01*
X8614827D01*
Y7525240D01*
D02*
G37*
G36*
X8875253D02*
X8772553D01*
Y7447540D01*
X8875253D01*
Y7525240D01*
D02*
G37*
G36*
X9003352Y7422140D02*
X8900653D01*
Y7344440D01*
X9003352D01*
Y7422140D01*
D02*
G37*
G36*
X8875253D02*
X8772553D01*
Y7344440D01*
X8875253D01*
Y7422140D01*
D02*
G37*
G36*
X8742926D02*
X8640227D01*
Y7344440D01*
X8742926D01*
Y7422140D01*
D02*
G37*
G36*
X8614827D02*
X8512126D01*
Y7344440D01*
X8614827D01*
Y7422140D01*
D02*
G37*
G36*
X8480005Y7370240D02*
X8419806D01*
Y7310040D01*
X8480005D01*
Y7370240D01*
D02*
G37*
G36*
X8394406D02*
X8334205D01*
Y7310040D01*
X8394406D01*
Y7370240D01*
D02*
G37*
G36*
X9117301Y7234750D02*
Y7200864D01*
X9151186D01*
X9145208Y7215297D01*
X9131734Y7228772D01*
X9117301Y7234750D01*
D02*
G37*
G36*
X9091901D02*
X9077467Y7228772D01*
X9063993Y7215297D01*
X9058015Y7200864D01*
X9091901D01*
Y7234750D01*
D02*
G37*
G36*
X9151186Y7175464D02*
X9117301D01*
Y7141579D01*
X9131734Y7147557D01*
X9145208Y7161031D01*
X9151186Y7175464D01*
D02*
G37*
G36*
X9091901D02*
X9058015D01*
X9063993Y7161031D01*
X9077467Y7147557D01*
X9091901Y7141579D01*
Y7175464D01*
D02*
G37*
G36*
X9122298Y7110997D02*
Y7077111D01*
X9156184D01*
X9150205Y7091544D01*
X9136731Y7105019D01*
X9122298Y7110997D01*
D02*
G37*
G36*
X9096898D02*
X9082465Y7105019D01*
X9068990Y7091544D01*
X9063012Y7077111D01*
X9096898D01*
Y7110997D01*
D02*
G37*
G36*
X9156184Y7051711D02*
X9122298D01*
Y7017825D01*
X9136731Y7023804D01*
X9150205Y7037278D01*
X9156184Y7051711D01*
D02*
G37*
G36*
X9096898D02*
X9063012D01*
X9068990Y7037278D01*
X9082465Y7023804D01*
X9096898Y7017825D01*
Y7051711D01*
D02*
G37*
G36*
X9117301Y6984751D02*
Y6950865D01*
X9151186D01*
X9145208Y6965298D01*
X9131734Y6978772D01*
X9117301Y6984751D01*
D02*
G37*
G36*
X9091901D02*
X9077467Y6978772D01*
X9063993Y6965298D01*
X9058015Y6950865D01*
X9091901D01*
Y6984751D01*
D02*
G37*
G36*
X9151186Y6925465D02*
X9117301D01*
Y6891579D01*
X9131734Y6897557D01*
X9145208Y6911032D01*
X9151186Y6925465D01*
D02*
G37*
G36*
X9091901D02*
X9058015D01*
X9063993Y6911032D01*
X9077467Y6897557D01*
X9091901Y6891579D01*
Y6925465D01*
D02*
G37*
G36*
X9003352Y6754812D02*
X8900653D01*
Y6677112D01*
X9003352D01*
Y6754812D01*
D02*
G37*
G36*
X8875253D02*
X8772553D01*
Y6677112D01*
X8875253D01*
Y6754812D01*
D02*
G37*
G36*
X8742926D02*
X8640226D01*
Y6677112D01*
X8742926D01*
Y6754812D01*
D02*
G37*
G36*
X8614826D02*
X8512126D01*
Y6677112D01*
X8614826D01*
Y6754812D01*
D02*
G37*
G36*
X8482505D02*
X8379805D01*
Y6677112D01*
X8482505D01*
Y6754812D01*
D02*
G37*
G36*
X9003352Y6651712D02*
X8900653D01*
Y6574012D01*
X9003352D01*
Y6651712D01*
D02*
G37*
G36*
X8875253D02*
X8772553D01*
Y6574012D01*
X8875253D01*
Y6651712D01*
D02*
G37*
G36*
X8742926D02*
X8640226D01*
Y6574012D01*
X8742926D01*
Y6651712D01*
D02*
G37*
G36*
X8614826D02*
X8512126D01*
Y6574012D01*
X8614826D01*
Y6651712D01*
D02*
G37*
G36*
X8482505D02*
X8379805D01*
Y6574012D01*
X8482505D01*
Y6651712D01*
D02*
G37*
G36*
X9003396Y6353100D02*
X8900695D01*
Y6275400D01*
X9003396D01*
Y6353100D01*
D02*
G37*
G36*
X8742898D02*
X8640198D01*
Y6275400D01*
X8742898D01*
Y6353100D01*
D02*
G37*
G36*
X8875295D02*
X8772596D01*
Y6275400D01*
X8875295D01*
Y6353100D01*
D02*
G37*
G36*
X8614798D02*
X8512099D01*
Y6275400D01*
X8614798D01*
Y6353100D01*
D02*
G37*
G36*
X9003396Y6250000D02*
X8900695D01*
Y6172300D01*
X9003396D01*
Y6250000D01*
D02*
G37*
G36*
X8875295D02*
X8772596D01*
Y6172300D01*
X8875295D01*
Y6250000D01*
D02*
G37*
G36*
X8742898D02*
X8640198D01*
Y6172300D01*
X8742898D01*
Y6250000D01*
D02*
G37*
G36*
X8614798D02*
X8512099D01*
Y6172300D01*
X8614798D01*
Y6250000D01*
D02*
G37*
G36*
X8480003Y6193101D02*
X8419802D01*
Y6132901D01*
X8480003D01*
Y6193101D01*
D02*
G37*
G36*
X8394402D02*
X8334203D01*
Y6132901D01*
X8394402D01*
Y6193101D01*
D02*
G37*
G36*
X9124179Y6019287D02*
Y5985402D01*
X9158065D01*
X9152087Y5999835D01*
X9138612Y6013309D01*
X9124179Y6019287D01*
D02*
G37*
G36*
X9098779D02*
X9084346Y6013309D01*
X9070872Y5999835D01*
X9064893Y5985402D01*
X9098779D01*
Y6019287D01*
D02*
G37*
G36*
X9158065Y5960002D02*
X9064893D01*
X9070872Y5945568D01*
X9084346Y5932094D01*
X9097405Y5926685D01*
X9101951Y5924801D01*
X9101052Y5910174D01*
X9091953Y5910174D01*
X9074347Y5902882D01*
X9060873Y5889407D01*
X9054895Y5874974D01*
X9148066D01*
X9142088Y5889407D01*
X9128613Y5902882D01*
X9115554Y5908291D01*
X9111009Y5910174D01*
X9111907Y5924801D01*
X9121007Y5924802D01*
X9138612Y5932094D01*
X9152087Y5945568D01*
X9158065Y5960002D01*
D02*
G37*
G36*
X9148066Y5849574D02*
X9114180D01*
Y5815688D01*
X9128613Y5821667D01*
X9142088Y5835141D01*
X9148066Y5849574D01*
D02*
G37*
G36*
X9088780D02*
X9054895D01*
X9060873Y5835141D01*
X9074347Y5821667D01*
X9088780Y5815688D01*
Y5849574D01*
D02*
G37*
G36*
X9124179Y5794287D02*
Y5760401D01*
X9158065D01*
X9152087Y5774835D01*
X9138612Y5788309D01*
X9124179Y5794287D01*
D02*
G37*
G36*
X9098779D02*
X9084346Y5788309D01*
X9070872Y5774835D01*
X9064893Y5760401D01*
X9098779D01*
Y5794287D01*
D02*
G37*
G36*
X9158065Y5735001D02*
X9124179D01*
Y5701116D01*
X9138612Y5707094D01*
X9152087Y5720568D01*
X9158065Y5735001D01*
D02*
G37*
G36*
X9098779D02*
X9064893D01*
X9070872Y5720568D01*
X9084346Y5707094D01*
X9098779Y5701116D01*
Y5735001D01*
D02*
G37*
G36*
X9003402Y5582677D02*
X8900703D01*
Y5504977D01*
X9003402D01*
Y5582677D01*
D02*
G37*
G36*
X8875303D02*
X8772603D01*
Y5504977D01*
X8875303D01*
Y5582677D01*
D02*
G37*
G36*
X8482502D02*
X8379803D01*
Y5504977D01*
X8482502D01*
Y5582677D01*
D02*
G37*
G36*
X8742898Y5577668D02*
X8640198D01*
Y5499968D01*
X8742898D01*
Y5577668D01*
D02*
G37*
G36*
X8614798D02*
X8512099D01*
Y5499968D01*
X8614798D01*
Y5577668D01*
D02*
G37*
G36*
X9003402Y5479577D02*
X8900703D01*
Y5401877D01*
X9003402D01*
Y5479577D01*
D02*
G37*
G36*
X8875303D02*
X8772603D01*
Y5401877D01*
X8875303D01*
Y5479577D01*
D02*
G37*
G36*
X8482502D02*
X8379803D01*
Y5401877D01*
X8482502D01*
Y5479577D01*
D02*
G37*
G36*
X8742898Y5474568D02*
X8640198D01*
Y5396869D01*
X8742898D01*
Y5474568D01*
D02*
G37*
G36*
X8614798D02*
X8512099D01*
Y5396869D01*
X8614798D01*
Y5474568D01*
D02*
G37*
G36*
X9003398Y5160829D02*
X8900699D01*
Y5083129D01*
X9003398D01*
Y5160829D01*
D02*
G37*
G36*
X8742902D02*
X8640202D01*
Y5083129D01*
X8742902D01*
Y5160829D01*
D02*
G37*
G36*
X8614802D02*
X8512103D01*
Y5083129D01*
X8614802D01*
Y5160829D01*
D02*
G37*
G36*
X8875299D02*
X8772598D01*
Y5083129D01*
X8875299D01*
Y5160829D01*
D02*
G37*
G36*
X9003398Y5057729D02*
X8900699D01*
Y4980029D01*
X9003398D01*
Y5057729D01*
D02*
G37*
G36*
X8875299D02*
X8772598D01*
Y4980029D01*
X8875299D01*
Y5057729D01*
D02*
G37*
G36*
X8742902D02*
X8640202D01*
Y4980029D01*
X8742902D01*
Y5057729D01*
D02*
G37*
G36*
X8614802D02*
X8512103D01*
Y4980029D01*
X8614802D01*
Y5057729D01*
D02*
G37*
G36*
X8480002Y5003330D02*
X8419801D01*
Y4943130D01*
X8480002D01*
Y5003330D01*
D02*
G37*
G36*
X8394401D02*
X8334202D01*
Y4943130D01*
X8394401D01*
Y5003330D01*
D02*
G37*
G36*
X9121847Y4841160D02*
Y4807274D01*
X9155733D01*
X9149755Y4821707D01*
X9136280Y4835182D01*
X9121847Y4841160D01*
D02*
G37*
G36*
X9096447D02*
X9082014Y4835182D01*
X9068540Y4821707D01*
X9062562Y4807274D01*
X9096447D01*
Y4841160D01*
D02*
G37*
G36*
X9155733Y4781874D02*
X9121847D01*
Y4747988D01*
X9136280Y4753967D01*
X9149755Y4767441D01*
X9155733Y4781874D01*
D02*
G37*
G36*
X9096447D02*
X9062562D01*
X9068540Y4767441D01*
X9082014Y4753967D01*
X9096447Y4747988D01*
Y4781874D01*
D02*
G37*
G36*
X9121262Y4720312D02*
Y4686426D01*
X9155148D01*
X9149169Y4700859D01*
X9135695Y4714333D01*
X9121262Y4720312D01*
D02*
G37*
G36*
X9095862D02*
X9081429Y4714333D01*
X9067954Y4700859D01*
X9061976Y4686426D01*
X9095862D01*
Y4720312D01*
D02*
G37*
G36*
X9155148Y4661026D02*
X9121262D01*
Y4627140D01*
X9135695Y4633118D01*
X9149169Y4646593D01*
X9155148Y4661026D01*
D02*
G37*
G36*
X9095862D02*
X9061976D01*
X9067954Y4646593D01*
X9081429Y4633118D01*
X9095862Y4627140D01*
Y4661026D01*
D02*
G37*
G36*
X9121847Y4591160D02*
Y4557274D01*
X9155733D01*
X9149755Y4571707D01*
X9136280Y4585182D01*
X9121847Y4591160D01*
D02*
G37*
G36*
X9096447D02*
X9082014Y4585182D01*
X9068540Y4571707D01*
X9062562Y4557274D01*
X9096447D01*
Y4591160D01*
D02*
G37*
G36*
X9155733Y4531874D02*
X9121847D01*
Y4497988D01*
X9136280Y4503967D01*
X9149755Y4517441D01*
X9155733Y4531874D01*
D02*
G37*
G36*
X9096447D02*
X9062562D01*
X9068540Y4517441D01*
X9082014Y4503967D01*
X9096447Y4497988D01*
Y4531874D01*
D02*
G37*
G36*
X9003398Y4390400D02*
X8900698D01*
Y4312700D01*
X9003398D01*
Y4390400D01*
D02*
G37*
G36*
X8875298D02*
X8772598D01*
Y4312700D01*
X8875298D01*
Y4390400D01*
D02*
G37*
G36*
X8742902D02*
X8640202D01*
Y4312700D01*
X8742902D01*
Y4390400D01*
D02*
G37*
G36*
X8614802D02*
X8512103D01*
Y4312700D01*
X8614802D01*
Y4390400D01*
D02*
G37*
G36*
X8482501D02*
X8379802D01*
Y4312700D01*
X8482501D01*
Y4390400D01*
D02*
G37*
G36*
X8354402D02*
X8251702D01*
Y4312700D01*
X8354402D01*
Y4390400D01*
D02*
G37*
G36*
X9003398Y4287300D02*
X8900698D01*
Y4209600D01*
X9003398D01*
Y4287300D01*
D02*
G37*
G36*
X8875298D02*
X8772598D01*
Y4209600D01*
X8875298D01*
Y4287300D01*
D02*
G37*
G36*
X8742902D02*
X8640202D01*
Y4209600D01*
X8742902D01*
Y4287300D01*
D02*
G37*
G36*
X8614802D02*
X8512103D01*
Y4209600D01*
X8614802D01*
Y4287300D01*
D02*
G37*
G36*
X8482501D02*
X8379802D01*
Y4209600D01*
X8482501D01*
Y4287300D01*
D02*
G37*
G36*
X8354402D02*
X8251702D01*
Y4209600D01*
X8354402D01*
Y4287300D01*
D02*
G37*
%LPD*%
G36*
X8980310Y6879451D02*
X8225000D01*
Y7189827D01*
X8508957D01*
X8540368Y7221239D01*
X8979078D01*
X8980310Y6879451D01*
D02*
G37*
G36*
X7936280Y6890230D02*
Y6190193D01*
X7933469Y6187975D01*
X7913296Y6191167D01*
X7912443Y6192443D01*
X7897558Y6202389D01*
X7880000Y6205882D01*
X7844141D01*
Y6286460D01*
X7841735Y6304734D01*
X7834681Y6321762D01*
X7823461Y6336385D01*
X7770604Y6389242D01*
Y6874118D01*
X7879576D01*
X7897135Y6877611D01*
X7912019Y6887557D01*
X7912443Y6887980D01*
X7913296Y6889257D01*
X7933469Y6892448D01*
X7936280Y6890230D01*
D02*
G37*
G36*
Y5755619D02*
Y5080193D01*
X7933469Y5077975D01*
X7913296Y5081167D01*
X7912443Y5082443D01*
X7858808Y5136078D01*
Y5733495D01*
X7874948Y5749635D01*
X7880000Y5748969D01*
X7898274Y5751375D01*
X7915302Y5758429D01*
X7921280Y5763016D01*
X7936280Y5755619D01*
D02*
G37*
G36*
X8986479Y5707273D02*
X8225000D01*
Y6012717D01*
X8512703D01*
X8547407Y6047421D01*
X8986479Y6047702D01*
Y5707273D01*
D02*
G37*
G36*
X8562504Y4859949D02*
X9000569D01*
X8994735Y4520077D01*
X8994559Y4519901D01*
X8293992D01*
X8293986Y4831497D01*
X8296874Y4831498D01*
X8531671D01*
X8561313Y4861140D01*
X8562504Y4859949D01*
D02*
G37*
D10*
X6351234Y5935400D02*
X6475834Y6060000D01*
X6075400Y5935400D02*
X6351234D01*
X6530000Y6060000D02*
X6710000Y6240000D01*
X6475834Y6060000D02*
X6530000D01*
X6710000Y6240000D02*
X6915500D01*
X6318189Y5992870D02*
X6370000Y6044681D01*
X6317732Y5992870D02*
X6318189D01*
X5910000Y6520000D02*
X6120000D01*
X5860000Y6470000D02*
X5910000Y6520000D01*
X6120000D02*
X6266000Y6666000D01*
X5612500Y6194032D02*
Y6237926D01*
X4863622Y6906934D02*
X4943493D01*
X5612500Y6237926D01*
X4854004Y6916552D02*
X4863622Y6906934D01*
X5990397Y6425400D02*
X6205399D01*
X5937498Y6372501D02*
X5990397Y6425400D01*
X6185200Y5885200D02*
X6455200D01*
X5929001Y5629001D02*
X6185200Y5885200D01*
X5929001Y5160999D02*
Y5629001D01*
X5620000Y5480000D02*
X6075400Y5935400D01*
X6020000Y5530000D02*
X6320000Y5830000D01*
X6020000Y5100000D02*
Y5530000D01*
X5497000Y4577000D02*
X6020000Y5100000D01*
X4854000Y4577000D02*
X5497000D01*
X6120000Y5000002D02*
Y5465321D01*
X6100000Y5485321D02*
Y5490000D01*
Y5485321D02*
X6120000Y5465321D01*
X5929001Y5160999D02*
X5930000Y5160000D01*
X6318999Y6539000D02*
X7087500D01*
X6205399Y6425400D02*
X6318999Y6539000D01*
X6266000Y6666000D02*
X7087500D01*
X6150000Y6380000D02*
X6910000D01*
X6100000Y6330000D02*
X6150000Y6380000D01*
X6915500Y6240000D02*
X7087500Y6412000D01*
X4935449Y6763152D02*
X5270021Y6428579D01*
Y6389979D02*
Y6428579D01*
Y6389979D02*
X5608344Y6051656D01*
X4850073Y6763152D02*
X4935449D01*
X4634392Y6978833D02*
X4850073Y6763152D01*
X4600004Y7013677D02*
Y7043552D01*
Y7013677D02*
X4634392Y6979290D01*
Y6978833D02*
Y6979290D01*
X6790000Y8070000D02*
X6870000Y8150000D01*
X6137700Y6157272D02*
Y6187700D01*
X6170000Y6220000D01*
X6024999Y6044571D02*
X6137700Y6157272D01*
X6180000Y6070000D02*
X6314800D01*
X6370000Y6044681D02*
Y6197301D01*
X6250000Y6317301D02*
X6370000Y6197301D01*
X6446776Y5581590D02*
Y5623224D01*
Y5581590D02*
X6474999Y5553366D01*
X6455200Y5885200D02*
X6460000Y5890000D01*
X6320000Y5750000D02*
X6446776Y5623224D01*
X6479998Y5730000D02*
X6512298Y5697700D01*
Y5671068D02*
Y5697700D01*
Y5671068D02*
X6630000Y5553366D01*
X6640000Y8070000D02*
X6790000D01*
X8931995Y6925369D02*
X8965253Y6892111D01*
X8912952Y6944412D02*
X8965253Y6892111D01*
X8922170Y4578679D02*
X8973145Y4527704D01*
X8895845Y4580005D02*
X8920845D01*
X8895845Y4578679D02*
X8922170D01*
X8887953Y6944412D02*
X8912952D01*
X5176610Y5217740D02*
X5193682D01*
X5197432Y5221490D01*
X5027856Y5068986D02*
X5176610Y5217740D01*
X4852427Y5063990D02*
X4884727Y5031690D01*
X4910156D02*
X5027856Y4913990D01*
X4884727Y5031690D02*
X4910156D01*
X7445572Y8055663D02*
X7477873Y8023363D01*
X7330000Y8200000D02*
X7445572Y8084428D01*
Y8055663D02*
Y8084428D01*
D11*
X8888003Y5772277D02*
D03*
Y5492277D02*
D03*
X8367103Y5772277D02*
D03*
Y5492277D02*
D03*
X8627498Y5767268D02*
D03*
Y5487268D02*
D03*
Y5982701D02*
D03*
Y6262700D02*
D03*
X8627502Y4790430D02*
D03*
Y5070429D02*
D03*
Y4580005D02*
D03*
Y4300000D02*
D03*
X8887998Y4790430D02*
D03*
Y5070429D02*
D03*
X8887999Y5982701D02*
D03*
X8887996Y6262700D02*
D03*
X8887998Y4580005D02*
D03*
Y4300000D02*
D03*
X8367102Y4580005D02*
D03*
Y4300000D02*
D03*
X8367105Y6944412D02*
D03*
Y6664412D02*
D03*
X8887953Y7434840D02*
D03*
Y7154835D02*
D03*
X8627526Y7434840D02*
D03*
Y7154840D02*
D03*
X8887953Y6944412D02*
D03*
Y6664412D02*
D03*
X8627526Y6944412D02*
D03*
Y6664412D02*
D03*
X8072877Y7951577D02*
D03*
Y8231576D02*
D03*
X8333303Y7946568D02*
D03*
Y8226567D02*
D03*
X8603300Y7951577D02*
D03*
Y8231576D02*
D03*
X8069148Y8731575D02*
D03*
Y8451576D02*
D03*
X8329574Y8731575D02*
D03*
Y8451576D02*
D03*
D12*
X8407102Y4930430D02*
D03*
Y4775429D02*
D03*
X8407103Y6120201D02*
D03*
Y5965200D02*
D03*
X8407105Y7297339D02*
D03*
Y7142339D02*
D03*
X5027856Y5068986D02*
D03*
Y4913990D02*
D03*
D14*
X4852427Y5063990D02*
D03*
Y4913993D02*
D03*
D20*
X6462503Y5905424D02*
D03*
X6617499D02*
D03*
X6024999Y6044571D02*
D03*
X6180000D02*
D03*
X6630000Y5553366D02*
D03*
X6474999D02*
D03*
X7485001Y8200000D02*
D03*
X7330000D02*
D03*
D23*
X8585002Y8840500D02*
D03*
Y8713500D02*
D03*
Y8586500D02*
D03*
Y8459500D02*
D03*
D30*
X7477873Y8023363D02*
D03*
X7327870D02*
D03*
X6479998Y5730000D02*
D03*
X6630000D02*
D03*
X6170000Y6220000D02*
D03*
X6020003D02*
D03*
D37*
X7812927Y5117073D02*
Y5752500D01*
X7880000Y5819573D01*
Y5819573D01*
X7812927Y5117073D02*
X7880000Y5050000D01*
X7775400Y6160000D02*
X7880000D01*
X7773537D02*
X7775400D01*
X7567873Y7892151D02*
Y8117129D01*
X7700000Y6920000D02*
X7879576D01*
X7880000Y6920424D01*
X4487100Y7090315D02*
X4605841Y7209056D01*
X5030944D01*
X5210424Y5730003D02*
X5217922Y5737502D01*
X4846790Y5730003D02*
X5210424D01*
X4817500Y5759293D02*
Y5970000D01*
Y5759293D02*
X4846790Y5730003D01*
X7485001Y8200000D02*
X7567873Y8117129D01*
X5877750Y8233820D02*
X6829000D01*
X5004652Y7647278D02*
X5004787D01*
X4601999D02*
X5004652D01*
X4487100Y6902451D02*
Y7090315D01*
Y6902451D02*
X4600000Y6789551D01*
X4596000Y7653278D02*
X4601999Y7647278D01*
D38*
X7775400Y5924173D02*
X7880000Y5819573D01*
X7773537Y6160000D02*
Y6286460D01*
X7700000Y6359997D02*
Y6920000D01*
Y6359997D02*
X7773537Y6286460D01*
X7567873Y7892151D02*
X7592877Y7867147D01*
Y7717123D02*
Y7781724D01*
X7775400Y5924173D02*
Y6160000D01*
X7592877Y7840000D02*
Y7867147D01*
Y7717123D02*
X7700000Y7610000D01*
Y6920000D02*
Y7610000D01*
X5380410Y5692908D02*
X5705000Y6017498D01*
X5380410Y5404468D02*
Y5692908D01*
X5197432Y5221490D02*
X5380410Y5404468D01*
X8624876Y8210000D02*
X9000001D01*
X9158082Y8051919D01*
X5705000Y6627500D02*
X6068315D01*
X5380000Y6610000D02*
X5705000D01*
X6068315Y6627500D02*
X6180000Y6739186D01*
X4600000Y6789551D02*
Y6799238D01*
X4589150Y7660128D02*
X4596000Y7653278D01*
X5380000Y6610000D02*
Y6860000D01*
X5004652Y7235348D02*
X5380000Y6860000D01*
X5004652Y7235348D02*
Y7647278D01*
X5705000Y6017498D02*
Y6590000D01*
X6180000Y6739186D02*
Y6740000D01*
X6190000Y6750000D02*
X6670000D01*
X6180000Y6740000D02*
X6190000Y6750000D01*
X7542877Y7840000D02*
X7571153Y7811724D01*
X8603300Y8231576D02*
X8624876Y8210000D01*
X5004787Y7647278D02*
Y7820510D01*
X4780120Y8045177D02*
X4975497Y7849799D01*
X5004787Y7820510D01*
X4522500Y8194904D02*
X4672227Y8045177D01*
X4602850Y8490836D02*
X4608123Y8485563D01*
Y8402720D02*
Y8485563D01*
X4672227Y8045177D02*
X4780120D01*
X4522500Y8317097D02*
X4608123Y8402720D01*
X4522500Y8194904D02*
Y8317097D01*
X4602850Y8490836D02*
Y8516150D01*
X4596000Y8523000D02*
X4602850Y8516150D01*
D40*
X4550000Y6170000D02*
D03*
Y5510000D02*
D03*
D41*
X4850000Y8396002D02*
D03*
X4853997Y4323000D02*
D03*
X4850001Y7526277D02*
D03*
X4854004Y6662552D02*
D03*
D42*
X4596000Y8523002D02*
D03*
X4850000Y8650002D02*
D03*
X4596000Y8777002D02*
D03*
X5699001Y8546002D02*
D03*
X5826001Y8800002D02*
D03*
X5953001Y8546002D02*
D03*
X4599997Y4704000D02*
D03*
X4853997Y4577000D02*
D03*
X4599997Y4450000D02*
D03*
X7083000Y8545999D02*
D03*
X6956000Y8799999D02*
D03*
X6829000Y8545999D02*
D03*
X6702000Y8799999D02*
D03*
X6575000Y8545999D02*
D03*
X4596001Y7907277D02*
D03*
X4850001Y7780277D02*
D03*
X4596001Y7653277D02*
D03*
X4600004Y7043552D02*
D03*
X4854004Y6916552D02*
D03*
X4600004Y6789552D02*
D03*
D43*
X4670001Y8256002D02*
D03*
X6220001Y8620002D02*
D03*
X4673997Y4183000D02*
D03*
X7350000Y8619999D02*
D03*
X4670001Y7386277D02*
D03*
X4674004Y6522552D02*
D03*
D44*
X6080001Y8800002D02*
D03*
X7210000Y8799999D02*
D03*
D45*
X5400000Y8000000D02*
D03*
X7400000Y4400000D02*
D03*
D46*
X9225430Y7991918D02*
D03*
X9158082D02*
D03*
X7660000Y5920000D02*
D03*
X7880427Y5664999D02*
D03*
X7880424Y6764999D02*
D03*
X8759164Y7437070D02*
D03*
X6700000Y8160000D02*
D03*
X8800000Y7640000D02*
D03*
X8400000Y6220000D02*
D03*
X8843339Y5205664D02*
D03*
X8494232Y5487964D02*
D03*
X5197500Y5462500D02*
D03*
X5604799Y6470401D02*
D03*
X7130000Y7720000D02*
D03*
X9080000Y7750000D02*
D03*
X8440000Y7417500D02*
D03*
X7359800Y7574195D02*
D03*
X9167500Y8327500D02*
D03*
Y8240000D02*
D03*
X9225000Y8107500D02*
D03*
X9157500D02*
D03*
X9255000Y8327500D02*
D03*
X6560000Y6220000D02*
D03*
X6317732Y5992870D02*
D03*
X7087500Y5945000D02*
D03*
X5380000Y6610000D02*
D03*
X5230000Y6870000D02*
D03*
X5800000Y6230000D02*
D03*
X5860000Y6470000D02*
D03*
X5937498Y6372501D02*
D03*
X5750000Y6850000D02*
D03*
X4497500Y8022500D02*
D03*
X6100000Y5490000D02*
D03*
X5930000Y5160000D02*
D03*
X6820000Y6460000D02*
D03*
X6902500Y6147500D02*
D03*
X6910000Y6380000D02*
D03*
X6670000Y6750000D02*
D03*
X6180000Y6740000D02*
D03*
X5608344Y6051656D02*
D03*
X5530000Y7000000D02*
D03*
X5302500Y7295000D02*
D03*
X5850000Y5870000D02*
D03*
X4817500Y5970000D02*
D03*
X5217922Y5737502D02*
D03*
X5122921Y6007499D02*
D03*
X4817757Y5643978D02*
D03*
X9257500Y8240000D02*
D03*
X8198998Y8733134D02*
D03*
X8190000Y8600000D02*
D03*
X8400000Y8860000D02*
D03*
X8330000D02*
D03*
X8120000Y8600000D02*
D03*
X8260000D02*
D03*
X8400000D02*
D03*
X8330000D02*
D03*
X8260000Y8860000D02*
D03*
X8190000D02*
D03*
X8640000Y6540000D02*
D03*
X8850000D02*
D03*
X8635000Y5302500D02*
D03*
X8350937Y7829449D02*
D03*
X7220000Y8100000D02*
D03*
X6866615Y5543069D02*
D03*
X4563314Y5399946D02*
D03*
X5197500Y4950000D02*
D03*
X6030158Y8346124D02*
D03*
X5095807Y6367602D02*
D03*
X4820000Y6380000D02*
D03*
X6120000Y5000002D02*
D03*
X8360000Y5660000D02*
D03*
X8370000Y6540000D02*
D03*
X7500000Y7780000D02*
D03*
X7505000Y7890000D02*
D03*
X7587873Y7892151D02*
D03*
X8080000Y7830000D02*
D03*
X5877750Y8233820D02*
D03*
X9300000Y8680000D02*
D03*
X5680000Y8130000D02*
D03*
X6310000Y8360000D02*
D03*
X7130000Y8240000D02*
D03*
X7260000Y8450000D02*
D03*
X7910424Y8650000D02*
D03*
X7650002D02*
D03*
X8120000Y8860000D02*
D03*
X8080000Y8070000D02*
D03*
X7600000Y7100000D02*
D03*
X7535000Y7375000D02*
D03*
X8367105Y6804412D02*
D03*
X8850000Y6390000D02*
D03*
X8630000Y6400000D02*
D03*
X8815000Y4202500D02*
D03*
X8432500Y4877500D02*
D03*
X7855000Y4320000D02*
D03*
X8840826Y5360245D02*
D03*
X7662500Y4827500D02*
D03*
X8425000Y4465000D02*
D03*
X8470000Y5070000D02*
D03*
X4775000Y8865000D02*
D03*
X6865000Y4330000D02*
D03*
X7080000Y4800000D02*
D03*
X6237500Y4842500D02*
D03*
X5930000Y4440000D02*
D03*
X5610000D02*
D03*
X5105000Y4307500D02*
D03*
X6770000Y7270000D02*
D03*
X4570000Y6380000D02*
D03*
X5910000Y6220000D02*
D03*
X4697431Y5711490D02*
D03*
X5930000Y4850000D02*
D03*
X5460000D02*
D03*
X4855838Y5162557D02*
D03*
X5027431Y5361490D02*
D03*
X6675000Y5457500D02*
D03*
X6472497Y5910003D02*
D03*
X5612500Y6194032D02*
D03*
X6314800Y6070000D02*
D03*
X7087500Y6666000D02*
D03*
Y6539000D02*
D03*
Y6412000D02*
D03*
X6030001Y7225720D02*
D03*
X5620000Y5480000D02*
D03*
X6320000Y5750000D02*
D03*
Y5830000D02*
D03*
X6250000Y6317301D02*
D03*
X6100000Y6330000D02*
D03*
X6770000Y6760000D02*
D03*
X6640000Y8070000D02*
D03*
X7880000Y5819573D02*
D03*
Y6920424D02*
D03*
Y5050000D02*
D03*
Y6160000D02*
D03*
X9101480Y5862274D02*
D03*
X9111479Y5747701D02*
D03*
X8915879Y5731724D02*
D03*
Y5797844D02*
D03*
X8925000Y7060237D02*
D03*
X9109598Y7064411D02*
D03*
X9104601Y6938165D02*
D03*
Y7188164D02*
D03*
X8925000Y7132165D02*
D03*
Y6990234D02*
D03*
Y7200240D02*
D03*
Y6918374D02*
D03*
X8923500Y4806303D02*
D03*
X9109147Y4544574D02*
D03*
Y4794574D02*
D03*
X8923500Y4601064D02*
D03*
Y4536302D02*
D03*
X9111479Y5972702D02*
D03*
X9108562Y4673726D02*
D03*
X8923500Y4739503D02*
D03*
X8923547Y4673726D02*
D03*
X8915879Y5863383D02*
D03*
Y5925443D02*
D03*
Y5992144D02*
D03*
X6270000Y5530000D02*
D03*
X7591153Y7781724D02*
D03*
X9025000Y8450000D02*
D03*
X8925000Y8850000D02*
D03*
X9025000Y8550000D02*
D03*
X9125000D02*
D03*
X8925000D02*
D03*
X8825000Y8450000D02*
D03*
X9025000Y8650000D02*
D03*
X9125000D02*
D03*
Y8450000D02*
D03*
X8825000Y8550000D02*
D03*
X9025000Y8850000D02*
D03*
X9125000Y8750000D02*
D03*
X8825000D02*
D03*
X8925000Y8450000D02*
D03*
X8825000Y8850000D02*
D03*
X8925000Y8750000D02*
D03*
Y8650000D02*
D03*
X9025000Y8750000D02*
D03*
X8825000Y8650000D02*
D03*
X9125000Y8850000D02*
D03*
X5197432Y5221490D02*
D03*
D47*
X8974999Y8650000D02*
D03*
D48*
X6829000Y8233820D02*
Y8599000D01*
X7222820Y7840000D02*
X7542877D01*
X6829000Y8233820D02*
X7222820Y7840000D01*
X6829000Y8599000D02*
X6956000Y8726000D01*
Y8800000D01*
D49*
X8107103Y4777965D02*
Y7521935D01*
X7812877Y7816160D02*
X8107103Y7521935D01*
Y4777965D02*
X8213846Y4671221D01*
X7812877Y7816160D02*
Y8086993D01*
X8213846Y4671221D02*
X8360639D01*
X7812877Y8086993D02*
X8087798Y8361914D01*
X8309737D02*
X8331651Y8340000D01*
X8087798Y8361914D02*
X8309737D01*
D50*
X9190000Y8050000D02*
D03*
D51*
X8590000Y8595000D02*
D03*
D52*
X8331651Y8340000D02*
D03*
%TF.MD5,a8bc36fdf9ac41a6e2df9ecf903db7c9*%
M02*
