%TF.GenerationSoftware,Altium Limited,Altium Designer,22.9.1 (49)*%
G04 Layer_Color=0*
%FSLAX45Y45*%
%MOMM*%
%TF.SameCoordinates,EA90029D-DDF1-4691-B258-B80E594B725E*%
%TF.FilePolarity,Positive*%
%TF.FileFunction,Plated,1,4,PTH,Drill*%
%TF.Part,Single*%
G01*
G75*
%TA.AperFunction,ComponentDrill*%
%ADD92O,1.20000X0.50000*%
%ADD93C,0.85000*%
%ADD94C,0.85000*%
%TA.AperFunction,ViaDrill,NotFilled*%
%ADD95C,0.20000*%
D92*
X4550000Y6170000D02*
D03*
Y5510000D02*
D03*
D93*
X4850000Y8396002D02*
D03*
X4596000Y8523002D02*
D03*
X4850000Y8650002D02*
D03*
X4596000Y8777002D02*
D03*
X4599997Y4704000D02*
D03*
X4853997Y4577000D02*
D03*
X4599997Y4450000D02*
D03*
X4853997Y4323000D02*
D03*
X4596001Y7907277D02*
D03*
X4850001Y7780277D02*
D03*
X4596001Y7653277D02*
D03*
X4850001Y7526277D02*
D03*
X4600004Y7043552D02*
D03*
X4854004Y6916552D02*
D03*
X4600004Y6789552D02*
D03*
X4854004Y6662552D02*
D03*
D94*
X5699001Y8546002D02*
D03*
X5826001Y8800002D02*
D03*
X5953001Y8546002D02*
D03*
X6080001Y8800002D02*
D03*
X7210000Y8799999D02*
D03*
X7083000Y8545999D02*
D03*
X6956000Y8799999D02*
D03*
X6829000Y8545999D02*
D03*
X6702000Y8799999D02*
D03*
X6575000Y8545999D02*
D03*
D95*
X9225430Y7991918D02*
D03*
X9158082D02*
D03*
X7660000Y5920000D02*
D03*
X7880427Y5664999D02*
D03*
X7880424Y6764999D02*
D03*
X8759164Y7437070D02*
D03*
X6700000Y8160000D02*
D03*
X8800000Y7640000D02*
D03*
X8400000Y6220000D02*
D03*
X8843339Y5205664D02*
D03*
X8494232Y5487964D02*
D03*
X5197500Y5462500D02*
D03*
X5604799Y6470401D02*
D03*
X7130000Y7720000D02*
D03*
X9080000Y7750000D02*
D03*
X8440000Y7417500D02*
D03*
X7359800Y7574195D02*
D03*
X9167500Y8327500D02*
D03*
Y8240000D02*
D03*
X9225000Y8107500D02*
D03*
X9157500D02*
D03*
X9255000Y8327500D02*
D03*
X6560000Y6220000D02*
D03*
X6317732Y5992870D02*
D03*
X7087500Y5945000D02*
D03*
X5380000Y6610000D02*
D03*
X5230000Y6870000D02*
D03*
X5800000Y6230000D02*
D03*
X5860000Y6470000D02*
D03*
X5937498Y6372501D02*
D03*
X5750000Y6850000D02*
D03*
X4497500Y8022500D02*
D03*
X6100000Y5490000D02*
D03*
X5930000Y5160000D02*
D03*
X6820000Y6460000D02*
D03*
X6902500Y6147500D02*
D03*
X6910000Y6380000D02*
D03*
X6670000Y6750000D02*
D03*
X6180000Y6740000D02*
D03*
X5608344Y6051656D02*
D03*
X5530000Y7000000D02*
D03*
X5302500Y7295000D02*
D03*
X5850000Y5870000D02*
D03*
X4817500Y5970000D02*
D03*
X5217922Y5737502D02*
D03*
X5122921Y6007499D02*
D03*
X4817757Y5643978D02*
D03*
X9257500Y8240000D02*
D03*
X8198998Y8733134D02*
D03*
X8190000Y8600000D02*
D03*
X8400000Y8860000D02*
D03*
X8330000D02*
D03*
X8120000Y8600000D02*
D03*
X8260000D02*
D03*
X8400000D02*
D03*
X8330000D02*
D03*
X8260000Y8860000D02*
D03*
X8190000D02*
D03*
X8640000Y6540000D02*
D03*
X8850000D02*
D03*
X8635000Y5302500D02*
D03*
X8350937Y7829449D02*
D03*
X7220000Y8100000D02*
D03*
X6866615Y5543069D02*
D03*
X4563314Y5399946D02*
D03*
X5197500Y4950000D02*
D03*
X6030158Y8346124D02*
D03*
X5095807Y6367602D02*
D03*
X4820000Y6380000D02*
D03*
X6120000Y5000002D02*
D03*
X8360000Y5660000D02*
D03*
X8370000Y6540000D02*
D03*
X7500000Y7780000D02*
D03*
X7505000Y7890000D02*
D03*
X7587873Y7892151D02*
D03*
X8080000Y7830000D02*
D03*
X5877750Y8233820D02*
D03*
X9300000Y8680000D02*
D03*
X5680000Y8130000D02*
D03*
X6310000Y8360000D02*
D03*
X7130000Y8240000D02*
D03*
X7260000Y8450000D02*
D03*
X7910424Y8650000D02*
D03*
X7650002D02*
D03*
X8120000Y8860000D02*
D03*
X8080000Y8070000D02*
D03*
X7600000Y7100000D02*
D03*
X7535000Y7375000D02*
D03*
X8367105Y6804412D02*
D03*
X8850000Y6390000D02*
D03*
X8630000Y6400000D02*
D03*
X8815000Y4202500D02*
D03*
X8432500Y4877500D02*
D03*
X7855000Y4320000D02*
D03*
X8840826Y5360245D02*
D03*
X7662500Y4827500D02*
D03*
X8425000Y4465000D02*
D03*
X8470000Y5070000D02*
D03*
X4775000Y8865000D02*
D03*
X6865000Y4330000D02*
D03*
X7080000Y4800000D02*
D03*
X6237500Y4842500D02*
D03*
X5930000Y4440000D02*
D03*
X5610000D02*
D03*
X5105000Y4307500D02*
D03*
X6770000Y7270000D02*
D03*
X4570000Y6380000D02*
D03*
X5910000Y6220000D02*
D03*
X4697431Y5711490D02*
D03*
X5930000Y4850000D02*
D03*
X5460000D02*
D03*
X4855838Y5162557D02*
D03*
X5027431Y5361490D02*
D03*
X6675000Y5457500D02*
D03*
X6472497Y5910003D02*
D03*
X5612500Y6194032D02*
D03*
X6314800Y6070000D02*
D03*
X7087500Y6666000D02*
D03*
Y6539000D02*
D03*
Y6412000D02*
D03*
X6030001Y7225720D02*
D03*
X5620000Y5480000D02*
D03*
X6320000Y5750000D02*
D03*
Y5830000D02*
D03*
X6250000Y6317301D02*
D03*
X6100000Y6330000D02*
D03*
X6770000Y6760000D02*
D03*
X6640000Y8070000D02*
D03*
X7880000Y5819573D02*
D03*
Y6920424D02*
D03*
Y5050000D02*
D03*
Y6160000D02*
D03*
X9101480Y5862274D02*
D03*
X9111479Y5747701D02*
D03*
X8915879Y5731724D02*
D03*
Y5797844D02*
D03*
X8925000Y7060237D02*
D03*
X9109598Y7064411D02*
D03*
X9104601Y6938165D02*
D03*
Y7188164D02*
D03*
X8925000Y7132165D02*
D03*
Y6990234D02*
D03*
Y7200240D02*
D03*
Y6918374D02*
D03*
X8923500Y4806303D02*
D03*
X9109147Y4544574D02*
D03*
Y4794574D02*
D03*
X8923500Y4601064D02*
D03*
Y4536302D02*
D03*
X9111479Y5972702D02*
D03*
X9108562Y4673726D02*
D03*
X8923500Y4739503D02*
D03*
X8923547Y4673726D02*
D03*
X8915879Y5863383D02*
D03*
Y5925443D02*
D03*
Y5992144D02*
D03*
X6270000Y5530000D02*
D03*
X7591153Y7781724D02*
D03*
X9025000Y8450000D02*
D03*
X8925000Y8850000D02*
D03*
X9025000Y8550000D02*
D03*
X9125000D02*
D03*
X8925000D02*
D03*
X8825000Y8450000D02*
D03*
X9025000Y8650000D02*
D03*
X9125000D02*
D03*
Y8450000D02*
D03*
X8825000Y8550000D02*
D03*
X9025000Y8850000D02*
D03*
X9125000Y8750000D02*
D03*
X8825000D02*
D03*
X8925000Y8450000D02*
D03*
X8825000Y8850000D02*
D03*
X8925000Y8750000D02*
D03*
Y8650000D02*
D03*
X9025000Y8750000D02*
D03*
X8825000Y8650000D02*
D03*
X9125000Y8850000D02*
D03*
X5197432Y5221490D02*
D03*
%TF.MD5,cdbf7756707c2b7d76cbeb7da3ac4010*%
M02*
